<svg version="1" xmlns="http://www.w3.org/2000/svg" width="602pt" height="602pt" viewBox="0 0 602 602"><path d="M294.5 1.597c-7.047 1.747-12.876 4.138-19.939 8.18-4.434 2.537-8.286 4.896-8.561 5.241-.275.345-1.257.907-2.182 1.247-1.441.531-54.121 30.589-150.818 86.052-13.475 7.729-24.775 14.458-25.112 14.953-.336.496-.925.817-1.308.714-.383-.103-7.681 3.796-16.219 8.665-21.029 11.992-27.483 18.435-32.574 32.522L35.5 165.5l-.269 134.726c-.268 134.476-.264 134.738 1.827 140.946 2.812 8.348 8.266 16.315 14.435 21.089 2.794 2.161 19.013 12.028 36.043 21.926L137 512.931c18.248 10.602 73.085 42.53 115 66.958 28.328 16.509 33.177 18.873 41.25 20.113 6.6 1.013 19.44-.106 20.725-1.807.289-.382 1.402-.848 2.474-1.035 1.072-.186 12.772-6.521 26-14.077 91.414-52.214 142.154-81.523 142.786-82.475.404-.609.741-.794.75-.41.018.836 26.249-14.084 27.127-15.431.336-.516.925-.854 1.308-.751.383.103 7.721-3.796 16.307-8.665 22.404-12.703 29.99-20.828 33.722-36.116 1.155-4.734 1.457-29.045 1.725-139.235.306-125.153.216-133.856-1.434-139.189-.968-3.128-2.431-6.359-3.25-7.178-.82-.82-1.49-2.006-1.49-2.636 0-.63-2.569-3.838-5.708-7.13-6.246-6.548-6.384-6.635-56.292-35.603-18.975-11.014-60.6-35.202-92.5-53.752-31.9-18.55-64.094-37.265-71.543-41.591-7.448-4.325-15.548-8.573-18-9.44-4.552-1.609-17.852-2.777-21.457-1.884M310.88 43c3.882 2.2 7.485 4 8.006 4 .521 0 1.097.355 1.281.79.439 1.041 35.496 21.489 36.406 21.235.387-.108.979.221 1.315.729.604.913 7.018 4.689 81.112 47.749 72.934 42.385 85.525 49.822 87.862 51.899l2.363 2.098-.427 129.5c-.299 90.779-.753 130.098-1.517 131.5-.599 1.1-7.429 5.6-15.178 10-7.748 4.4-14.092 8.338-14.096 8.75-.004.413-.5.75-1.102.75-.602 0-9.265 4.648-19.25 10.329-25.876 14.722-147.891 84.65-161.932 92.806-6.478 3.762-12.871 7.115-14.208 7.45-1.618.407-4.363-.34-8.222-2.237-3.186-1.567-6.018-3.107-6.293-3.424-.55-.633-14.826-8.979-102.5-59.923-32.45-18.855-69.575-40.46-82.5-48.011-12.925-7.551-24.46-14.225-25.632-14.831-1.173-.607-2.473-1.903-2.889-2.881-.415-.978-.67-59.828-.565-130.778.18-122.502.28-129.126 1.991-131.494.991-1.372 7.38-5.678 14.198-9.57 62.449-35.646 102.521-58.888 103.132-59.818.404-.615.741-.801.75-.414.019.896 19.263-10.136 20.25-11.608.404-.603.741-.792.75-.421.008.371 14.978-7.925 33.265-18.435 46.672-26.823 51.968-29.717 54.41-29.729 1.189-.006 5.337 1.789 9.22 3.989" fill="#1B4BDDFF" stroke="#1B4BDDFF"/><path d="M290 44.325c-5.225 2.917-25.025 14.229-44 25.137a94876.991 94876.991 0 0 1-89 51.064c-80.717 46.255-80.327 46.025-82.181 48.595-1.597 2.215-1.728 11.275-1.905 131.379-.105 70.95.15 129.8.565 130.778.416.978 1.716 2.274 2.889 2.881 1.172.606 12.707 7.278 25.632 14.826 12.925 7.547 50.05 29.154 82.5 48.014 32.45 18.861 70.925 41.283 85.5 49.828 20.613 12.085 27.278 15.535 30 15.527 2.452-.007 6.495-1.764 13.5-5.867 8.934-5.232 81.111-46.642 178.347-102.32 18.89-10.817 34.797-20.508 35.349-21.536.647-1.207 1.19-47.808 1.533-131.5l.531-129.631-2.38-2.098c-2.593-2.286-13.051-8.425-140.38-82.402-15.4-8.947-35.875-20.873-45.5-26.501-32.439-18.97-37.064-21.499-39.285-21.488-1.218.006-6.49 2.397-11.715 5.314m2.665 97.245c.332.864-4.471 15.376-10.672 32.25a18827.66 18827.66 0 0 0-22.522 61.68c-6.186 17.05-19.889 54.625-30.452 83.5-10.562 28.875-23.725 65.1-29.251 80.5-5.526 15.4-10.896 28.9-11.933 30-1.72 1.824-3.409 2.027-19.226 2.313-22.758.411-21.944 1.171-16.152-15.084 2.397-6.726 7.362-20.329 11.034-30.229 3.672-9.9 12.228-33.3 19.014-52 6.785-18.7 21.63-59.425 32.987-90.5 11.358-31.075 24.28-66.542 28.717-78.816 4.437-12.275 8.712-22.962 9.5-23.75 1.141-1.142 5.199-1.434 19.894-1.434 15.853 0 18.545.222 19.062 1.57m56.056.144c.367.958-.708 5.481-2.437 10.25-6.912 19.065-23.173 63.638-35.765 98.036-13.957 38.125-22.065 60.367-48.668 133.5-8.803 24.2-16.883 44.9-17.954 46-1.803 1.851-3.265 2-19.561 2-14.986 0-17.762-.236-18.615-1.585-1.168-1.846 2.827-13.12 60.212-169.915a46149.37 46149.37 0 0 0 26.613-73c8.699-23.925 16.48-44.287 17.29-45.25 1.305-1.55 3.577-1.75 19.85-1.75 16.433 0 18.446.181 19.035 1.714M363.324 182c2.128 5.775 9.692 26.475 16.809 46 7.117 19.525 18.54 50.8 25.385 69.5C443.524 401.339 453 427.513 453 428.66c0 2.849-4.156 3.47-21.139 3.155-15.124-.28-17.175-.519-18.361-2.144-.735-1.006-2.917-6.181-4.85-11.5A47613.598 47613.598 0 0 0 389.959 367c-8.348-22.825-18.012-49.375-21.475-59-3.463-9.625-11.964-32.946-18.891-51.824C342.667 237.298 337 221.359 337 220.755c0-1.059 13.808-39.826 16.589-46.577 1.062-2.577 1.874-3.25 3.618-3 1.862.267 2.912 2.125 6.117 10.822m-26.149 82.5c3.259 8.8 10.665 29.05 16.459 45 5.794 15.95 15.408 42.275 21.365 58.5 21.776 59.309 22.402 61.234 20.395 62.701-2.458 1.797-32.842 1.802-36.393.005-2.085-1.055-3.92-5.155-11.069-24.735-4.713-12.909-15.405-42.146-23.76-64.971-8.354-22.825-15.186-42.296-15.181-43.27.008-1.618 16.226-46.655 17.603-48.881.327-.53 1.508-.825 2.625-.656 1.636.247 3.181 3.413 7.956 16.307" fill="#FFFFFFFF" stroke="#FFFFFFFF"/><path d="M310.5 2.026c6.287 1.269 9.1 2.578 23.5 10.929 7.425 4.307 39.6 23.007 71.5 41.557s73.525 42.738 92.5 53.752c49.85 28.934 50.053 29.063 56.167 35.472 6.622 6.942 9.306 11.866 11.407 20.926 1.382 5.962 1.483 21.23.906 137.771-.7 141.235-.519 136.791-5.99 147.586-5.889 11.622-7.596 12.75-94.058 62.149-43.963 25.117-94.977 54.291-113.366 64.832-35.559 20.381-38.148 21.681-45.716 22.951-2.668.448 62.313.867 144.4.931L601 601V1l-147.25.11c-80.987.06-145.45.472-143.25.916M1 301v300l148.25-.117c89.711-.071 146.078-.466 142.75-1-6.728-1.081-12.483-3.957-40-19.996a164530.993 164530.993 0 0 0-164.464-95.704c-17.03-9.896-33.249-19.761-36.043-21.922-6.181-4.783-11.624-12.744-14.453-21.141l-2.113-6.273.287-134.673L35.5 165.5l2.287-6.329c5.374-14.871 11.135-20.306 37.376-35.262 11.186-6.375 62.454-35.705 113.931-65.178C272.317 11.081 286.552 3.374 294.5 1.663c1.1-.237-64.487-.483-145.75-.547L1 1v300" fill="#FFFFFFFF" stroke="#FFFFFFFF"/><path d="M254.232 140.836c-1.169.742-6.883 14.323-7.593 18.046-.17.89-.82 2.743-1.445 4.118-1.929 4.243-40.17 109.354-40.566 111.5-.101.55-.463 1.45-.805 2-.341.55-8.059 21.475-17.151 46.5s-19.53 53.6-23.195 63.5c-3.664 9.9-8.623 23.503-11.02 30.229-5.792 16.255-6.606 15.495 16.152 15.084 15.817-.286 17.506-.489 19.226-2.313 1.386-1.47 20.535-52.331 22.59-60 .147-.55.828-2.35 1.512-4 2.033-4.898 38.514-105.014 47.736-131 4.685-13.2 8.851-24.675 9.259-25.5 3.149-6.367 24.208-66.194 23.734-67.427-.518-1.352-3.171-1.571-18.885-1.558-10.054.009-18.852.378-19.549.821M309.674 141.807c-.921 1.018-1.674 2.16-1.674 2.537 0 .378-6.717 19.018-14.926 41.422a34937.612 34937.612 0 0 0-22.927 62.734c-4.4 12.1-17.291 47.425-28.647 78.5-35.241 96.433-36.886 101.165-35.779 102.915.853 1.349 3.629 1.585 18.615 1.585 16.296 0 17.758-.149 19.562-2 1.072-1.1 8.241-19.325 15.931-40.5 7.69-21.175 18.993-52.225 25.117-69 18.91-51.796 25.979-71.44 26.272-73 .155-.825.532-1.725.838-2 1.042-.936 6.873-18 6.157-18.015-.392-.009-.244-.346.329-.75s3.452-7.485 6.398-15.735c2.947-8.25 9.581-26.475 14.744-40.5 5.163-14.025 9.259-26.4 9.102-27.5-.273-1.907-1.153-2.013-18.862-2.271-17.004-.249-18.717-.115-20.25 1.578M353.589 174.178c-.753 1.827-4.833 12.919-9.068 24.648-8.071 22.355-8.119 22.657-4.807 30.119.868 1.955 1.721 4.23 1.896 5.055.174.825 4.879 13.875 10.453 29 5.575 15.125 12.974 35.375 16.442 45 8.123 22.546 25.439 69.76 26.773 73 .566 1.375 1.143 2.95 1.282 3.5.432 1.711 13.132 36.763 14.974 41.328 1.094 2.712 2.651 4.672 4.171 5.25 3.34 1.27 32.954 1.175 35.361-.113 1.064-.57 1.934-1.611 1.934-2.314 0-1.326-16.656-47.296-17.797-49.118-.356-.568-.717-1.49-.802-2.05-.192-1.253-36.246-100.53-61.37-168.983-11.996-32.685-13.842-37.038-15.826-37.322-1.742-.25-2.554.424-3.616 3M326.619 248.807c-1.534 2.482-6.416 17.063-5.889 17.59.332.331.137.603-.433.603-.979 0-3.584 7.477-3.272 9.388.08.489-.255 1.164-.746 1.5-1.122.77-7.279 17.717-7.279 20.037 0 1.456 13.211 38.292 17.063 47.575.684 1.65 1.346 3.45 1.47 4 .268 1.192 9.769 27.505 20.932 57.974 6.671 18.207 8.478 22.191 10.543 23.236 3.551 1.796 33.933 1.785 36.392-.013 1.677-1.226 1.467-2.193-3.519-16.25-2.916-8.221-5.544-15.172-5.841-15.447-.297-.275-.683-1.334-.858-2.354-.175-1.02-5.402-15.645-11.615-32.5-6.214-16.855-14.349-39.196-18.078-49.646-3.728-10.45-7.051-19.225-7.384-19.5-.333-.275-.75-1.344-.927-2.375-.178-1.031-3.834-11.381-8.125-23-6.388-17.299-8.17-21.181-9.833-21.432-1.117-.169-2.288.107-2.601.614" fill="#1B4BDDFF" stroke="#1B4BDDFF"/></svg>