<svg width="38" height="38" viewBox="0 0 38 38" fill="none" xmlns="http://www.w3.org/2000/svg">
<path d="M18.7563 4.1922C15.792 4.1922 12.8943 5.07121 10.4296 6.71807C7.96492 8.36493 6.04392 10.7057 4.90955 13.4443C3.77517 16.1829 3.47837 19.1964 4.05667 22.1037C4.63497 25.0111 6.0624 27.6816 8.15845 29.7776C10.2545 31.8737 12.925 33.3011 15.8324 33.8794C18.7397 34.4577 21.7532 34.1609 24.4918 33.0265C27.2304 31.8922 29.5712 29.9712 31.218 27.5065C32.8649 25.0418 33.7439 22.1441 33.7439 19.1798C33.7397 15.2061 32.1593 11.3964 29.3495 8.5866C26.5397 5.77679 22.73 4.1964 18.7563 4.1922ZM24.3925 7.82237C24.8436 12.7971 22.6473 15.064 19.7651 17.106C19.4408 13.5782 18.5488 9.92928 14.2355 7.33239C15.8709 6.70746 17.6181 6.42836 19.3668 6.51269C21.1155 6.59703 22.8277 7.04297 24.3954 7.82237H24.3925ZM6.10041 19.9782C10.1845 17.0959 13.244 17.8626 16.4577 19.3455C13.5683 21.3905 10.8575 23.9874 10.761 29.0169C9.40196 27.9139 8.28621 26.5413 7.48407 24.9856C6.68194 23.43 6.21081 21.725 6.10041 19.9782ZM25.7716 29.7389C21.2393 27.642 20.3718 24.6114 20.049 21.0922C21.8821 21.9367 23.8405 22.6414 26.0008 22.6414C27.6336 22.6414 29.3816 22.2379 31.2796 21.1887C30.9996 22.9163 30.3659 24.5674 29.4181 26.0387C28.4703 27.51 27.2289 28.7697 25.7716 29.7389Z" fill="white"/>
</svg>
