<svg width="32" height="33" viewBox="0 0 32 33" fill="none" xmlns="http://www.w3.org/2000/svg">
<path d="M24 4.14062H8C6.93913 4.14063 5.92172 4.56205 5.17157 5.3122C4.42143 6.06234 4 7.07976 4 8.14062V24.1406C4 25.2015 4.42143 26.2189 5.17157 26.9691C5.92172 27.7192 6.93913 28.1406 8 28.1406H24C25.0609 28.1406 26.0783 27.7192 26.8284 26.9691C27.5786 26.2189 28 25.2015 28 24.1406V8.14062C28 7.07976 27.5786 6.06234 26.8284 5.3122C26.0783 4.56205 25.0609 4.14063 24 4.14062ZM13.5 15.1406C13.2033 15.1406 12.9133 15.0527 12.6666 14.8878C12.42 14.723 12.2277 14.4887 12.1142 14.2147C12.0006 13.9406 11.9709 13.639 12.0288 13.348C12.0867 13.057 12.2296 12.7897 12.4393 12.58C12.6491 12.3702 12.9164 12.2273 13.2074 12.1694C13.4983 12.1116 13.7999 12.1413 14.074 12.2548C14.3481 12.3683 14.5824 12.5606 14.7472 12.8073C14.912 13.0539 15 13.344 15 13.6406C15 14.0384 14.842 14.42 14.5607 14.7013C14.2794 14.9826 13.8978 15.1406 13.5 15.1406ZM18.5 20.1406C18.2033 20.1406 17.9133 20.0527 17.6666 19.8878C17.42 19.723 17.2277 19.4887 17.1142 19.2146C17.0007 18.9406 16.9709 18.639 17.0288 18.348C17.0867 18.057 17.2296 17.7897 17.4393 17.58C17.6491 17.3702 17.9164 17.2273 18.2074 17.1694C18.4983 17.1116 18.7999 17.1413 19.074 17.2548C19.3481 17.3683 19.5824 17.5606 19.7472 17.8073C19.912 18.0539 20 18.344 20 18.6406C20 19.0384 19.842 19.42 19.5607 19.7013C19.2794 19.9826 18.8978 20.1406 18.5 20.1406Z" fill="white"/>
</svg>
