<svg width="24" height="24" viewBox="0 0 24 24" fill="none" xmlns="http://www.w3.org/2000/svg">
<path d="M12 2.25C10.0716 2.25 8.18657 2.82183 6.58319 3.89317C4.97982 4.96451 3.73013 6.48726 2.99218 8.26884C2.25422 10.0504 2.06114 12.0108 2.43735 13.9021C2.81355 15.7934 3.74215 17.5307 5.10571 18.8943C6.46928 20.2579 8.20656 21.1865 10.0979 21.5627C11.9892 21.9389 13.9496 21.7458 15.7312 21.0078C17.5127 20.2699 19.0355 19.0202 20.1068 17.4168C21.1782 15.8134 21.75 13.9284 21.75 12C21.7473 9.41498 20.7192 6.93661 18.8913 5.10872C17.0634 3.28084 14.585 2.25273 12 2.25ZM15.6666 4.61156C15.96 7.84781 14.5313 9.3225 12.6563 10.6509C12.4453 8.35594 11.865 5.98219 9.05907 4.29281C10.123 3.88627 11.2596 3.70471 12.3972 3.75957C13.5347 3.81443 14.6486 4.10453 15.6684 4.61156H15.6666ZM3.76688 12.5194C6.42375 10.6444 8.41407 11.1431 10.5047 12.1078C8.625 13.4381 6.86157 15.1275 6.79875 18.3994C5.91466 17.6818 5.18883 16.7889 4.66701 15.7769C4.14518 14.7649 3.8387 13.6557 3.76688 12.5194ZM16.5638 18.8691C13.6153 17.505 13.0509 15.5334 12.8409 13.2441C14.0334 13.7934 15.3075 14.2519 16.7128 14.2519C17.775 14.2519 18.9122 13.9894 20.1469 13.3069C19.9647 14.4307 19.5525 15.5049 18.9359 16.462C18.3193 17.4191 17.5118 18.2386 16.5638 18.8691Z" fill="url(#paint0_linear_10445_4987)"/>
<defs>
<linearGradient id="paint0_linear_10445_4987" x1="2.25" y1="12" x2="21.75" y2="12" gradientUnits="userSpaceOnUse">
<stop stop-color="#4BA790"/>
<stop offset="0.503103" stop-color="#FBFBFB" stop-opacity="0.6"/>
<stop offset="1" stop-color="#9747FF"/>
</linearGradient>
</defs>
</svg>
