<svg xmlns="http://www.w3.org/2000/svg" width="22" height="22" viewBox="0 0 22 22" fill="none">
  <g clip-path="url(#clip0_10451_497)">
    <path d="M11 22.0001C17.0751 22.0001 22 17.0751 22 11.0001C22 4.92493 17.0751 6.10352e-05 11 6.10352e-05C4.92487 6.10352e-05 0 4.92493 0 11.0001C0 17.0751 4.92487 22.0001 11 22.0001Z" fill="url(#paint0_linear_10451_497)"/>
    <path d="M5.47908 11.6507L5.52229 11.6075L5.47908 11.6507L8.72184 14.8934C8.89359 15.0652 9.12679 15.1634 9.37235 15.1634C9.61791 15.1634 9.8511 15.0652 10.0229 14.8934L16.5197 8.39654C16.8759 8.04038 16.8759 7.45169 16.5197 7.09553C16.1636 6.73938 15.5749 6.73938 15.2187 7.09553L9.37235 12.9419L6.78009 10.3497C6.42393 9.99354 5.83523 9.99354 5.47908 10.3497C5.12292 10.7059 5.12292 11.2945 5.47908 11.6507Z" fill="#313131" stroke="#313131" stroke-width="0.122222"/>
  </g>
  <defs>
    <linearGradient id="paint0_linear_10451_497" x1="0" y1="11.0001" x2="22" y2="11.0001" gradientUnits="userSpaceOnUse">
      <stop stop-color="#4BA790"/>
      <stop offset="0.503103" stop-color="#FBFBFB" stop-opacity="0.6"/>
      <stop offset="1" stop-color="#9747FF"/>
    </linearGradient>
    <clipPath id="clip0_10451_497">
      <rect width="22" height="22" fill="white"/>
    </clipPath>
  </defs>
</svg>