<svg width="25" height="25" viewBox="0 0 25 25" fill="none" xmlns="http://www.w3.org/2000/svg">
<path d="M22.6625 7.26403L12.7062 4.41965C12.6049 4.39059 12.4985 4.38325 12.3941 4.39809L2.53813 5.80621C2.18127 5.8587 1.85506 6.0374 1.61871 6.30987C1.38236 6.58234 1.25154 6.93052 1.25 7.29121V17.99C1.25154 18.3507 1.38236 18.6988 1.61871 18.9713C1.85506 19.2438 2.18127 19.4225 2.53813 19.475L12.3941 20.8812C12.4291 20.8867 12.4645 20.8898 12.5 20.8906C12.5698 20.8907 12.6392 20.8809 12.7062 20.8615L22.6625 18.0172C22.9748 17.9267 23.2494 17.7377 23.4454 17.4784C23.6414 17.219 23.7483 16.9032 23.75 16.5781V8.70309C23.7483 8.378 23.6414 8.06219 23.4454 7.80282C23.2494 7.54346 22.9748 7.35445 22.6625 7.26403ZM6.5 11.8906H5C4.80109 11.8906 4.61032 11.9696 4.46967 12.1103C4.32902 12.2509 4.25 12.4417 4.25 12.6406C4.25 12.8395 4.32902 13.0303 4.46967 13.1709C4.61032 13.3116 4.80109 13.3906 5 13.3906H6.5V18.5262L2.75 17.99V7.29121L6.5 6.75496V11.8906ZM11.75 19.2762L8 18.74V13.3906H9.5C9.69891 13.3906 9.88968 13.3116 10.0303 13.1709C10.171 13.0303 10.25 12.8395 10.25 12.6406C10.25 12.4417 10.171 12.2509 10.0303 12.1103C9.88968 11.9696 9.69891 11.8906 9.5 11.8906H8V6.54121L11.75 6.00496V19.2762Z" fill="#03D498"/>
</svg>
