<svg width="32" height="33" viewBox="0 0 32 33" fill="none" xmlns="http://www.w3.org/2000/svg">
<path d="M16 3.14062C13.4288 3.14063 10.9154 3.90306 8.77759 5.33152C6.63975 6.75998 4.97351 8.7903 3.98957 11.1657C3.00563 13.5412 2.74819 16.155 3.2498 18.6768C3.75141 21.1986 4.98953 23.5149 6.80762 25.333C8.6257 27.1511 10.9421 28.3892 13.4638 28.8908C15.9856 29.3924 18.5995 29.135 20.9749 28.1511C23.3503 27.1671 25.3807 25.5009 26.8091 23.363C28.2376 21.2252 29 18.7118 29 16.1406C28.9964 12.6939 27.6256 9.38944 25.1884 6.95226C22.7512 4.51507 19.4467 3.14426 16 3.14062ZM15.5 9.14062C15.7967 9.14062 16.0867 9.2286 16.3334 9.39342C16.58 9.55824 16.7723 9.79251 16.8858 10.0666C16.9994 10.3407 17.0291 10.6423 16.9712 10.9333C16.9133 11.2242 16.7704 11.4915 16.5607 11.7013C16.3509 11.9111 16.0836 12.0539 15.7926 12.1118C15.5017 12.1697 15.2001 12.14 14.926 12.0264C14.6519 11.9129 14.4176 11.7207 14.2528 11.474C14.088 11.2273 14 10.9373 14 10.6406C14 10.2428 14.158 9.86127 14.4393 9.57996C14.7206 9.29866 15.1022 9.14062 15.5 9.14062ZM17 23.1406C16.4696 23.1406 15.9609 22.9299 15.5858 22.5548C15.2107 22.1798 15 21.6711 15 21.1406V16.926C15 16.4923 14.5996 16.1544 14.2929 15.8477C14.1054 15.6602 14 15.4058 14 15.1406C14 14.8754 14.1054 14.6211 14.2929 14.4335C14.4804 14.246 14.7348 14.1406 15 14.1406C15.5304 14.1406 16.0391 14.3513 16.4142 14.7264C16.7893 15.1015 17 15.6102 17 16.1406V20.3552C17 20.789 17.4004 21.1268 17.7071 21.4335C17.8946 21.6211 18 21.8754 18 22.1406C18 22.4058 17.8946 22.6602 17.7071 22.8477C17.5196 23.0353 17.2652 23.1406 17 23.1406Z" fill="url(#paint0_linear_9450_675)"/>
<defs>
<linearGradient id="paint0_linear_9450_675" x1="16" y1="3.14062" x2="16" y2="29.1406" gradientUnits="userSpaceOnUse">
<stop stop-color="white"/>
<stop offset="1" stop-color="#BABABA"/>
</linearGradient>
</defs>
</svg>
