<svg width="25" height="24" viewBox="0 0 25 24" fill="none" xmlns="http://www.w3.org/2000/svg">
<path d="M20.75 6.74984H17.4613C17.4978 6.71891 17.5353 6.68891 17.5709 6.65609C17.8557 6.40314 18.0851 6.09415 18.245 5.74846C18.4049 5.40276 18.4917 5.02781 18.5 4.64703C18.5123 4.23048 18.4394 3.8158 18.2856 3.42846C18.1319 3.04112 17.9006 2.68928 17.606 2.39456C17.3113 2.09984 16.9596 1.86845 16.5723 1.71459C16.185 1.56073 15.7703 1.48765 15.3538 1.49984C14.9728 1.50805 14.5977 1.5948 14.2518 1.75466C13.906 1.91453 13.5968 2.14406 13.3438 2.42891C12.9936 2.83474 12.7089 3.29276 12.5 3.78641C12.2911 3.29276 12.0064 2.83474 11.6562 2.42891C11.4032 2.14406 11.094 1.91453 10.7482 1.75466C10.4023 1.5948 10.0272 1.50805 9.64625 1.49984C9.22969 1.48765 8.81503 1.56073 8.42774 1.71459C8.04044 1.86845 7.68868 2.09984 7.39405 2.39456C7.09941 2.68928 6.86812 3.04112 6.71438 3.42846C6.56064 3.8158 6.48768 4.23048 6.5 4.64703C6.50833 5.02781 6.59514 5.40276 6.755 5.74846C6.91486 6.09415 7.14434 6.40314 7.42906 6.65609C7.46469 6.68703 7.50219 6.71703 7.53875 6.74984H4.25C3.85218 6.74984 3.47064 6.90788 3.18934 7.18918C2.90804 7.47049 2.75 7.85202 2.75 8.24984V11.2498C2.75 11.6477 2.90804 12.0292 3.18934 12.3105C3.47064 12.5918 3.85218 12.7498 4.25 12.7498V18.7498C4.25 19.1477 4.40804 19.5292 4.68934 19.8105C4.97064 20.0918 5.35218 20.2498 5.75 20.2498H11.375C11.4745 20.2498 11.5698 20.2103 11.6402 20.14C11.7105 20.0697 11.75 19.9743 11.75 19.8748V11.2498H4.25V8.24984H11.75V11.2498H13.25V8.24984H20.75V11.2498H13.25V19.8748C13.25 19.9743 13.2895 20.0697 13.3598 20.14C13.4302 20.2103 13.5255 20.2498 13.625 20.2498H19.25C19.6478 20.2498 20.0294 20.0918 20.3107 19.8105C20.592 19.5292 20.75 19.1477 20.75 18.7498V12.7498C21.1478 12.7498 21.5294 12.5918 21.8107 12.3105C22.092 12.0292 22.25 11.6477 22.25 11.2498V8.24984C22.25 7.85202 22.092 7.47049 21.8107 7.18918C21.5294 6.90788 21.1478 6.74984 20.75 6.74984ZM8.42281 5.53109C8.29168 5.41234 8.18651 5.26776 8.11391 5.10643C8.04131 4.9451 8.00285 4.7705 8.00094 4.59359C7.9962 4.38632 8.03287 4.18017 8.10881 3.98725C8.18476 3.79433 8.29844 3.6185 8.4432 3.47007C8.58796 3.32164 8.76089 3.2036 8.95186 3.12285C9.14282 3.04211 9.34798 3.00029 9.55531 2.99984H9.60125C9.77815 3.00175 9.95275 3.04021 10.1141 3.11281C10.2754 3.18541 10.42 3.29058 10.5388 3.42172C11.3253 4.31047 11.6028 5.78422 11.7003 6.69547C10.7853 6.59891 9.3125 6.32141 8.42281 5.53109ZM16.5791 5.53109C15.6894 6.31859 14.2128 6.59609 13.2978 6.69359C13.4094 5.70828 13.7188 4.26547 14.4688 3.42266C14.5875 3.29152 14.7321 3.18635 14.8934 3.11375C15.0547 3.04115 15.2293 3.00269 15.4062 3.00078H15.4522C15.6595 3.00208 15.8645 3.04475 16.0552 3.12629C16.2458 3.20783 16.4183 3.3266 16.5624 3.47564C16.7066 3.62468 16.8195 3.801 16.8947 3.99425C16.9698 4.18751 17.0056 4.39382 17 4.60109C16.9969 4.7768 16.9578 4.95 16.8851 5.10998C16.8124 5.26995 16.7076 5.41328 16.5772 5.53109H16.5791Z" fill="#000811"/>
</svg>
