<svg width="33" height="33" viewBox="0 0 33 33" fill="none" xmlns="http://www.w3.org/2000/svg">
<path d="M31.3977 9.20757C31.3048 9.30054 31.1945 9.3743 31.0731 9.42463C30.9517 9.47495 30.8216 9.50085 30.6902 9.50085C30.5588 9.50085 30.4287 9.47495 30.3073 9.42463C30.1859 9.3743 30.0756 9.30054 29.9827 9.20757L27.6902 6.91382L18.8152 15.7888L17.3977 14.3751L26.2727 5.50007L23.9827 3.20757C23.8898 3.11466 23.8161 3.00436 23.7658 2.88296C23.7155 2.76157 23.6896 2.63146 23.6896 2.50007C23.6896 2.36867 23.7155 2.23856 23.7658 2.11717C23.8161 1.99578 23.8898 1.88548 23.9827 1.79257C24.1703 1.60493 24.4248 1.49951 24.6902 1.49951C24.8216 1.49951 24.9517 1.52539 25.0731 1.57567C25.1945 1.62596 25.3048 1.69966 25.3977 1.79257L31.3977 7.79257C31.4907 7.88544 31.5644 7.99573 31.6148 8.11713C31.6651 8.23853 31.691 8.36865 31.691 8.50007C31.691 8.63148 31.6651 8.76161 31.6148 8.88301C31.5644 9.00441 31.4907 9.1147 31.3977 9.20757ZM11.6902 22.5001C11.4923 22.5002 11.2988 22.4417 11.1342 22.3318C10.9696 22.2219 10.8413 22.0657 10.7656 21.8829C10.6898 21.7 10.67 21.4988 10.7087 21.3048C10.7473 21.1107 10.8427 20.9324 10.9827 20.7926L17.3977 14.3751L13.1039 10.0851C12.7289 9.71028 12.2204 9.49974 11.6902 9.49974C11.16 9.49974 10.6515 9.71028 10.2764 10.0851L3.27644 17.0851C3.08994 17.2704 2.94208 17.4909 2.84144 17.7338C2.74081 17.9767 2.6894 18.2371 2.69019 18.5001V28.5001C2.69019 29.0305 2.90091 29.5392 3.27598 29.9143C3.65105 30.2894 4.15976 30.5001 4.69019 30.5001H14.6902C14.9529 30.5009 15.2132 30.4495 15.4559 30.3489C15.6986 30.2482 15.9189 30.1003 16.1039 29.9138L23.1039 22.9138C23.4787 22.5388 23.6893 22.0303 23.6893 21.5001C23.6893 20.9699 23.4787 20.4614 23.1039 20.0863L18.8152 15.7926L12.3977 22.2076C12.3048 22.3004 12.1944 22.374 12.073 22.4242C11.9516 22.4744 11.8216 22.5002 11.6902 22.5001Z" fill="white"/>
</svg>
