<svg width="24" height="25" viewBox="0 0 24 25" fill="none" xmlns="http://www.w3.org/2000/svg">
<path d="M12 2.39062C10.0716 2.39063 8.18657 2.96245 6.58319 4.0338C4.97982 5.10514 3.73013 6.62788 2.99218 8.40946C2.25422 10.191 2.06114 12.1514 2.43735 14.0428C2.81355 15.9341 3.74215 17.6714 5.10571 19.0349C6.46928 20.3985 8.20656 21.3271 10.0979 21.7033C11.9892 22.0795 13.9496 21.8864 15.7312 21.1484C17.5127 20.4105 19.0355 19.1608 20.1068 17.5574C21.1782 15.9541 21.75 14.069 21.75 12.1406C21.7473 9.5556 20.7192 7.07724 18.8913 5.24935C17.0634 3.42146 14.585 2.39335 12 2.39062ZM16.2806 10.4213L11.0306 15.6713C10.961 15.741 10.8783 15.7963 10.7872 15.834C10.6962 15.8718 10.5986 15.8912 10.5 15.8912C10.4014 15.8912 10.3038 15.8718 10.2128 15.834C10.1218 15.7963 10.039 15.741 9.96938 15.6713L7.71938 13.4213C7.57865 13.2805 7.49959 13.0896 7.49959 12.8906C7.49959 12.6916 7.57865 12.5007 7.71938 12.36C7.86011 12.2193 8.05098 12.1402 8.25 12.1402C8.44903 12.1402 8.6399 12.2193 8.78063 12.36L10.5 14.0803L15.2194 9.36C15.2891 9.29032 15.3718 9.23504 15.4628 9.19733C15.5539 9.15962 15.6515 9.14021 15.75 9.14021C15.8486 9.14021 15.9461 9.15962 16.0372 9.19733C16.1282 9.23504 16.2109 9.29032 16.2806 9.36C16.3503 9.42968 16.4056 9.51241 16.4433 9.60345C16.481 9.6945 16.5004 9.79208 16.5004 9.89062C16.5004 9.98917 16.481 10.0868 16.4433 10.1778C16.4056 10.2688 16.3503 10.3516 16.2806 10.4213Z" fill="url(#paint0_linear_9450_617)"/>
<defs>
<linearGradient id="paint0_linear_9450_617" x1="12" y1="2.39062" x2="12" y2="21.8906" gradientUnits="userSpaceOnUse">
<stop stop-color="white"/>
<stop offset="1" stop-color="#BABABA"/>
</linearGradient>
</defs>
</svg>
