<svg width="304" height="88" viewBox="0 0 304 88" fill="none" xmlns="http://www.w3.org/2000/svg">
<g id="Group 42466691">
<g id="Vector 382" filter="url(#filter0_f_447_2364)">
<path d="M24 55.5V46.8137C24 44.692 24.8429 42.6571 26.3431 41.1569L41.1569 26.3431C42.6571 24.8429 44.692 24 46.8137 24H271.5C275.918 24 279.5 27.5817 279.5 32V40.1863C279.5 42.308 278.657 44.3429 277.157 45.8431L261.843 61.1569C260.343 62.6571 258.308 63.5 256.186 63.5H32C27.5817 63.5 24 59.9183 24 55.5Z" fill="url(#paint0_linear_447_2364)"/>
</g>
<path id="Vector 383" d="M24 55.5V43.5V32C24 27.5817 27.5817 24 32 24H271.5C275.918 24 279.5 27.5817 279.5 32V43.5V55.5C279.5 59.9183 275.918 63.5 271.5 63.5H32C27.5817 63.5 24 59.9183 24 55.5Z" fill="url(#paint1_linear_447_2364)"/>
</g>
<defs>
<filter id="filter0_f_447_2364" x="0" y="0" width="303.5" height="87.5" filterUnits="userSpaceOnUse" color-interpolation-filters="sRGB">
<feFlood flood-opacity="0" result="BackgroundImageFix"/>
<feBlend mode="normal" in="SourceGraphic" in2="BackgroundImageFix" result="shape"/>
<feGaussianBlur stdDeviation="12" result="effect1_foregroundBlur_447_2364"/>
</filter>
<linearGradient id="paint0_linear_447_2364" x1="24" y1="43.75" x2="279.5" y2="43.75" gradientUnits="userSpaceOnUse">
<stop stop-color="#48ECAE"/>
<stop offset="0.510688" stop-color="#3E52FC"/>
<stop offset="1" stop-color="#49CED7"/>
</linearGradient>
<linearGradient id="paint1_linear_447_2364" x1="24" y1="43.75" x2="279.5" y2="43.75" gradientUnits="userSpaceOnUse">
<stop stop-color="#48ECAE"/>
<stop offset="0.510688" stop-color="#3E52FC"/>
<stop offset="1" stop-color="#49CED7"/>
</linearGradient>
</defs>
</svg>
