<svg width="16" height="16" viewBox="0 0 16 16" fill="none" xmlns="http://www.w3.org/2000/svg">
<g id="file_copy" clip-path="url(#clip0_8963_2445)">
<path id="Vector" d="M10 0.666748H2.66668C1.93334 0.666748 1.33334 1.26675 1.33334 2.00008V10.6667C1.33334 11.0334 1.63334 11.3334 2.00001 11.3334C2.36668 11.3334 2.66668 11.0334 2.66668 10.6667V2.66675C2.66668 2.30008 2.96668 2.00008 3.33334 2.00008H10C10.3667 2.00008 10.6667 1.70008 10.6667 1.33341C10.6667 0.966748 10.3667 0.666748 10 0.666748ZM10.3933 3.72675L13.6133 6.94675C13.86 7.19341 14 7.53341 14 7.88675V14.0001C14 14.7334 13.4 15.3334 12.6667 15.3334H5.32668C4.59334 15.3334 4.00001 14.7334 4.00001 14.0001L4.00668 4.66675C4.00668 3.93341 4.60001 3.33341 5.33334 3.33341H9.44668C9.80001 3.33341 10.14 3.47341 10.3933 3.72675ZM10 8.00008H13L9.33334 4.33341V7.33341C9.33334 7.70008 9.63334 8.00008 10 8.00008Z" fill="white"/>
</g>
<defs>
<clipPath id="clip0_8963_2445">
<rect width="16" height="16" fill="white"/>
</clipPath>
</defs>
</svg>
