<svg width="24" height="24" viewBox="0 0 24 24" fill="none" xmlns="http://www.w3.org/2000/svg">
<path d="M13.5374 11.8277C13.5374 15.5984 10.5069 18.6552 6.76884 18.6552C3.03073 18.6552 0 15.5977 0 11.8277C0 8.05767 3.0305 5 6.76884 5C10.5072 5 13.5374 8.05698 13.5374 11.8277Z" fill="#C2E2FF"/>
<path d="M20.9622 11.8277C20.9622 15.377 19.447 18.2554 17.5778 18.2554C15.7086 18.2554 14.1934 15.377 14.1934 11.8277C14.1934 8.27834 15.7084 5.3999 17.5776 5.3999C19.4467 5.3999 20.962 8.27742 20.962 11.8277" fill="#C2E2FF"/>
<path d="M23.9995 11.8277C23.9995 15.007 23.4667 17.586 22.8092 17.586C22.1517 17.586 21.6191 15.0077 21.6191 11.8277C21.6191 8.6477 22.152 6.06946 22.8092 6.06946C23.4665 6.06946 23.9995 8.64747 23.9995 11.8277Z" fill="#C2E2FF"/>
</svg>
