<svg width="24" height="24" viewBox="0 0 24 24" fill="none" xmlns="http://www.w3.org/2000/svg">
<path fill-rule="evenodd" clip-rule="evenodd" d="M12.5594 1C9.86665 1.0014 7.26222 1.95511 5.21178 3.6906C3.16134 5.4261 1.7986 7.8302 1.36724 10.473C0.935878 13.1159 1.46401 15.8251 2.85722 18.1163C4.25043 20.4075 6.41785 22.1312 8.97194 22.9793C9.53541 23.0839 9.74765 22.7346 9.74765 22.4377C9.74765 22.1408 9.73638 21.2798 9.73262 20.3386C6.57718 21.0202 5.91041 19.007 5.91041 19.007C5.39577 17.6997 4.65198 17.3561 4.65198 17.3561C3.62271 16.6576 4.729 16.6707 4.729 16.6707C5.86909 16.751 6.46825 17.8342 6.46825 17.8342C7.47874 19.5579 9.12219 19.0593 9.76831 18.7679C9.86973 18.0377 10.1646 17.541 10.4896 17.259C7.96896 16.9751 5.32064 16.0077 5.32064 11.6862C5.30501 10.5654 5.72329 9.48155 6.48891 8.65886C6.37246 8.37499 5.98365 7.22831 6.59972 5.67076C6.59972 5.67076 7.55199 5.36822 9.71949 6.82678C11.5786 6.32126 13.5401 6.32126 15.3993 6.82678C17.5649 5.36822 18.5153 5.67076 18.5153 5.67076C19.1332 7.22457 18.7444 8.37125 18.628 8.65886C19.396 9.48168 19.8152 10.5674 19.7981 11.6899C19.7981 16.0208 17.1442 16.9751 14.6198 17.2534C15.0255 17.6045 15.388 18.2899 15.388 19.3432C15.388 20.8521 15.3749 22.0661 15.3749 22.4377C15.3749 22.7384 15.5796 23.0895 16.1543 22.9793C18.7087 22.1311 20.8764 20.4071 22.2695 18.1155C23.6627 15.8239 24.1906 13.1143 23.7587 10.4712C23.3269 7.82812 21.9635 5.42399 19.9123 3.68879C17.8612 1.9536 15.2562 1.00051 12.5631 1H12.5594Z" fill="#C2E2FF"/>
<path d="M5.29792 17.2605C5.2735 17.3166 5.18334 17.3334 5.11009 17.2942C5.03684 17.2549 4.98238 17.1821 5.00867 17.1242C5.03497 17.0663 5.12324 17.0514 5.19649 17.0906C5.26975 17.1298 5.32609 17.2045 5.29792 17.2605Z" fill="#C2E2FF"/>
<path d="M5.75804 17.7705C5.71914 17.79 5.67464 17.7955 5.63215 17.7859C5.58967 17.7764 5.55184 17.7525 5.52514 17.7183C5.45189 17.6398 5.43685 17.5315 5.4932 17.4829C5.54955 17.4344 5.65098 17.4568 5.72423 17.5352C5.79748 17.6137 5.81439 17.722 5.75804 17.7705Z" fill="#C2E2FF"/>
<path d="M6.20558 18.4186C6.13609 18.4672 6.01775 18.4186 5.95201 18.3215C5.93383 18.3041 5.91938 18.2832 5.9095 18.2601C5.89963 18.237 5.89453 18.2121 5.89453 18.187C5.89453 18.1619 5.89963 18.1371 5.9095 18.114C5.91938 18.0909 5.93383 18.07 5.95201 18.0526C6.02151 18.0059 6.13984 18.0526 6.20558 18.1478C6.27132 18.2431 6.2732 18.3701 6.20558 18.4186Z" fill="#C2E2FF"/>
<path d="M6.81245 19.046C6.75047 19.1151 6.62463 19.0964 6.52132 19.0031C6.41802 18.9097 6.3936 18.7827 6.45558 18.7155C6.51756 18.6482 6.6434 18.6669 6.75046 18.7584C6.85752 18.8499 6.87819 18.9788 6.81245 19.046Z" fill="#C2E2FF"/>
<path d="M7.66314 19.412C7.63497 19.4998 7.50725 19.539 7.37953 19.5016C7.25181 19.4643 7.16729 19.3597 7.1917 19.27C7.21612 19.1804 7.34572 19.1393 7.47532 19.1804C7.60492 19.2215 7.68756 19.3205 7.66314 19.412Z" fill="#C2E2FF"/>
<path d="M8.58997 19.4754C8.58997 19.5669 8.4848 19.6454 8.34957 19.6472C8.21433 19.6491 8.10352 19.5744 8.10352 19.4829C8.10352 19.3914 8.20869 19.3129 8.34393 19.3111C8.47916 19.3092 8.58997 19.382 8.58997 19.4754Z" fill="#C2E2FF"/>
<path d="M9.45532 19.3318C9.47222 19.4233 9.37831 19.5186 9.24307 19.541C9.10784 19.5634 8.98951 19.5092 8.97261 19.4196C8.9557 19.3299 9.05337 19.2328 9.18485 19.2086C9.31633 19.1843 9.43841 19.2403 9.45532 19.3318Z" fill="#C2E2FF"/>
</svg>
