<svg width="16" height="16" viewBox="0 0 16 16" fill="none" xmlns="http://www.w3.org/2000/svg">
<g id="Frame">
<path id="Vector" d="M4.53032 12.5305L4.53032 12.5305L11.2498 5.81047V10.5C11.2498 10.6989 11.3288 10.8897 11.4695 11.0303C11.6101 11.171 11.8009 11.25 11.9998 11.25C12.1987 11.25 12.3895 11.171 12.5301 11.0303C12.6708 10.8897 12.7498 10.6989 12.7498 10.5V4C12.7498 3.80109 12.6708 3.61032 12.5301 3.46967C12.3895 3.32902 12.1987 3.25 11.9998 3.25H5.49979C5.30088 3.25 5.11011 3.32902 4.96946 3.46967C4.82881 3.61032 4.74979 3.80109 4.74979 4C4.74979 4.19891 4.82881 4.38968 4.96946 4.53033C5.11011 4.67098 5.30088 4.75 5.49979 4.75H10.1893L3.46927 11.4695L3.46926 11.4695C3.32856 11.6102 3.24951 11.801 3.24951 12C3.24951 12.199 3.32856 12.3898 3.46926 12.5305C3.60997 12.6712 3.8008 12.7503 3.99979 12.7503C4.19878 12.7503 4.38961 12.6712 4.53032 12.5305Z" fill="white" stroke="white" stroke-width="0.5"/>
</g>
</svg>
