<svg width="36" height="36" viewBox="0 0 36 36" fill="none" xmlns="http://www.w3.org/2000/svg">
<g id="LayerBank 1">
<g clip-path="url(#clip0_2885_4533)">
<g id="Clip path group">
<mask id="mask0_2885_4533" style="mask-type:luminance" maskUnits="userSpaceOnUse" x="0" y="0" width="36" height="36">
<g id="clip0_4639_94418">
<path id="Vector" d="M36 0H0V36H36V0Z" fill="white"/>
</g>
</mask>
<g mask="url(#mask0_2885_4533)">
<g id="Group">
<path id="Vector_2" d="M36 0H0V36H36V0Z" fill="#0B0B13"/>
<path id="Vector_3" fill-rule="evenodd" clip-rule="evenodd" d="M13.4793 22.9154H18.9831V26.1H7.56006V9.90002H11.5062V13.0615V16.4539V19.3385V22.9154H13.4793ZM26.5995 17.7923C27.5387 17.9931 28.291 18.457 28.861 19.1885C29.431 19.92 29.7148 20.7531 29.7148 21.6924C29.7148 23.047 29.2418 24.12 28.2956 24.9116C27.3494 25.7031 26.0294 26.1 24.3379 26.1H22.1402V22.9154H23.6456C24.3079 22.9154 24.8179 22.7654 25.1803 22.4654C25.5425 22.1654 25.7225 21.7316 25.7225 21.1615C25.7225 20.5916 25.5333 20.1462 25.1571 19.8231C24.781 19.5001 24.2618 19.3385 23.5995 19.3385H14.6634V16.4539H23.3226C23.9687 16.4539 24.4648 16.3108 24.811 16.027C25.1571 15.7431 25.3302 15.3231 25.3302 14.7693C25.3302 14.2154 25.1571 13.7931 24.811 13.5C24.4648 13.207 23.9687 13.0615 23.3226 13.0615H14.6634V9.90002H24.0841C25.7294 9.90002 27.0194 10.2761 27.9495 11.0308C28.8794 11.7854 29.3456 12.8077 29.3456 14.1001C29.3456 15.0531 29.0963 15.847 28.5956 16.477C28.0948 17.107 27.4303 17.5454 26.5995 17.7923Z" fill="white"/>
</g>
</g>
</g>
</g>
</g>
<defs>
<clipPath id="clip0_2885_4533">
<rect width="36" height="36" rx="18" fill="white"/>
</clipPath>
</defs>
</svg>
