<svg width="25" height="25" viewBox="0 0 25 25" fill="none" xmlns="http://www.w3.org/2000/svg">
<g id="Frame">
<path id="Vector" d="M22.6625 7.12346L12.7062 4.27909C12.6049 4.25003 12.4985 4.24268 12.3941 4.25753L2.53813 5.66565C2.18127 5.71814 1.85506 5.89683 1.61871 6.1693C1.38236 6.44178 1.25154 6.78996 1.25 7.15065V17.8494C1.25154 18.2101 1.38236 18.5583 1.61871 18.8307C1.85506 19.1032 2.18127 19.2819 2.53813 19.3344L12.3941 20.7407C12.4291 20.7461 12.4645 20.7493 12.5 20.75C12.5698 20.7502 12.6392 20.7404 12.7062 20.721L22.6625 17.8766C22.9748 17.7862 23.2494 17.5972 23.4454 17.3378C23.6414 17.0784 23.7483 16.7626 23.75 16.4375V8.56253C23.7483 8.23743 23.6414 7.92163 23.4454 7.66226C23.2494 7.40289 22.9748 7.21389 22.6625 7.12346ZM6.5 11.75H5C4.80109 11.75 4.61032 11.829 4.46967 11.9697C4.32902 12.1103 4.25 12.3011 4.25 12.5C4.25 12.6989 4.32902 12.8897 4.46967 13.0304C4.61032 13.171 4.80109 13.25 5 13.25H6.5V18.3857L2.75 17.8494V7.15065L6.5 6.6144V11.75ZM11.75 19.1357L8 18.5994V13.25H9.5C9.69891 13.25 9.88968 13.171 10.0303 13.0304C10.171 12.8897 10.25 12.6989 10.25 12.5C10.25 12.3011 10.171 12.1103 10.0303 11.9697C9.88968 11.829 9.69891 11.75 9.5 11.75H8V6.40065L11.75 5.8644V19.1357Z" fill="#03D498"/>
</g>
</svg>
