<svg width="24" height="24" viewBox="0 0 24 24" fill="none" xmlns="http://www.w3.org/2000/svg">
<g id="fluent:rocket-16-regular">
<path id="Vector" d="M12.5459 8.01905C12.772 7.79336 13.0404 7.61446 13.3357 7.49259C13.631 7.37072 13.9474 7.30828 14.2669 7.30884C14.5863 7.3094 14.9026 7.37294 15.1974 7.49584C15.4923 7.61873 15.7601 7.79857 15.9854 8.02505C16.9334 8.97305 16.9409 10.5136 15.9914 11.4646C15.7653 11.6902 15.4969 11.8691 15.2016 11.991C14.9063 12.1129 14.5898 12.1753 14.2704 12.1748C13.9509 12.1742 13.6347 12.1107 13.3398 11.9878C13.0449 11.8649 12.7772 11.685 12.5519 11.4586C12.3254 11.2332 12.1456 10.9655 12.0227 10.6706C11.8998 10.3757 11.8362 10.0595 11.8357 9.74005C11.8351 9.42058 11.8975 9.10414 12.0194 8.80884C12.1413 8.51353 12.3202 8.24515 12.5459 8.01905ZM14.9234 9.08405C14.8373 8.99713 14.7349 8.92805 14.622 8.88077C14.5092 8.83349 14.3882 8.80894 14.2658 8.80852C14.1435 8.8081 14.0222 8.83183 13.9091 8.87833C13.7959 8.92484 13.6931 8.99322 13.6064 9.07955C13.5201 9.16634 13.4519 9.26928 13.4055 9.3825C13.3591 9.49571 13.3355 9.61696 13.3361 9.7393C13.3366 9.86164 13.3613 9.98267 13.4088 10.0955C13.4562 10.2082 13.5254 10.3106 13.6124 10.3966C13.6984 10.4836 13.8007 10.5528 13.9135 10.6002C14.0263 10.6476 14.1473 10.6723 14.2696 10.6728C14.392 10.6734 14.5132 10.6498 14.6264 10.6034C14.7396 10.557 14.8426 10.4888 14.9294 10.4026C15.0156 10.3158 15.0839 10.2128 15.1303 10.0996C15.1766 9.9864 15.2002 9.86515 15.1997 9.74281C15.1991 9.62047 15.1744 9.49944 15.127 9.38665C15.0796 9.27387 15.0104 9.17005 14.9234 9.08405ZM20.6669 5.25005C20.5254 4.8022 20.2781 4.395 19.946 4.06289C19.6139 3.73079 19.2067 3.48354 18.7589 3.34205C17.4925 2.94328 16.1411 2.8994 14.8515 3.21518C13.562 3.53095 12.3837 4.1943 11.4449 5.13305L10.5014 6.07805C9.84604 5.79664 9.12143 5.71797 8.42096 5.85218C7.7205 5.9864 7.07629 6.32734 6.57138 6.83105L5.39238 8.00855C5.32253 8.07822 5.26712 8.16098 5.22931 8.2521C5.1915 8.34322 5.17204 8.4409 5.17204 8.53955C5.17204 8.6382 5.1915 8.73589 5.22931 8.827C5.26712 8.91812 5.32253 9.00088 5.39238 9.07055L6.66738 10.3456C6.5677 10.7256 6.56925 11.125 6.67189 11.5042C6.77452 11.8835 6.97465 12.2292 7.25238 12.5071L7.50288 12.7576L6.34338 13.4506C6.24539 13.5091 6.16205 13.5892 6.09971 13.6848C6.03736 13.7804 5.99766 13.889 5.98363 14.0022C5.9696 14.1155 5.9816 14.2305 6.01873 14.3384C6.05586 14.4464 6.11713 14.5444 6.19788 14.6251L9.38238 17.8096C9.46304 17.8903 9.56108 17.9516 9.669 17.9887C9.77693 18.0258 9.89191 18.0378 10.0052 18.0238C10.1185 18.0098 10.227 17.9701 10.3226 17.9077C10.4182 17.8454 10.4984 17.762 10.5569 17.6641L11.2499 16.5061L11.5004 16.7551C12.0854 17.3416 12.9149 17.5366 13.6634 17.3401L14.9384 18.6151C15.079 18.7557 15.2698 18.8346 15.4686 18.8346C15.6675 18.8346 15.8582 18.7557 15.9989 18.6151L17.1764 17.4376C17.6803 16.9328 18.0216 16.2887 18.156 15.5882C18.2905 14.8877 18.2121 14.163 17.9309 13.5076L18.8744 12.5626C19.8131 11.624 20.4766 10.4461 20.7926 9.15682C21.1087 7.86756 21.0652 6.51632 20.6669 5.25005ZM18.3089 4.77305C18.5265 4.84223 18.7243 4.96268 18.8856 5.12427C19.0469 5.28585 19.1671 5.48384 19.2359 5.70155C19.5519 6.70589 19.5865 7.77762 19.3361 8.80027C19.0856 9.82292 18.5597 10.7574 17.8154 11.5021L13.6229 15.6946C13.4822 15.8352 13.2915 15.9141 13.0926 15.9141C12.8938 15.9141 12.703 15.8352 12.5624 15.6946L8.31438 11.4466C8.17378 11.3059 8.09479 11.1152 8.09479 10.9163C8.09479 10.7174 8.17378 10.5267 8.31438 10.3861L12.5069 6.19505C13.2517 5.45049 14.1864 4.92437 15.2094 4.67393C16.2323 4.42348 17.3043 4.45828 18.3089 4.77455M16.7129 14.7271C16.7684 15.3166 16.5704 15.9271 16.1174 16.3786L15.4694 17.0266L14.9414 16.4986L16.7129 14.7271ZM7.63188 7.89155C7.84609 7.67648 8.10528 7.51153 8.39084 7.40857C8.67639 7.3056 8.98121 7.26718 9.28338 7.29605L7.51338 9.06605L6.98388 8.53955L7.63188 7.89155ZM10.1579 15.4126L9.76488 16.0681L7.94088 14.2441L8.59788 13.8511L10.1579 15.4126ZM7.27338 17.7976C7.34311 17.7279 7.39844 17.6452 7.43622 17.5542C7.474 17.4632 7.49348 17.3656 7.49355 17.2671C7.49361 17.1685 7.47427 17.0709 7.43663 16.9799C7.39898 16.8888 7.34376 16.806 7.27413 16.7363C7.20449 16.6666 7.12181 16.6112 7.03079 16.5735C6.93977 16.5357 6.8422 16.5162 6.74366 16.5161C6.64511 16.5161 6.54752 16.5354 6.45645 16.5731C6.36537 16.6107 6.28261 16.6659 6.21288 16.7356L4.23288 18.7156C4.16315 18.7852 4.10781 18.8679 4.07004 18.9589C4.03226 19.0499 4.01278 19.1475 4.01271 19.246C4.01264 19.3446 4.03198 19.4422 4.06963 19.5332C4.10728 19.6243 4.1625 19.7071 4.23213 19.7768C4.30176 19.8465 4.38445 19.9019 4.47547 19.9396C4.56648 19.9774 4.66405 19.9969 4.7626 19.997C4.86114 19.997 4.95874 19.9777 5.04981 19.9401C5.14088 19.9024 5.22365 19.8472 5.29338 19.7776L7.27338 17.7976ZM5.68038 15.1441C5.82098 15.2847 5.89997 15.4754 5.89997 15.6743C5.89997 15.8732 5.82098 16.0639 5.68038 16.2046L4.88538 16.9996C4.81609 17.0711 4.73325 17.1281 4.64169 17.1673C4.55014 17.2064 4.4517 17.227 4.35211 17.2277C4.25253 17.2284 4.1538 17.2093 4.06169 17.1715C3.96957 17.1336 3.88592 17.0778 3.8156 17.0073C3.74528 16.9368 3.68971 16.853 3.65213 16.7608C3.61455 16.6685 3.59571 16.5697 3.59672 16.4702C3.59772 16.3706 3.61855 16.2722 3.65798 16.1808C3.69741 16.0893 3.75465 16.0066 3.82638 15.9376L4.62138 15.1441C4.76196 15.0039 4.95237 14.9252 5.15088 14.9252C5.34938 14.9252 5.53979 15.0039 5.68038 15.1441ZM8.86488 19.3891C8.93651 19.3199 8.99365 19.2371 9.03295 19.1456C9.07226 19.0541 9.09295 18.9557 9.09382 18.8561C9.09468 18.7565 9.0757 18.6578 9.03799 18.5656C9.00028 18.4734 8.94459 18.3897 8.87417 18.3193C8.80375 18.2488 8.72002 18.1931 8.62784 18.1554C8.53567 18.1177 8.43691 18.0987 8.33733 18.0996C8.23774 18.1005 8.13933 18.1212 8.04782 18.1605C7.95632 18.1998 7.87356 18.2569 7.80438 18.3286L7.00938 19.1236C6.93974 19.1933 6.88453 19.276 6.84688 19.3671C6.80923 19.4582 6.78989 19.5558 6.78996 19.6543C6.7901 19.8534 6.8693 20.0442 7.01013 20.1848C7.15096 20.3254 7.34189 20.4044 7.54091 20.4042C7.73993 20.4041 7.93075 20.3249 8.07138 20.1841L8.86488 19.3891Z" fill="white"/>
</g>
</svg>
