<svg width="15" height="19" viewBox="0 0 15 19" fill="none" xmlns="http://www.w3.org/2000/svg">
<path d="M10.6504 0.540508L7.8721 2.11241C6.86784 2.6806 6.77847 4.09334 7.70317 4.78353L10.5399 6.90088C11.1177 7.33212 11.0621 8.21484 10.4347 8.57011L7.87489 10.0197C6.87 10.5888 6.78211 12.0032 7.70884 12.6923L10.4096 14.7005C10.6899 14.9089 10.855 15.2376 10.855 15.5868V15.6694C10.855 15.9237 11.1295 16.0832 11.3504 15.9573L14.1433 14.3654C15.1481 13.7927 15.2305 12.3753 14.2988 11.6901L11.464 9.60525C10.8821 9.17725 10.933 8.29201 11.5603 7.93368L14.1484 6.45516C15.1517 5.88208 15.2337 4.46649 14.3035 3.7813L11.5943 1.78589C11.3118 1.57774 11.1449 1.24766 11.1449 0.896682V0.828868C11.1449 0.575107 10.8713 0.415551 10.6504 0.540508Z" fill="#075A5A"/>
<path d="M4.55816 3.0366L1.77982 4.60851C0.775544 5.17669 0.686194 6.58946 1.61088 7.27962L4.44762 9.39696C5.02541 9.8282 4.96977 10.7109 4.3424 11.0662L1.78257 12.5159C0.777702 13.0849 0.689825 14.4993 1.61653 15.1884L4.31733 17.1966C4.59756 17.405 4.76272 17.7337 4.76272 18.0829V18.1656C4.76272 18.4198 5.03723 18.5793 5.25809 18.4534L8.05103 16.8615C9.05579 16.2888 9.13818 14.8714 8.20646 14.1862L5.37173 12.1013C4.78976 11.6733 4.84076 10.7881 5.46804 10.4298L8.05616 8.95128C9.05934 8.37816 9.14142 6.9626 8.21118 6.27738L5.50205 4.28198C5.21945 4.07383 5.05262 3.74375 5.05262 3.39278V3.32496C5.05262 3.0712 4.77902 2.91164 4.55816 3.0366Z" fill="#075A5A"/>
</svg>
