<svg width="18" height="19" viewBox="0 0 18 19" fill="none" xmlns="http://www.w3.org/2000/svg">
<g id="Puffer">
<path id="Vector" fill-rule="evenodd" clip-rule="evenodd" d="M7.03747 1.15972C6.98484 0.828235 7.42265 0.694249 7.543 1.00503L7.77761 1.61102C7.78493 1.62993 7.7905 1.64908 7.79444 1.6683C8.35705 1.52371 8.92382 1.4509 9.48508 1.44526C9.48446 1.42547 9.48553 1.40532 9.48834 1.38495L9.57784 0.737991C9.62383 0.405383 10.0791 0.422172 10.1034 0.757375L10.1508 1.40938C10.1522 1.42999 10.152 1.45024 10.1501 1.47001C10.7209 1.51827 11.2818 1.63556 11.8223 1.81689C11.8274 1.79788 11.8343 1.77907 11.8429 1.76063L12.1161 1.17367C12.2562 0.872494 12.6844 1.03842 12.6103 1.36523L12.466 2.00216C12.4615 2.02217 12.4554 2.04127 12.448 2.05938C12.9731 2.29114 13.4737 2.58551 13.9389 2.93744C13.9491 2.92167 13.9607 2.90657 13.9738 2.89234L14.4038 2.4241C14.6244 2.18383 14.9835 2.48265 14.8183 2.76908L14.4965 3.32729C14.4869 3.34391 14.4762 3.3593 14.4646 3.37343C14.9373 3.80248 15.3638 4.29682 15.7304 4.85C15.7295 4.79672 15.7292 4.7438 15.7289 4.69179V4.69154L15.7289 4.68232C15.7278 4.41707 15.9528 4.21317 16.2078 4.17516C16.3297 4.15793 16.4535 4.18428 16.5598 4.25009C16.6661 4.3159 16.7489 4.41745 16.7953 4.53883C16.9405 4.93237 16.965 5.36478 16.8653 5.77409C16.8572 5.81092 16.8477 5.84773 16.8368 5.88943V5.88959L16.8368 5.88977L16.8365 5.89057L16.8364 5.89104L16.8364 5.89135L16.8357 5.89376C16.8319 5.90846 16.8279 5.92376 16.8238 5.9399C17.1966 6.16384 17.4888 6.51359 17.6546 6.93401C17.7878 7.27259 17.6614 7.61837 17.3679 7.75571C17.2166 7.82495 17.0686 7.80671 16.933 7.73105C17.0528 8.29373 17.1138 8.85971 17.1192 9.42059C17.135 9.42053 17.151 9.42173 17.1671 9.42425L17.774 9.51965C18.086 9.56867 18.0703 10.0539 17.7558 10.0799L17.1441 10.1303C17.128 10.1316 17.1122 10.1317 17.0966 10.1305C17.0518 10.7397 16.9421 11.3385 16.7721 11.9154C16.7864 11.9205 16.8007 11.9267 16.8146 11.934L17.3652 12.2252C17.6478 12.3747 17.4921 12.831 17.1855 12.7521L16.5881 12.5983C16.573 12.5944 16.5585 12.5895 16.5446 12.5835C16.3271 13.1444 16.0506 13.6788 15.72 14.1755C15.7315 14.1846 15.7424 14.1945 15.7529 14.2055L16.1921 14.6638C16.4176 14.8989 16.1373 15.2817 15.8685 15.1056L15.3449 14.7626C15.3327 14.7546 15.3212 14.7459 15.3105 14.7366C14.9441 15.1953 14.5269 15.6132 14.0636 15.9792C14.0714 15.9912 14.0787 16.0039 14.0852 16.0172L14.3696 16.5966C14.5157 16.8945 14.1381 17.1662 13.9337 16.9102L13.5359 16.4124C13.5267 16.4009 13.5184 16.389 13.5109 16.3766C13.1193 16.6319 12.7004 16.8527 12.2561 17.0337C12.1589 17.0733 12.0614 17.1105 11.9637 17.1456C11.9676 17.1594 11.9708 17.1736 11.9731 17.1882L12.0758 17.8344C12.1285 18.1659 11.6906 18.2999 11.5703 17.9891L11.3357 17.3832C11.3306 17.3698 11.3262 17.3563 11.3227 17.3427C10.7588 17.4878 10.1908 17.5609 9.62833 17.5664C9.62805 17.5806 9.62693 17.5949 9.62496 17.6093L9.53546 18.2561C9.48947 18.5888 9.0342 18.572 9.00989 18.2367L8.96255 17.5849C8.96148 17.5702 8.96131 17.5557 8.96199 17.5414C8.38998 17.4929 7.82799 17.3749 7.28643 17.1927C7.28199 17.2065 7.27664 17.2202 7.27034 17.2337L6.99722 17.8205C6.85706 18.1217 6.42893 17.9557 6.50295 17.6289L6.64722 16.9921C6.65059 16.9773 6.65482 16.9629 6.65977 16.9492C6.13386 16.7164 5.63272 16.4208 5.16704 16.0676C5.15871 16.0794 5.14948 16.0909 5.1394 16.1019L4.70953 16.5701C4.48887 16.8103 4.12981 16.5115 4.29496 16.2251L4.61676 15.667C4.6243 15.6539 4.63247 15.6416 4.64125 15.6301C4.21165 15.239 3.82039 14.7938 3.4777 14.2994C3.46582 14.3085 3.45316 14.3168 3.43976 14.3242L2.89623 14.6273C2.61676 14.7831 2.36194 14.3807 2.60201 14.1626L3.06898 13.7387C3.08081 13.7279 3.09308 13.7183 3.1058 13.7098C2.91824 13.3819 2.75073 13.0361 2.6055 12.6733L1.57469 14.1299C1.43804 14.3231 1.17155 14.3436 1.02884 14.1556C0.0519253 12.8684 -0.0688032 11.166 0.0269556 10.1259C0.0499777 9.87581 0.295617 9.73787 0.512825 9.83555L2.05667 10.5298C2.01804 10.2104 1.99782 9.89111 1.99536 9.57353C1.97919 9.57365 1.96277 9.57251 1.9462 9.56987L1.33933 9.47453C1.02729 9.42545 1.04304 8.94017 1.35751 8.91425L1.96912 8.86379C1.98617 8.86241 2.00296 8.86247 2.0194 8.86385C2.06542 8.25515 2.17627 7.65701 2.34725 7.08071C2.33087 7.07537 2.3146 7.06853 2.29867 7.06007L1.74806 6.76889C1.46551 6.61949 1.62117 6.16315 1.92777 6.24207L2.52529 6.39586C2.54285 6.40039 2.55974 6.40637 2.57578 6.41366C2.79401 5.85405 3.07101 5.32083 3.40193 4.82531C3.38741 4.81457 3.37351 4.80237 3.36039 4.78868L2.92117 4.33036C2.69573 4.09517 2.97605 3.71246 3.24477 3.8885L3.76843 4.23157C3.78408 4.2418 3.79855 4.2532 3.81183 4.2656C4.17821 3.80833 4.59509 3.39187 5.05801 3.02701C5.04692 3.0116 5.0369 2.99492 5.02812 2.97702L4.74375 2.39756C4.59757 2.09965 4.97515 1.828 5.17965 2.08394L5.5775 2.58175C5.59 2.59739 5.60086 2.61385 5.61021 2.63092C5.99989 2.37734 6.41677 2.15796 6.85864 1.97797C6.95703 1.93791 7.05571 1.90018 7.1546 1.86475C7.1483 1.84607 7.14346 1.8265 7.1402 1.80614L7.03747 1.15972ZM3.47539 11.9831C4.759 15.5636 8.52259 17.357 11.8816 15.9888C15.209 14.6335 16.8912 10.684 15.6748 7.12943C15.2714 7.49057 14.7873 7.81781 14.2244 8.03771C12.9612 8.53121 11.9967 8.74619 11.1828 8.83121C10.2573 10.1879 8.68375 10.7538 7.92244 10.8704L8.01943 8.83889C7.52369 8.86091 6.99103 8.93045 6.36814 9.10103C5.19817 9.42143 4.10842 9.94391 3.11931 10.5507C3.18837 11.031 3.30607 11.5108 3.47539 11.9831ZM5.13479 12.1578C4.82289 12.217 4.52501 11.9954 4.46951 11.663C4.41401 11.3304 4.62188 11.013 4.93378 10.9538C5.24573 10.8946 5.54356 11.1162 5.59906 11.4487C5.65462 11.7812 5.44674 12.0987 5.13479 12.1578ZM7.77947 12.2318C7.57587 12.2705 7.38145 12.1258 7.3452 11.9088C7.30901 11.6918 7.44466 11.4846 7.64826 11.446C7.85186 11.4074 8.04622 11.552 8.08247 11.769C8.11867 11.986 7.98301 12.1932 7.77947 12.2318ZM11.1378 12.0918C10.9342 12.1305 10.7398 11.9858 10.7036 11.7689C10.6673 11.5518 10.803 11.3446 11.0066 11.306C11.2102 11.2674 11.4046 11.412 11.4408 11.629C11.477 11.846 11.3414 12.0532 11.1378 12.0918ZM11.8371 14.0036C11.8733 14.2206 12.0677 14.3652 12.2713 14.3266C12.4749 14.288 12.6105 14.0808 12.5743 13.8638C12.5381 13.6467 12.3437 13.5021 12.1401 13.5408C11.9365 13.5794 11.8009 13.7866 11.8371 14.0036ZM7.91248 14.9778C7.70888 15.0164 7.51446 14.8718 7.47827 14.6548C7.44202 14.4378 7.57767 14.2306 7.78127 14.192C7.98487 14.1534 8.17923 14.298 8.21548 14.515C8.25173 14.732 8.11608 14.9392 7.91248 14.9778ZM5.89188 13.291C5.92807 13.508 6.12249 13.6526 6.32609 13.614C6.52968 13.5754 6.66534 13.3682 6.62909 13.1511C6.5929 12.9341 6.39848 12.7895 6.19488 12.8282C5.99128 12.8667 5.85563 13.074 5.89188 13.291ZM9.54756 13.4196C9.34396 13.4582 9.14954 13.3136 9.11335 13.0966C9.0771 12.8796 9.21275 12.6723 9.41635 12.6337C9.61995 12.5951 9.81437 12.7397 9.85056 12.9567C9.88681 13.1738 9.75116 13.3809 9.54756 13.4196ZM12.7436 11.787C12.7991 12.1195 13.097 12.3411 13.4089 12.2819C13.7209 12.2227 13.9288 11.9052 13.8732 11.5727C13.8177 11.2403 13.5199 11.0187 13.2079 11.0778C12.896 11.137 12.6881 11.4545 12.7436 11.787ZM9.53253 14.8864C9.58803 15.2189 9.88586 15.4404 10.1978 15.3813C10.5097 15.3221 10.7176 15.0046 10.6621 14.6721C10.6066 14.3396 10.3087 14.118 9.9968 14.1772C9.68485 14.2364 9.47697 14.5539 9.53253 14.8864ZM13.9188 5.5038C14.0336 6.04149 13.7359 6.57221 13.2538 6.68915C12.7717 6.80609 12.2878 6.46504 12.173 5.92735C12.0582 5.38966 12.3559 4.85896 12.838 4.742C13.3201 4.62504 13.804 4.96611 13.9188 5.5038Z" fill="url(#paint0_linear_9490_2091)"/>
</g>
<defs>
<linearGradient id="paint0_linear_9490_2091" x1="10.5438" y1="0.49707" x2="18.6416" y2="12.856" gradientUnits="userSpaceOnUse">
<stop offset="0.0677083" stop-color="#874FFF"/>
<stop offset="0.463542" stop-color="#36AFE2"/>
<stop offset="0.859375" stop-color="#41FF54"/>
</linearGradient>
</defs>
</svg>
