<svg width="13" height="12" viewBox="0 0 13 12" fill="none" xmlns="http://www.w3.org/2000/svg">
<path id="Vector" d="M1.3328 10.0716L0.767112 10.6373L1.89848 11.7686L2.46417 11.2029L1.3328 10.0716ZM11.703 1.96412C12.0154 1.6517 12.0154 1.14517 11.703 0.832753C11.3906 0.520333 10.884 0.520333 10.5716 0.832753L11.703 1.96412ZM4.5962 0.832752L4.03052 0.267067L2.89915 1.39844L3.46483 1.96412L4.5962 0.832752ZM11.2916 2.16593C11.7155 2.04125 11.958 1.59656 11.8334 1.17269C11.7087 0.74882 11.264 0.506274 10.8401 0.63095L11.2916 2.16593ZM10.5359 9.03522L11.1016 9.60091L12.2329 8.46954L11.6672 7.90385L10.5359 9.03522ZM2.46417 11.2029L11.6672 1.99987L10.5359 0.868495L1.3328 10.0716L2.46417 11.2029ZM11.6672 1.99987L11.703 1.96412L10.5716 0.832753L10.5359 0.868495L11.6672 1.99987ZM3.46483 1.96412C4.06112 2.56041 4.92792 2.78774 5.72317 2.86889C6.54355 2.95261 7.44078 2.89527 8.24957 2.79158C9.06426 2.68712 9.82188 2.53121 10.3735 2.40232C10.6502 2.33767 10.8771 2.27934 11.0359 2.23685C11.1154 2.21559 11.1779 2.19827 11.2213 2.18606C11.2429 2.17996 11.2598 2.17513 11.2716 2.17172C11.2776 2.17002 11.2822 2.16868 11.2855 2.1677C11.2872 2.16722 11.2886 2.16682 11.2896 2.16653C11.2901 2.16638 11.2905 2.16626 11.2908 2.16616C11.291 2.1661 11.2912 2.16605 11.2913 2.16602C11.2915 2.16597 11.2916 2.16593 11.0659 1.39844C10.8401 0.63095 10.8402 0.630918 10.8403 0.630891C10.8403 0.630891 10.8404 0.63087 10.8404 0.630868C10.8404 0.630865 10.8403 0.630886 10.8402 0.63093C10.8399 0.631019 10.8393 0.631203 10.8383 0.63148C10.8364 0.632032 10.8332 0.632955 10.8288 0.634229C10.82 0.636778 10.8061 0.640733 10.7876 0.64595C10.7505 0.656385 10.6947 0.671853 10.6224 0.691198C10.4777 0.729909 10.2674 0.784007 10.0094 0.844285C9.49177 0.965244 8.79036 1.10914 8.04609 1.20457C7.29592 1.30075 6.53425 1.34335 5.8856 1.27716C5.21181 1.2084 4.79943 1.03598 4.5962 0.832752L3.46483 1.96412ZM11.1016 1.43418C10.3651 1.12162 10.3651 1.12182 10.365 1.12204C10.3649 1.12214 10.3648 1.12238 10.3647 1.12258C10.3646 1.12298 10.3644 1.12345 10.3641 1.124C10.3637 1.1251 10.3631 1.1265 10.3624 1.1282C10.3609 1.13159 10.359 1.13618 10.3566 1.14192C10.3519 1.15342 10.3452 1.16957 10.3369 1.19013C10.3203 1.23124 10.2969 1.29007 10.2684 1.36468C10.2113 1.51378 10.1334 1.72661 10.0471 1.98773C9.87533 2.50783 9.6671 3.22991 9.52742 4.02778C9.38861 4.82067 9.31141 5.72187 9.42381 6.58875C9.5364 7.45706 9.8475 8.34685 10.5359 9.03522L11.6672 7.90385C11.3075 7.54406 11.0945 7.03035 11.0105 6.383C10.9264 5.73422 10.9802 5.0076 11.1035 4.30369C11.2258 3.60476 11.4106 2.96107 11.5664 2.48959C11.6439 2.25492 11.7134 2.06551 11.7628 1.93632C11.7875 1.87179 11.8071 1.82245 11.8201 1.79019C11.8267 1.77407 11.8315 1.76222 11.8346 1.7549C11.8361 1.75124 11.8371 1.74871 11.8377 1.74734C11.838 1.74665 11.8382 1.74626 11.8382 1.74616C11.8382 1.74611 11.8382 1.74613 11.8382 1.74623C11.8382 1.74628 11.8381 1.74641 11.8381 1.74643C11.838 1.74658 11.838 1.74674 11.1016 1.43418Z" fill="#030D19"/>
</svg>
