<svg width="24" height="24" viewBox="0 0 24 24" fill="none" xmlns="http://www.w3.org/2000/svg">
<path d="M12 2.25C10.0716 2.25 8.18657 2.82183 6.58319 3.89317C4.97982 4.96451 3.73013 6.48726 2.99218 8.26884C2.25422 10.0504 2.06114 12.0108 2.43735 13.9021C2.81355 15.7934 3.74215 17.5307 5.10571 18.8943C6.46928 20.2579 8.20656 21.1865 10.0979 21.5627C11.9892 21.9389 13.9496 21.7458 15.7312 21.0078C17.5127 20.2699 19.0355 19.0202 20.1068 17.4168C21.1782 15.8134 21.75 13.9284 21.75 12C21.7473 9.41498 20.7192 6.93661 18.8913 5.10872C17.0634 3.28084 14.585 2.25273 12 2.25ZM20.25 12C20.25 12.5625 18.6563 13.5216 15.6778 13.9847C15.7256 13.3284 15.75 12.6647 15.75 12C15.75 8.9775 15.2484 5.9325 14.2744 4.06875C15.9952 4.56497 17.5083 5.60665 18.5859 7.03702C19.6636 8.4674 20.2476 10.2091 20.25 12ZM12 3.75C12.7641 3.75 14.25 6.66188 14.25 12C14.25 12.7725 14.2181 13.4925 14.1628 14.1628C13.4925 14.2181 12.7725 14.25 12 14.25C6.66188 14.25 3.75 12.7641 3.75 12C3.75249 9.81273 4.62248 7.71575 6.16911 6.16911C7.71575 4.62247 9.81273 3.75248 12 3.75ZM4.06875 14.2744C5.9325 15.2484 8.9775 15.75 12 15.75C12.6647 15.75 13.3303 15.7256 13.9847 15.6778C13.5216 18.6562 12.5625 20.25 12 20.25C10.2091 20.2476 8.4674 19.6636 7.03703 18.5859C5.60665 17.5083 4.56498 15.9952 4.06875 14.2744ZM14.2744 19.9313C14.8641 18.8063 15.2803 17.2434 15.5175 15.5175C17.2434 15.2803 18.7988 14.8612 19.9313 14.2744C19.5424 15.6181 18.8197 16.8415 17.8306 17.8306C16.8415 18.8197 15.6181 19.5424 14.2744 19.9313Z" fill="white"/>
</svg>
