<svg width="580" height="201" viewBox="0 0 580 201" fill="none" xmlns="http://www.w3.org/2000/svg">
<path fill-rule="evenodd" clip-rule="evenodd" d="M112.498 96.1439C129.477 109.458 160.82 134.039 125.151 170.671C86.724 210.137 17.6128 183.122 3.5868 138.594C-10.4392 94.0655 19.7151 53.1781 42.8248 40.9632C41.0251 39.9423 37.8632 7.85673 42.8247 5.36477C53.9165 -0.206387 82.7002 -0.893269 111.485 5.36448C140.267 11.6224 180.487 44.0194 160.417 67.3376C144.361 85.9921 107.898 83.1913 91.6726 79.4591L108.855 93.2569C109.959 94.1522 111.187 95.1141 112.498 96.1439ZM98.0758 149.003C111.677 129.304 103.908 110.872 95.8965 101.012C111.074 105.389 121.726 119.545 120.733 135.61C119.578 154.267 103.158 168.431 84.0544 167.251C64.9512 166.069 50.4004 149.987 51.5542 131.331C52.0381 123.506 55.2086 116.471 60.1364 111.027C72.1058 100.594 98.3017 136.326 98.0758 149.003Z" fill="#00FFB3"/>
<mask id="mask0_10_562" style="mask-type:alpha" maskUnits="userSpaceOnUse" x="0" y="10" width="167" height="180">
<path d="M125.144 170.67C163.571 131.205 124.221 105.727 108.848 93.2552L91.6653 79.4579C107.89 83.1902 144.353 85.9911 160.41 67.3366C180.48 44.0183 143.648 12.6328 108.044 10.4309C72.4385 8.2289 43.7703 25.5576 40.5943 31.7285C38.0536 36.6652 41.0178 39.9411 42.8175 40.9621C19.7077 53.1771 -10.4465 94.0637 3.57947 138.592C17.6054 183.122 86.7167 210.136 125.144 170.67Z" fill="#AAE166"/>
</mask>
<g mask="url(#mask0_10_562)">
<path d="M50.4283 75.0865C19.0973 77.0602 11.3061 69.4228 7.09816 67.8586C3.47484 70.7637 -5.65412 82.1014 -10.7546 88.6309C-11.8667 89.214 -10.6939 95.6107 9.12872 95.2723C33.9068 94.8499 54.4757 79.2481 50.4283 75.0865Z" fill="#12CEAC"/>
<path d="M29.3113 105.575C5.07352 114.127 -2.83208 110.072 -6.51008 109.829C-8.69454 112.854 -13.2697 123.533 -15.7809 129.65C-16.5228 130.343 -14.12 134.946 1.42518 130.227C20.8565 124.327 33.463 107.83 29.3113 105.575Z" fill="#12CEAC"/>
<path d="M25.438 138.082C1.20023 146.636 -6.70537 142.579 -10.3834 142.336C-12.5678 145.362 -17.143 156.042 -19.6542 162.157C-20.3961 162.851 -17.9933 167.453 -2.44811 162.734C16.9832 156.836 29.5897 140.337 25.438 138.082Z" fill="#12CEAC"/>
</g>
<path d="M134.105 76.6284C149.942 85.6126 150.395 129.484 137.972 149.637C122.084 140.467 123.469 129.499 121.433 115.868C119.344 101.893 128.033 84.4394 128.033 84.4394L134.105 76.6284Z" fill="#00FFB3"/>
<path d="M97.3207 93.4522C119.648 99.3809 149.41 79.9979 154.844 72.4507C148.107 75.9755 125.859 86.3034 106.962 78.5855C83.3419 68.9382 74.9937 87.5235 97.3207 93.4522Z" fill="white"/>
<path d="M80.1613 45.0897C53.0287 47.0501 45.8671 42.3623 42.2303 40.9246C39.0818 43.6406 31.6314 46.6363 27.1896 52.7289C26.2244 53.2756 28.5846 54.2706 45.7472 53.8766C67.2006 53.3842 83.6486 48.9439 80.1613 45.0897Z" fill="#12CEAC"/>
<path d="M109.558 66.9209C121.857 67.6815 132.429 58.5615 133.172 46.5507C133.915 34.54 124.547 24.1867 112.248 23.4261C99.9492 22.6654 89.3768 31.7855 88.634 43.7962C87.8912 55.807 97.2593 66.1603 109.558 66.9209Z" fill="#63BB7A"/>
<path d="M111.635 63.4131C123.934 64.1737 134.506 55.0537 135.249 43.0429C135.992 31.0322 126.624 20.6789 114.325 19.9183C102.026 19.1576 91.4535 28.2777 90.7107 40.2884C89.9679 52.2992 99.3359 62.6524 111.635 63.4131Z" fill="#1A1A1A"/>
<path d="M109.969 45.1182C113.557 45.3401 116.64 42.6801 116.857 39.1769C117.074 35.6738 114.341 32.6541 110.754 32.4322C107.167 32.2104 104.083 34.8704 103.867 38.3735C103.65 41.8767 106.382 44.8964 109.969 45.1182Z" fill="white"/>
<path d="M153.729 60.5582C155.267 60.6533 156.588 59.5133 156.681 58.012C156.774 56.5106 155.603 55.2165 154.066 55.1214C152.528 55.0263 151.207 56.1663 151.114 57.6676C151.021 59.169 152.192 60.4632 153.729 60.5582Z" fill="#387D78"/>
<path d="M53.5225 167.672C56.5501 173.306 49.4388 181.04 38.5326 186.608C27.6262 192.177 16.6548 192.728 14.0272 187.838C11.3997 182.947 18.1109 174.469 29.0172 168.9C39.9236 163.332 50.4948 162.037 53.5225 167.672Z" fill="#7E5BF6"/>
<path d="M65.8272 179.467C69.0293 180.07 69.9237 185.215 68.7698 191.133C67.6159 197.053 64.4275 201.426 61.6484 200.902C58.8694 200.377 57.5519 195.153 58.7058 189.234C59.8597 183.316 62.6249 178.862 65.8272 179.467Z" fill="#7E5BF6"/>
<path d="M215.205 73.2123C221.785 73.2123 226.962 74.5669 230.735 77.2762C234.509 79.9855 237.17 83.6141 238.718 88.1618C240.363 92.7096 241.186 97.7898 241.186 103.402V144.187C241.186 145.832 240.605 147.234 239.443 148.396C238.379 149.557 237.025 150.137 235.379 150.137C233.735 150.137 232.331 149.557 231.17 148.396C230.106 147.234 229.574 145.832 229.574 144.187V103.692C229.574 100.015 228.994 96.7257 227.833 93.8219C226.767 90.8228 224.93 88.4522 222.317 86.7105C219.801 84.872 216.318 83.9528 211.866 83.9528C207.802 83.9528 204.077 84.872 200.69 86.7105C197.304 88.4522 194.595 90.8228 192.563 93.8219C190.531 96.7257 189.515 100.015 189.515 103.692V144.187C189.515 145.832 188.934 147.234 187.773 148.396C186.709 149.557 185.355 150.137 183.709 150.137C182.064 150.137 180.661 149.557 179.5 148.396C178.436 147.234 177.904 145.832 177.904 144.187V80.9048C177.904 79.2599 178.436 77.9053 179.5 76.8409C180.661 75.6797 182.064 75.0992 183.709 75.0992C185.451 75.0992 186.854 75.6797 187.919 76.8409C188.983 77.9053 189.515 79.2599 189.515 80.9048V91.2098L186.612 94.4032C187.096 91.8871 188.209 89.3714 189.95 86.8556C191.692 84.2431 193.869 81.9208 196.482 79.8888C199.094 77.8569 201.997 76.2602 205.19 75.0992C208.384 73.8413 211.722 73.2123 215.205 73.2123ZM324.494 74.3735C326.139 74.3735 327.493 74.954 328.558 76.1152C329.72 77.1795 330.3 78.5342 330.3 80.1791V144.187C330.3 145.832 329.72 147.234 328.558 148.396C327.493 149.557 326.139 150.137 324.494 150.137C322.752 150.137 321.349 149.557 320.285 148.396C319.221 147.234 318.688 145.832 318.688 144.187V130.397L321.446 130.108C321.446 132.236 320.72 134.559 319.269 137.075C317.817 139.591 315.835 141.961 313.319 144.187C310.803 146.315 307.803 148.105 304.32 149.557C300.932 150.912 297.256 151.589 293.288 151.589C286.708 151.589 280.807 149.896 275.582 146.509C270.357 143.025 266.195 138.332 263.099 132.429C260.099 126.528 258.599 119.803 258.599 112.255C258.599 104.611 260.099 97.8859 263.099 92.0807C266.195 86.1782 270.357 81.5822 275.582 78.2922C280.807 74.9056 286.612 73.2123 292.999 73.2123C297.159 73.2123 301.029 73.8896 304.609 75.2443C308.189 76.5989 311.287 78.4374 313.899 80.7596C316.608 83.0819 318.688 85.6461 320.14 88.4522C321.688 91.2582 322.462 94.0645 322.462 96.8699L318.688 95.9992V80.1791C318.688 78.5342 319.221 77.1795 320.285 76.1152C321.349 74.954 322.752 74.3735 324.494 74.3735ZM294.595 140.848C299.433 140.848 303.691 139.591 307.368 137.075C311.141 134.559 314.044 131.172 316.076 126.915C318.205 122.56 319.269 117.674 319.269 112.255C319.269 106.934 318.205 102.144 316.076 97.8859C314.044 93.5325 311.141 90.1455 307.368 87.7265C303.691 85.2106 299.433 83.9528 294.595 83.9528C289.854 83.9528 285.596 85.1623 281.823 87.5813C278.146 90.0003 275.243 93.3391 273.114 97.5964C270.986 101.854 269.921 106.74 269.921 112.255C269.921 117.674 270.937 122.56 272.969 126.915C275.098 131.172 278 134.559 281.678 137.075C285.451 139.591 289.756 140.848 294.595 140.848ZM348.915 75.5346H383.024C384.572 75.5346 385.829 76.0668 386.797 77.1311C387.861 78.1955 388.393 79.4534 388.393 80.9048C388.393 82.453 387.861 83.7592 386.797 84.8236C385.829 85.7912 384.572 86.275 383.024 86.275H348.915C347.464 86.275 346.206 85.7429 345.142 84.6785C344.078 83.6141 343.544 82.3079 343.544 80.7596C343.544 79.3082 344.078 78.0987 345.142 77.1311C346.206 76.0668 347.464 75.5346 348.915 75.5346ZM364.155 55.7954C365.8 55.7954 367.155 56.376 368.219 57.5371C369.283 58.6014 369.816 59.9561 369.816 61.6011V131.704C369.816 134.027 370.155 135.768 370.832 136.929C371.509 138.091 372.38 138.913 373.444 139.397C374.605 139.784 375.717 139.977 376.783 139.977C377.749 139.977 378.572 139.832 379.249 139.541C380.024 139.155 380.895 138.961 381.863 138.961C382.829 138.961 383.701 139.445 384.475 140.413C385.345 141.284 385.781 142.445 385.781 143.896C385.781 145.637 384.765 147.137 382.733 148.396C380.701 149.557 378.427 150.137 375.912 150.137C374.557 150.137 372.864 150.04 370.832 149.847C368.896 149.653 366.961 149.024 365.025 147.96C363.091 146.896 361.446 145.154 360.091 142.735C358.833 140.219 358.204 136.736 358.204 132.285V61.6011C358.204 59.9561 358.784 58.6014 359.946 57.5371C361.107 56.376 362.51 55.7954 364.155 55.7954ZM415.721 144.187C415.721 145.832 415.141 147.234 413.98 148.396C412.914 149.557 411.56 150.137 409.916 150.137C408.173 150.137 406.77 149.557 405.706 148.396C404.642 147.234 404.109 145.832 404.109 144.187V79.7437C404.109 78.0987 404.642 76.7441 405.706 75.6797C406.868 74.5186 408.27 73.938 409.916 73.938C411.56 73.938 412.914 74.5186 413.98 75.6797C415.141 76.7441 415.721 78.0987 415.721 79.7437V144.187ZM409.916 64.2136C407.496 64.2136 405.706 63.7297 404.545 62.7621C403.384 61.7945 402.804 60.2947 402.804 58.2627V56.2308C402.804 54.1988 403.432 52.6991 404.69 51.7315C405.948 50.7639 407.738 50.28 410.061 50.28C412.382 50.28 414.125 50.7639 415.285 51.7315C416.446 52.6991 417.027 54.1988 417.027 56.2308V58.2627C417.027 60.2947 416.398 61.7945 415.141 62.7621C413.98 63.7297 412.237 64.2136 409.916 64.2136ZM436.578 73.7929C437.74 73.7929 438.852 74.1316 439.917 74.8089C440.981 75.3894 441.754 76.2602 442.238 77.4214L466.332 134.027L464.01 135.188L488.539 77.5666C489.603 74.954 491.393 73.6961 493.909 73.7929C495.36 73.7929 496.619 74.2767 497.683 75.2443C498.747 76.212 499.279 77.4214 499.279 78.8729C499.279 79.4534 499.183 80.0339 498.989 80.6146C498.892 81.0983 498.747 81.5338 498.553 81.9208L470.542 146.364C469.477 148.782 467.783 150.04 465.462 150.137C464.203 150.234 462.994 149.992 461.833 149.412C460.769 148.734 459.994 147.718 459.51 146.364L431.498 82.0659C431.305 81.679 431.112 81.2435 430.917 80.7596C430.821 80.2759 430.773 79.6953 430.773 79.0179C430.773 77.7601 431.256 76.5989 432.224 75.5346C433.288 74.3735 434.74 73.7929 436.578 73.7929ZM548.94 151.589C541.199 151.589 534.426 149.944 528.621 146.653C522.814 143.364 518.267 138.864 514.977 133.156C511.784 127.35 510.188 120.674 510.188 113.126C510.188 104.708 511.833 97.5472 515.122 91.6452C518.509 85.6461 522.863 81.0983 528.185 78.0019C533.603 74.8089 539.313 73.2123 545.311 73.2123C549.763 73.2123 554.068 74.0348 558.23 75.6797C562.39 77.3246 566.067 79.7437 569.26 82.9368C572.453 86.0332 575.017 89.8068 576.952 94.2578C578.888 98.6124 579.904 103.499 580 108.918C580 110.466 579.42 111.771 578.259 112.836C577.097 113.9 575.743 114.432 574.195 114.432H516.864L514.252 104.418H570.131L567.808 106.45V103.256C567.421 99.2897 566.067 95.9031 563.744 93.0967C561.519 90.1938 558.762 87.9683 555.471 86.4202C552.278 84.872 548.891 84.0979 545.311 84.0979C542.409 84.0979 539.506 84.6301 536.603 85.6945C533.797 86.6621 531.233 88.307 528.91 90.6292C526.685 92.8548 524.846 95.7578 523.395 99.3378C522.041 102.918 521.363 107.224 521.363 112.255C521.363 117.867 522.476 122.803 524.702 127.06C527.023 131.317 530.217 134.704 534.281 137.22C538.345 139.639 543.086 140.848 548.504 140.848C551.891 140.848 554.843 140.413 557.358 139.541C559.874 138.671 562.051 137.607 563.89 136.349C565.728 134.995 567.276 133.64 568.534 132.285C569.792 131.413 571.002 130.979 572.163 130.979C573.614 130.979 574.775 131.463 575.646 132.429C576.613 133.397 577.097 134.559 577.097 135.913C577.097 137.559 576.323 139.009 574.775 140.268C572.066 143.267 568.389 145.928 563.744 148.25C559.1 150.476 554.166 151.589 548.94 151.589Z" fill="white"/>
</svg>
