<svg width="24" height="25" viewBox="0 0 24 25" fill="none" xmlns="http://www.w3.org/2000/svg">
<path opacity="0.6" d="M21.75 15.4896H18.75V9.99022C19.471 10.8797 20.4066 11.5708 21.4688 11.9983C21.6523 12.0691 21.8564 12.0649 22.0369 11.9866C22.2174 11.9083 22.3599 11.7622 22.4337 11.5798C22.5075 11.3974 22.5066 11.1933 22.4313 11.0115C22.3561 10.8298 22.2124 10.6849 22.0312 10.608C21.0599 10.2181 20.2279 9.54568 19.643 8.67773C19.058 7.80979 18.7469 6.78627 18.75 5.73959C18.75 5.54068 18.671 5.34992 18.5303 5.20926C18.3897 5.06861 18.1989 4.98959 18 4.98959C17.8011 4.98959 17.6103 5.06861 17.4697 5.20926C17.329 5.34992 17.25 5.54068 17.25 5.73959C17.25 7.13198 16.6969 8.46734 15.7123 9.4519C14.7277 10.4365 13.3924 10.9896 12 10.9896C10.6076 10.9896 9.27226 10.4365 8.28769 9.4519C7.30312 8.46734 6.75 7.13198 6.75 5.73959C6.75 5.54068 6.67098 5.34992 6.53033 5.20926C6.38968 5.06861 6.19891 4.98959 6 4.98959C5.80109 4.98959 5.61032 5.06861 5.46967 5.20926C5.32902 5.34992 5.25 5.54068 5.25 5.73959C5.2531 6.78627 4.94203 7.80979 4.35705 8.67773C3.77207 9.54568 2.94009 10.2181 1.96875 10.608C1.78762 10.6849 1.64393 10.8298 1.56865 11.0115C1.49338 11.1933 1.49254 11.3974 1.56633 11.5798C1.64012 11.7622 1.78263 11.9083 1.96313 11.9866C2.14362 12.0649 2.34766 12.0691 2.53125 11.9983C3.59336 11.5708 4.52903 10.8797 5.25 9.99022V15.4896H2.25C2.05109 15.4896 1.86032 15.5686 1.71967 15.7093C1.57902 15.8499 1.5 16.0407 1.5 16.2396C1.5 16.4385 1.57902 16.6293 1.71967 16.7699C1.86032 16.9106 2.05109 16.9896 2.25 16.9896H5.25V19.2396C5.25 19.4385 5.32902 19.6293 5.46967 19.7699C5.61032 19.9106 5.80109 19.9896 6 19.9896C6.19891 19.9896 6.38968 19.9106 6.53033 19.7699C6.67098 19.6293 6.75 19.4385 6.75 19.2396V16.9896H17.25V19.2396C17.25 19.4385 17.329 19.6293 17.4697 19.7699C17.6103 19.9106 17.8011 19.9896 18 19.9896C18.1989 19.9896 18.3897 19.9106 18.5303 19.7699C18.671 19.6293 18.75 19.4385 18.75 19.2396V16.9896H21.75C21.9489 16.9896 22.1397 16.9106 22.2803 16.7699C22.421 16.6293 22.5 16.4385 22.5 16.2396C22.5 16.0407 22.421 15.8499 22.2803 15.7093C22.1397 15.5686 21.9489 15.4896 21.75 15.4896ZM13.5 12.3208V15.4896H10.5V12.3208C11.4873 12.5459 12.5127 12.5459 13.5 12.3208ZM6.75 9.97709C7.362 10.7334 8.1293 11.3495 9 11.7837V15.4896H6.75V9.97709ZM15 15.4896V11.7846C15.8707 11.3505 16.638 10.7344 17.25 9.97803V15.4896H15Z" fill="#FBFBFB" fill-opacity="0.6"/>
</svg>
