<svg width="25" height="25" viewBox="0 0 25 25" fill="none" xmlns="http://www.w3.org/2000/svg">
<g id="Frame">
<path id="Vector" d="M21.8398 15.4896H18.8398V9.99022C19.5608 10.8797 20.4965 11.5708 21.5586 11.9983C21.7422 12.0691 21.9462 12.0649 22.1267 11.9866C22.3072 11.9083 22.4497 11.7622 22.5235 11.5798C22.5973 11.3974 22.5965 11.1933 22.5212 11.0115C22.4459 10.8298 22.3022 10.6849 22.1211 10.608C21.1498 10.2181 20.3178 9.54568 19.7328 8.67773C19.1478 7.80979 18.8367 6.78627 18.8398 5.73959C18.8398 5.54068 18.7608 5.34992 18.6202 5.20926C18.4795 5.06861 18.2888 4.98959 18.0898 4.98959C17.8909 4.98959 17.7002 5.06861 17.5595 5.20926C17.4189 5.34992 17.3398 5.54068 17.3398 5.73959C17.3398 7.13198 16.7867 8.46734 15.8022 9.4519C14.8176 10.4365 13.4822 10.9896 12.0898 10.9896C10.6975 10.9896 9.3621 10.4365 8.37753 9.4519C7.39297 8.46734 6.83984 7.13198 6.83984 5.73959C6.83984 5.54068 6.76083 5.34992 6.62017 5.20926C6.47952 5.06861 6.28876 4.98959 6.08984 4.98959C5.89093 4.98959 5.70017 5.06861 5.55951 5.20926C5.41886 5.34992 5.33984 5.54068 5.33984 5.73959C5.34294 6.78627 5.03188 7.80979 4.44689 8.67773C3.86191 9.54568 3.02993 10.2181 2.05859 10.608C1.87746 10.6849 1.73377 10.8298 1.6585 11.0115C1.58322 11.1933 1.58239 11.3974 1.65618 11.5798C1.72997 11.7622 1.87247 11.9083 2.05297 11.9866C2.23347 12.0649 2.4375 12.0691 2.62109 11.9983C3.6832 11.5708 4.61888 10.8797 5.33984 9.99022V15.4896H2.33984C2.14093 15.4896 1.95017 15.5686 1.80951 15.7093C1.66886 15.8499 1.58984 16.0407 1.58984 16.2396C1.58984 16.4385 1.66886 16.6293 1.80951 16.7699C1.95017 16.9106 2.14093 16.9896 2.33984 16.9896H5.33984V19.2396C5.33984 19.4385 5.41886 19.6293 5.55951 19.7699C5.70017 19.9106 5.89093 19.9896 6.08984 19.9896C6.28876 19.9896 6.47952 19.9106 6.62017 19.7699C6.76083 19.6293 6.83984 19.4385 6.83984 19.2396V16.9896H17.3398V19.2396C17.3398 19.4385 17.4189 19.6293 17.5595 19.7699C17.7002 19.9106 17.8909 19.9896 18.0898 19.9896C18.2888 19.9896 18.4795 19.9106 18.6202 19.7699C18.7608 19.6293 18.8398 19.4385 18.8398 19.2396V16.9896H21.8398C22.0388 16.9896 22.2295 16.9106 22.3702 16.7699C22.5108 16.6293 22.5898 16.4385 22.5898 16.2396C22.5898 16.0407 22.5108 15.8499 22.3702 15.7093C22.2295 15.5686 22.0388 15.4896 21.8398 15.4896ZM13.5898 12.3208V15.4896H10.5898V12.3208C11.5772 12.5459 12.6025 12.5459 13.5898 12.3208ZM6.83984 9.97709C7.45184 10.7334 8.21914 11.3495 9.08984 11.7837V15.4896H6.83984V9.97709ZM15.0898 15.4896V11.7846C15.9605 11.3505 16.7278 10.7344 17.3398 9.97803V15.4896H15.0898Z" fill="white"/>
</g>
</svg>
