<svg width="18" height="18" viewBox="0 0 18 18" fill="none" xmlns="http://www.w3.org/2000/svg">
<path fill-rule="evenodd" clip-rule="evenodd" d="M11.6844 1.65886C10.579 -0.552942 7.42277 -0.552954 6.31736 1.65883L0.320351 13.6581C-0.676548 15.6528 0.773957 17.9993 3.00387 17.9993H14.9977C17.2276 17.9993 18.6781 15.6528 17.6813 13.6581L11.6844 1.65886ZM8.00073 5.99927C8.00073 5.44698 8.44845 4.99927 9.00073 4.99927C9.55302 4.99927 10.0007 5.44698 10.0007 5.99927V9.99927C10.0007 10.5516 9.55302 10.9993 9.00073 10.9993C8.44845 10.9993 8.00073 10.5516 8.00073 9.99927V5.99927ZM8.00073 12.9993C8.00073 12.447 8.44845 11.9993 9.00073 11.9993C9.55302 11.9993 10.0007 12.447 10.0007 12.9993C10.0007 13.5516 9.55302 13.9993 9.00073 13.9993C8.44845 13.9993 8.00073 13.5516 8.00073 12.9993Z" fill="#E5351D"/>
</svg>
