<svg width="36" height="36" viewBox="0 0 36 36" fill="none" xmlns="http://www.w3.org/2000/svg">
<rect width="36" height="36" rx="18" fill="#242424"/>
<mask id="mask0_4453_203" style="mask-type:luminance" maskUnits="userSpaceOnUse" x="11" y="7" width="14" height="22">
<path d="M25 7H11V29H25V7Z" fill="white"/>
</mask>
<g mask="url(#mask0_4453_203)">
<path fill-rule="evenodd" clip-rule="evenodd" d="M22.4141 21.7977L24.7823 23.9963C25.2425 24.4227 24.925 25.2091 24.3087 25.1759L21.8515 25.0458C21.4613 25.0264 21.141 25.3559 21.1599 25.7574L21.2864 28.2855C21.3187 28.9224 20.5544 29.2463 20.1399 28.7729L18.4929 26.8955C18.2318 26.5964 17.7769 26.5964 17.5159 26.8955L15.8688 28.7729C15.4544 29.2463 14.6901 28.9197 14.7224 28.2855L14.8488 25.7574C14.8677 25.3559 14.5474 25.0264 14.1572 25.0458L11.7001 25.1759C11.0811 25.2091 10.7662 24.4227 11.2264 23.9963L13.5947 21.7977" fill="#2ED9FF"/>
<path fill-rule="evenodd" clip-rule="evenodd" d="M22.4138 21.7977L24.7821 23.9963C25.2423 24.4227 24.9247 25.2091 24.3084 25.1759L21.8513 25.0458C21.4611 25.0264 21.1408 25.3559 21.1597 25.7574L21.2861 28.2855C21.3184 28.9224 20.5541 29.2463 20.1397 28.7729L18.4926 26.8955C18.2316 26.5964 17.7767 26.5964 17.5157 26.8955L15.8686 28.7729C15.4541 29.2463 14.6898 28.9197 14.7221 28.2855L14.8486 25.7574C14.8674 25.3559 14.5472 25.0264 14.157 25.0458L11.6998 25.1759C11.0808 25.2091 10.7659 24.4227 11.2261 23.9963L13.5945 21.7977" fill="url(#paint0_radial_4453_203)"/>
<path fill-rule="evenodd" clip-rule="evenodd" d="M13.5941 21.7977L11.2258 23.9963C10.7656 24.4227 11.0832 25.2091 11.6995 25.1759L14.1566 25.0458C14.5468 25.0264 14.8671 25.3559 14.8483 25.7574L14.7218 28.2855C14.6895 28.9224 15.4538 29.2463 15.8683 28.7729L17.5153 26.8955C17.7764 26.5964 18.2312 26.5964 18.4923 26.8955L20.1393 28.7729C20.5538 29.2463 21.3181 28.9197 21.2858 28.2855L21.1593 25.7574C21.1405 25.3559 21.4607 25.0264 21.851 25.0458L24.3081 25.1759C24.9271 25.2091 25.2419 24.4227 24.7818 23.9963L22.4135 21.7977" fill="url(#paint1_radial_4453_203)"/>
<path d="M23.0946 11.4806C22.2254 9.70291 20.7559 8.21594 18.9151 7.23017C18.3419 6.92279 17.661 6.92279 17.0877 7.23017C15.2469 8.21594 13.7775 9.70291 12.9082 11.4806C12.5691 12.1729 13.0616 12.9925 13.8178 12.9925H22.1877C22.9412 12.9925 23.4337 12.1757 23.0974 11.4806H23.0946Z" fill="url(#paint2_linear_4453_203)"/>
<path d="M18.7374 8.62583C18.2826 8.34616 17.7147 8.34616 17.2599 8.62583C14.8109 10.1267 13.1692 12.8763 13.1692 16.0192C13.1692 19.4694 15.1446 22.4461 17.9973 23.8168C20.8474 22.4461 22.8255 19.4721 22.8255 16.0192C22.8255 12.8735 21.1838 10.1239 18.7348 8.62583H18.7374Z" fill="url(#paint3_linear_4453_203)"/>
<path d="M20.7477 22.2771C22.1552 22.3658 23.3636 21.2941 23.4498 19.8791C23.5358 18.467 22.4621 17.2486 21.0572 17.1572C19.6497 17.0686 18.4413 18.1402 18.3552 19.5552C18.269 20.9674 19.3429 22.1858 20.7477 22.2771Z" fill="#2ED9FF"/>
<path d="M14.975 22.2771C16.3826 22.3658 17.5909 21.2941 17.6771 19.8791C17.7632 18.467 16.6894 17.2486 15.2845 17.1572C13.877 17.0686 12.6686 18.1402 12.5825 19.5552C12.4964 20.9674 13.5702 22.1858 14.975 22.2771Z" fill="#2ED9FF"/>
<path d="M15.0128 21.6288C16.0624 21.6953 16.9667 20.895 17.0313 19.8372C17.0959 18.7822 16.2939 17.8713 15.2443 17.8048C14.1947 17.7384 13.2904 18.5386 13.2258 19.5964C13.1612 20.6514 13.9632 21.5623 15.0128 21.6288Z" fill="#1A1A1A"/>
<path d="M14.3157 19.7602C14.6225 19.7796 14.8862 19.547 14.905 19.2368C14.9239 18.9295 14.6897 18.6636 14.3829 18.6443C14.0761 18.6249 13.8124 18.8575 13.7935 19.1677C13.7747 19.475 14.0088 19.7409 14.3157 19.7602Z" fill="white"/>
<path d="M20.7882 21.6288C21.8378 21.6953 22.7421 20.895 22.8067 19.8372C22.8712 18.7822 22.0693 17.8713 21.0197 17.8048C19.9701 17.7384 19.0658 18.5386 19.0012 19.5964C18.9366 20.6514 19.7386 21.5623 20.7882 21.6288Z" fill="#1A1A1A"/>
<path d="M20.0886 19.7602C20.3954 19.7796 20.6592 19.547 20.678 19.2368C20.6969 18.9295 20.4627 18.6636 20.1559 18.6443C19.8491 18.6249 19.5853 18.8575 19.5665 19.1677C19.5477 19.475 19.7818 19.7409 20.0886 19.7602Z" fill="white"/>
</g>
<defs>
<radialGradient id="paint0_radial_4453_203" cx="0" cy="0" r="1" gradientUnits="userSpaceOnUse" gradientTransform="translate(22.2534 20.6751) rotate(-11.6279) scale(2.26162 2.59848)">
<stop stop-color="#1292AF"/>
<stop offset="1" stop-color="#1292AF" stop-opacity="0"/>
</radialGradient>
<radialGradient id="paint1_radial_4453_203" cx="0" cy="0" r="1" gradientUnits="userSpaceOnUse" gradientTransform="translate(13.7546 20.6751) rotate(-168.372) scale(2.26162 2.59848)">
<stop stop-color="#1292AF"/>
<stop offset="1" stop-color="#1292AF" stop-opacity="0"/>
</radialGradient>
<linearGradient id="paint2_linear_4453_203" x1="18.0001" y1="12.9897" x2="18.0001" y2="7.00033" gradientUnits="userSpaceOnUse">
<stop stop-color="#1292AF"/>
<stop offset="1" stop-color="#2ED9FF"/>
</linearGradient>
<linearGradient id="paint3_linear_4453_203" x1="16.7595" y1="17.6668" x2="14.8864" y2="6.65262" gradientUnits="userSpaceOnUse">
<stop offset="0.151877" stop-color="#2ED9FF"/>
<stop offset="1" stop-color="#95ECFF"/>
</linearGradient>
</defs>
</svg>
