<svg width="20" height="20" viewBox="0 0 20 20" fill="none" xmlns="http://www.w3.org/2000/svg">
<g clip-path="url(#clip0_9329_10867)">
<path d="M10.0002 0.833286C8.18717 0.833286 6.41489 1.3709 4.90744 2.37815C3.39999 3.38539 2.22507 4.81703 1.53127 6.49202C0.837468 8.16701 0.655937 10.0101 1.00964 11.7883C1.36333 13.5664 2.23637 15.1998 3.51835 16.4818C4.80034 17.7637 6.43368 18.6368 8.21184 18.9905C9.99 19.3442 11.8331 19.1627 13.5081 18.4688C15.1831 17.775 16.6147 16.6001 17.622 15.0927C18.6292 13.5852 19.1668 11.8129 19.1668 9.99995C19.1723 8.79462 18.939 7.60015 18.4803 6.48551C18.0216 5.37086 17.3466 4.35815 16.4943 3.50584C15.642 2.65354 14.6293 1.97854 13.5146 1.51982C12.4 1.06111 11.2055 0.82777 10.0002 0.833286ZM10.8335 14.1666C10.8335 14.3876 10.7457 14.5996 10.5894 14.7559C10.4331 14.9122 10.2212 15 10.0002 15C9.77915 15 9.56719 14.9122 9.41091 14.7559C9.25463 14.5996 9.16683 14.3876 9.16683 14.1666V9.16662C9.16683 8.94561 9.25463 8.73364 9.41091 8.57736C9.56719 8.42108 9.77915 8.33329 10.0002 8.33329C10.2212 8.33329 10.4331 8.42108 10.5894 8.57736C10.7457 8.73364 10.8335 8.94561 10.8335 9.16662V14.1666ZM10.0002 6.66662C9.83535 6.66662 9.67423 6.61775 9.53719 6.52618C9.40015 6.43461 9.29334 6.30446 9.23027 6.15219C9.16719 5.99992 9.15069 5.83236 9.18285 5.67071C9.215 5.50906 9.29437 5.36057 9.41091 5.24403C9.52745 5.12749 9.67594 5.04812 9.83759 5.01597C9.99924 4.98381 10.1668 5.00031 10.3191 5.06339C10.4713 5.12646 10.6015 5.23327 10.6931 5.37031C10.7846 5.50735 10.8335 5.66847 10.8335 5.83329C10.8335 6.0543 10.7457 6.26626 10.5894 6.42254C10.4331 6.57882 10.2212 6.66662 10.0002 6.66662Z" fill="url(#paint0_linear_9329_10867)"/>
</g>
<defs>
<linearGradient id="paint0_linear_9329_10867" x1="10.0492" y1="0.833191" x2="10.0492" y2="19.1666" gradientUnits="userSpaceOnUse">
<stop stop-color="#10F3B2"/>
<stop offset="1" stop-color="#00B581"/>
</linearGradient>
<clipPath id="clip0_9329_10867">
<rect width="20" height="20" fill="white"/>
</clipPath>
</defs>
</svg>
