<svg width="24" height="25" viewBox="0 0 24 25" fill="none" xmlns="http://www.w3.org/2000/svg">
<path opacity="0.6" d="M21.75 19.113V22.9896C21.75 23.1885 21.671 23.3793 21.5303 23.5199C21.3897 23.6606 21.1989 23.7396 21 23.7396C20.8011 23.7396 20.6103 23.6606 20.4697 23.5199C20.329 23.3793 20.25 23.1885 20.25 22.9896V19.113C20.2465 18.1504 20.0449 17.1987 19.6579 16.3173C19.2708 15.4359 18.7065 14.6435 18 13.9896V19.4599C17.9999 19.6213 17.9477 19.7784 17.8512 19.9077C17.7546 20.0371 17.619 20.1319 17.4643 20.178C17.3096 20.2241 17.1442 20.2191 16.9926 20.1637C16.841 20.1083 16.7113 20.0055 16.6228 19.8705L15.6216 18.3415C15.6141 18.3302 15.6066 18.318 15.6 18.3058C15.4529 18.0461 15.2087 17.8555 14.9211 17.7758C14.6334 17.6962 14.326 17.7341 14.0662 17.8812C13.8065 18.0282 13.6159 18.2724 13.5363 18.5601C13.4566 18.8477 13.4945 19.1552 13.6416 19.4149L15.7162 22.5827C15.8252 22.7492 15.8635 22.9521 15.8228 23.1468C15.7821 23.3415 15.6657 23.5121 15.4992 23.621C15.3328 23.7299 15.1298 23.7682 14.9351 23.7275C14.7404 23.6868 14.5698 23.5704 14.4609 23.404L12.3741 20.2165L12.3516 20.1808C12.0285 19.6272 11.9192 18.9746 12.0442 18.3459C12.1692 17.7173 12.5199 17.1561 13.0301 16.7681C13.5404 16.3802 14.175 16.1924 14.8141 16.2401C15.4533 16.2878 16.053 16.5677 16.5 17.0271V6.48959H15C14.8011 6.48959 14.6103 6.41058 14.4697 6.26992C14.329 6.12927 14.25 5.93851 14.25 5.73959C14.25 5.54068 14.329 5.34992 14.4697 5.20926C14.6103 5.06861 14.8011 4.98959 15 4.98959H16.5C16.8978 4.98959 17.2794 5.14763 17.5607 5.42893C17.842 5.71024 18 6.09177 18 6.48959V12.079C19.1512 12.8569 20.0946 13.9045 20.7482 15.1305C21.4018 16.3565 21.7458 17.7237 21.75 19.113ZM8.25 5.73959C8.25 5.54068 8.17098 5.34992 8.03033 5.20926C7.88968 5.06861 7.69891 4.98959 7.5 4.98959H6C5.60218 4.98959 5.22064 5.14763 4.93934 5.42893C4.65804 5.71024 4.5 6.09177 4.5 6.48959V19.2396C4.5 19.4385 4.57902 19.6293 4.71967 19.7699C4.86032 19.9106 5.05109 19.9896 5.25 19.9896C5.44891 19.9896 5.63968 19.9106 5.78033 19.7699C5.92098 19.6293 6 19.4385 6 19.2396V6.48959H7.5C7.69891 6.48959 7.88968 6.41058 8.03033 6.26992C8.17098 6.12927 8.25 5.93851 8.25 5.73959ZM14.7806 9.70897C14.711 9.63924 14.6283 9.58392 14.5372 9.54617C14.4462 9.50843 14.3486 9.489 14.25 9.489C14.1514 9.489 14.0538 9.50843 13.9628 9.54617C13.8717 9.58392 13.789 9.63924 13.7194 9.70897L12 11.4293V1.98959C12 1.79068 11.921 1.59992 11.7803 1.45926C11.6397 1.31861 11.4489 1.23959 11.25 1.23959C11.0511 1.23959 10.8603 1.31861 10.7197 1.45926C10.579 1.59992 10.5 1.79068 10.5 1.98959V11.4293L8.78063 9.70897C8.63989 9.56824 8.44902 9.48918 8.25 9.48918C8.05098 9.48918 7.86011 9.56824 7.71937 9.70897C7.57864 9.8497 7.49958 10.0406 7.49958 10.2396C7.49958 10.4386 7.57864 10.6295 7.71937 10.7702L10.7194 13.7702C10.789 13.84 10.8717 13.8953 10.9628 13.933C11.0538 13.9708 11.1514 13.9902 11.25 13.9902C11.3486 13.9902 11.4462 13.9708 11.5372 13.933C11.6283 13.8953 11.711 13.84 11.7806 13.7702L14.7806 10.7702C14.8504 10.7006 14.9057 10.6178 14.9434 10.5268C14.9812 10.4357 15.0006 10.3382 15.0006 10.2396C15.0006 10.141 14.9812 10.0434 14.9434 9.95239C14.9057 9.86134 14.8504 9.77862 14.7806 9.70897Z" fill="#FBFBFB" fill-opacity="0.6"/>
</svg>
