<svg width="32" height="33" viewBox="0 0 32 33" fill="none" xmlns="http://www.w3.org/2000/svg">
<g id="Frame">
<path id="Vector" d="M16 7.9502H14V2.9502C14 2.68498 14.1054 2.43062 14.2929 2.24309C14.4804 2.05555 14.7348 1.9502 15 1.9502C15.2652 1.9502 15.5196 2.05555 15.7071 2.24309C15.8946 2.43062 16 2.68498 16 2.9502V7.9502ZM24 16.4027V9.9502C24 9.41976 23.7893 8.91105 23.4142 8.53598C23.0391 8.16091 22.5304 7.9502 22 7.9502H16V15.5364L18.2925 13.2427C18.3854 13.1498 18.4957 13.0761 18.6171 13.0258C18.7385 12.9755 18.8686 12.9496 19 12.9496C19.1314 12.9496 19.2615 12.9755 19.3829 13.0258C19.5043 13.0761 19.6146 13.1498 19.7075 13.2427C19.8004 13.3356 19.8741 13.4459 19.9244 13.5673C19.9747 13.6887 20.0006 13.8188 20.0006 13.9502C20.0006 14.0816 19.9747 14.2117 19.9244 14.3331C19.8741 14.4545 19.8004 14.5648 19.7075 14.6577L15.7075 18.6577C15.6146 18.7507 15.5043 18.8244 15.3829 18.8748C15.2615 18.9251 15.1314 18.951 15 18.951C14.8686 18.951 14.7385 18.9251 14.6171 18.8748C14.4957 18.8244 14.3854 18.7507 14.2925 18.6577L10.2925 14.6577C10.1049 14.4701 9.99944 14.2156 9.99944 13.9502C9.99944 13.6848 10.1049 13.4303 10.2925 13.2427C10.4801 13.0551 10.7346 12.9496 11 12.9496C11.2654 12.9496 11.5199 13.0551 11.7075 13.2427L14 15.5364V7.9502H8C7.46957 7.9502 6.96086 8.16091 6.58579 8.53598C6.21071 8.91105 6 9.41976 6 9.9502V25.9502C6 26.2154 6.10536 26.4698 6.29289 26.6573C6.48043 26.8448 6.73478 26.9502 7 26.9502H16.3375C16.3775 27.0339 16.4213 27.1177 16.4688 27.2002L16.4988 27.2477L19.2812 31.4977C19.4265 31.7196 19.6539 31.8748 19.9135 31.9291C20.1731 31.9834 20.4437 31.9323 20.6656 31.7871C20.8876 31.6419 21.0428 31.4144 21.097 31.1548C21.1513 30.8952 21.1002 30.6246 20.955 30.4027L18.1887 26.1789C17.9927 25.8327 17.9421 25.4227 18.0483 25.0392C18.1545 24.6557 18.4087 24.33 18.755 24.1339C19.1013 23.9379 19.5113 23.8873 19.8948 23.9935C20.2783 24.0997 20.6039 24.3539 20.8 24.7002C20.8087 24.7164 20.8188 24.7327 20.8288 24.7477L22.1637 26.7864C22.2818 26.9664 22.4547 27.1035 22.6568 27.1774C22.8589 27.2512 23.0795 27.2579 23.2857 27.1964C23.492 27.1349 23.6729 27.0085 23.8015 26.836C23.9302 26.6636 23.9998 26.4541 24 26.2389V18.9502C24.9426 19.8227 25.6954 20.88 26.2115 22.0561C26.7276 23.2322 26.996 24.5021 27 25.7864V30.9502C27 31.2154 27.1054 31.4698 27.2929 31.6573C27.4804 31.8448 27.7348 31.9502 28 31.9502C28.2652 31.9502 28.5196 31.8448 28.7071 31.6573C28.8946 31.4698 29 31.2154 29 30.9502V25.7814C28.9943 23.929 28.5358 22.106 27.6643 20.4713C26.7928 18.8367 25.5349 17.4399 24 16.4027Z" fill="white"/>
</g>
</svg>
