<svg width="18" height="18" viewBox="0 0 18 18" fill="none" xmlns="http://www.w3.org/2000/svg">
<g id="tick-circle-svgrepo-com 1" clip-path="url(#clip0_10608_3030)">
<path id="Vector" d="M9 18.0001C13.9705 18.0001 18 13.9706 18 9.00006C18 4.0295 13.9705 6.10352e-05 9 6.10352e-05C4.02943 6.10352e-05 0 4.0295 0 9.00006C0 13.9706 4.02943 18.0001 9 18.0001Z" fill="url(#paint0_linear_10608_3030)"/>
<path id="Vector_2" d="M7.13618 12.1855C7.2767 12.326 7.46749 12.4064 7.66841 12.4064C7.86932 12.4064 8.06012 12.326 8.20064 12.1855L13.5163 6.86988C13.8077 6.57848 13.8077 6.09682 13.5163 5.80542C13.2249 5.51402 12.7432 5.51402 12.4518 5.80542L7.66841 10.5888L5.54746 8.46792C5.25606 8.17652 4.77441 8.17652 4.483 8.46792C4.1916 8.75932 4.1916 9.24098 4.483 9.53238L7.13618 12.1855Z" fill="#030D19" stroke="#030D19" stroke-width="0.1"/>
</g>
<defs>
<linearGradient id="paint0_linear_10608_3030" x1="9" y1="6.10352e-05" x2="9" y2="18.0001" gradientUnits="userSpaceOnUse">
<stop stop-color="white"/>
<stop offset="1" stop-color="#BABABA"/>
</linearGradient>
<clipPath id="clip0_10608_3030">
<rect width="18" height="18" fill="white"/>
</clipPath>
</defs>
</svg>
