<svg width="20" height="20" viewBox="0 0 20 20" fill="none" xmlns="http://www.w3.org/2000/svg">
<g id="Wallet">
<path id="Shape" fill-rule="evenodd" clip-rule="evenodd" d="M14.166 7.5H18.3327V12.5H14.166C12.7853 12.5 11.666 11.3807 11.666 10C11.666 8.61929 12.7853 7.5 14.166 7.5ZM14.166 10.8333C14.6263 10.8333 14.9993 10.4602 14.9993 10C14.9993 9.53976 14.6263 9.16667 14.166 9.16667C13.7058 9.16667 13.3327 9.53976 13.3327 10C13.3327 10.4602 13.7058 10.8333 14.166 10.8333Z" fill="#03D498"/>
<path id="Shape_2" fill-rule="evenodd" clip-rule="evenodd" d="M6.46493 3.33334H13.5338C14.2046 3.33333 14.7582 3.33332 15.2092 3.37017C15.6776 3.40844 16.1082 3.49058 16.5127 3.69666C17.1399 4.01623 17.6498 4.52617 17.9694 5.15338C18.1754 5.55782 18.2576 5.98841 18.2959 6.45682C18.3327 6.90781 18.3327 7.46144 18.3327 8.13224V11.8678C18.3327 12.5386 18.3327 13.0922 18.2959 13.5432C18.2576 14.0116 18.1754 14.4422 17.9694 14.8466C17.6498 15.4739 17.1399 15.9838 16.5127 16.3034C16.1082 16.5094 15.6776 16.5916 15.2092 16.6298C14.7582 16.6667 14.2046 16.6667 13.5337 16.6667H6.46495C5.79414 16.6667 5.24049 16.6667 4.78949 16.6298C4.32108 16.5916 3.89049 16.5094 3.48605 16.3034C2.85884 15.9838 2.34891 15.4739 2.02933 14.8466C1.82325 14.4422 1.74112 14.0116 1.70284 13.5432C1.666 13.0922 1.66601 12.5386 1.66602 11.8678V8.13226C1.66601 7.46145 1.666 6.90782 1.70284 6.45682C1.74112 5.98841 1.82325 5.55782 2.02933 5.15338C2.34891 4.52617 2.85884 4.01623 3.48605 3.69666C3.89049 3.49058 4.32108 3.40844 4.78949 3.37017C5.24049 3.33332 5.79413 3.33333 6.46493 3.33334ZM4.92521 5.0313C4.55987 5.06115 4.37303 5.11526 4.2427 5.18167C3.9291 5.34146 3.67413 5.59642 3.51434 5.91003C3.44793 6.04036 3.39383 6.2272 3.36398 6.59254C3.33333 6.96762 3.33268 7.45286 3.33268 8.16668V11.8333C3.33268 12.5472 3.33333 13.0324 3.36398 13.4075C3.39383 13.7728 3.44793 13.9597 3.51434 14.09C3.67413 14.4036 3.9291 14.6586 4.2427 14.8184C4.37303 14.8848 4.55987 14.9389 4.92521 14.9687C5.30029 14.9994 5.78553 15 6.49935 15H13.4993C14.2132 15 14.6984 14.9994 15.0735 14.9687C15.4388 14.9389 15.6257 14.8848 15.756 14.8184C16.0696 14.6586 16.3246 14.4036 16.4844 14.09C16.5508 13.9597 16.6049 13.7728 16.6347 13.4075C16.6654 13.0324 16.666 12.5472 16.666 11.8333V8.16668C16.666 7.45286 16.6654 6.96762 16.6347 6.59254C16.6049 6.2272 16.5508 6.04036 16.4844 5.91003C16.3246 5.59642 16.0696 5.34146 15.756 5.18167C15.6257 5.11526 15.4388 5.06115 15.0735 5.0313C14.6984 5.00066 14.2132 5.00001 13.4994 5.00001H6.49935C5.78553 5.00001 5.30029 5.00066 4.92521 5.0313Z" fill="#03D498"/>
</g>
</svg>
