<svg width="32" height="32" viewBox="0 0 32 32" fill="none" xmlns="http://www.w3.org/2000/svg">
<g id="warning_amber">
<path id="Vector" d="M16 7.98667L26.04 25.3333H5.96L16 7.98667ZM3.65333 24C2.62667 25.7733 3.90667 28 5.96 28H26.04C28.0933 28 29.3733 25.7733 28.3467 24L18.3067 6.65333C17.28 4.88 14.72 4.88 13.6933 6.65333L3.65333 24ZM14.6667 14.6667V17.3333C14.6667 18.0667 15.2667 18.6667 16 18.6667C16.7333 18.6667 17.3333 18.0667 17.3333 17.3333V14.6667C17.3333 13.9333 16.7333 13.3333 16 13.3333C15.2667 13.3333 14.6667 13.9333 14.6667 14.6667ZM14.6667 21.3333H17.3333V24H14.6667V21.3333Z" fill="#C57D10"/>
</g>
</svg>
