<svg width="160" height="104" viewBox="0 0 160 104" fill="none" xmlns="http://www.w3.org/2000/svg">
<path d="M46.9267 0.651367H1.06652C0.783658 0.651367 0.512385 0.763731 0.312374 0.963742C0.112364 1.16375 0 1.43503 0 1.71788V47.5781C0 47.8609 0.112364 48.1322 0.312374 48.3322C0.512385 48.5322 0.783658 48.6446 1.06652 48.6446H46.9267C47.2095 48.6446 47.4808 48.5322 47.6808 48.3322C47.8808 48.1322 47.9932 47.8609 47.9932 47.5781V1.71788C47.9932 1.43503 47.8808 1.16375 47.6808 0.963742C47.4808 0.763731 47.2095 0.651367 46.9267 0.651367ZM31.9955 31.5803C31.9955 31.8632 31.8831 32.1345 31.6831 32.3345C31.4831 32.5345 31.2118 32.6468 30.929 32.6468H17.0643C16.7814 32.6468 16.5101 32.5345 16.3101 32.3345C16.1101 32.1345 15.9977 31.8632 15.9977 31.5803V17.7156C15.9977 17.4328 16.1101 17.1615 16.3101 16.9615C16.5101 16.7615 16.7814 16.6491 17.0643 16.6491H30.929C31.2118 16.6491 31.4831 16.7615 31.6831 16.9615C31.8831 17.1615 31.9955 17.4328 31.9955 17.7156V31.5803Z" fill="white"/>
<path d="M142.942 16.6475H129.077C128.488 16.6475 128.011 17.125 128.011 17.714V31.5787C128.011 32.1677 128.488 32.6452 129.077 32.6452H142.942C143.531 32.6452 144.008 32.1677 144.008 31.5787V17.714C144.008 17.125 143.531 16.6475 142.942 16.6475Z" fill="white"/>
<path d="M126.937 0.651367H113.072C112.483 0.651367 112.006 1.12886 112.006 1.71788V15.5826C112.006 16.1716 112.483 16.6491 113.072 16.6491H126.937C127.526 16.6491 128.004 16.1716 128.004 15.5826V1.71788C128.004 1.12886 127.526 0.651367 126.937 0.651367Z" fill="white"/>
<path d="M158.933 0.651367H145.068C144.479 0.651367 144.002 1.12886 144.002 1.71788V15.5826C144.002 16.1716 144.479 16.6491 145.068 16.6491H158.933C159.522 16.6491 160 16.1716 160 15.5826V1.71788C160 1.12886 159.522 0.651367 158.933 0.651367Z" fill="white"/>
<path d="M126.937 32.6455H113.072C112.483 32.6455 112.006 33.123 112.006 33.712V47.5767C112.006 48.1657 112.483 48.6432 113.072 48.6432H126.937C127.526 48.6432 128.004 48.1657 128.004 47.5767V33.712C128.004 33.123 127.526 32.6455 126.937 32.6455Z" fill="white"/>
<path d="M158.933 32.6455H145.068C144.479 32.6455 144.002 33.123 144.002 33.712V47.5767C144.002 48.1657 144.479 48.6432 145.068 48.6432H158.933C159.522 48.6432 160 48.1657 160 47.5767V33.712C160 33.123 159.522 32.6455 158.933 32.6455Z" fill="white"/>
<path d="M102.918 0.651367H89.0536C88.4646 0.651367 87.9871 1.12886 87.9871 1.71788V15.5826C87.9871 16.1716 88.4646 16.6491 89.0536 16.6491H102.918C103.507 16.6491 103.985 16.1716 103.985 15.5826V1.71788C103.985 1.12886 103.507 0.651367 102.918 0.651367Z" fill="white"/>
<path d="M102.918 32.6455H89.0536C88.4646 32.6455 87.9871 33.123 87.9871 33.712V47.5767C87.9871 48.1657 88.4646 48.6432 89.0536 48.6432H102.918C103.507 48.6432 103.985 48.1657 103.985 47.5767V33.712C103.985 33.123 103.507 32.6455 102.918 32.6455Z" fill="white"/>
<path d="M87.9845 17.7036C87.9845 17.4208 87.8721 17.1495 87.6721 16.9495C87.4721 16.7495 87.2008 16.6371 86.918 16.6371H71.9867V1.71788C71.9867 1.43503 71.8744 1.16375 71.6744 0.963741C71.4744 0.763731 71.2031 0.651367 70.9202 0.651367H57.0555C56.7727 0.651367 56.5014 0.763731 56.3014 0.963741C56.1014 1.16375 55.989 1.43503 55.989 1.71788V47.554C55.989 47.8369 56.1014 48.1082 56.3014 48.3082C56.5014 48.5082 56.7727 48.6206 57.0555 48.6206H70.9202C71.2031 48.6206 71.4744 48.5082 71.6744 48.3082C71.8744 48.1082 71.9867 47.8369 71.9867 47.554V32.6348H86.918C87.2008 32.6348 87.4721 32.5225 87.6721 32.3225C87.8721 32.1224 87.9845 31.8512 87.9845 31.5683V17.7036Z" fill="white"/>
<path d="M16.9113 84.6608L12.4864 64.6436H0.00195312L9.79988 102.466H21.1781L26.0771 82.0796L30.976 102.466H42.3543L52.1522 64.6436H39.9838L35.5589 84.6608L31.0814 64.6436H21.3888L16.9113 84.6608Z" fill="white"/>
<path d="M57.1028 102.466H85.5484V92.457H68.8498V88.2955H82.5458V78.5503H68.8498V74.6522H85.5484V64.6436H57.1028V102.466Z" fill="white"/>
<path d="M110.957 102.466C115.171 102.466 118.437 101.57 120.755 99.6737C123.02 97.7774 124.179 95.1435 124.179 91.6668C124.179 89.7705 123.652 88.0321 122.651 86.4518C121.597 84.9242 120.228 83.7653 118.437 82.9225C119.806 82.2377 120.965 81.1841 121.861 79.7618C122.704 78.3922 123.178 76.8119 123.178 75.1263C123.178 71.7549 122.019 69.1211 119.806 67.3301C117.541 65.5391 114.275 64.6436 110.061 64.6436H91.835V102.466H110.957ZM103.319 74.2308H108.797C109.798 74.2308 110.588 74.4415 111.115 74.8629C111.642 75.2843 111.905 75.9164 111.905 76.6539C111.905 77.4441 111.642 78.0235 111.115 78.4449C110.588 78.8663 109.798 79.077 108.797 79.077H103.319V74.2308ZM109.64 87.7161C110.535 87.7161 111.273 87.9795 111.8 88.4009C112.326 88.875 112.642 89.5071 112.642 90.2446C112.642 91.0347 112.326 91.6668 111.8 92.0883C111.273 92.5623 110.535 92.7731 109.64 92.7731H103.319V87.7161H109.64Z" fill="white"/>
<path d="M155.099 100.411C156.679 99.358 157.891 98.041 158.733 96.5134C159.576 95.0384 159.998 93.4055 159.998 91.6144C159.998 89.7181 159.576 88.0324 158.733 86.6628C157.891 85.2932 156.679 84.1343 154.993 83.2388C156.363 82.6067 157.522 81.5531 158.417 80.1309C159.26 78.7613 159.734 77.181 159.734 75.4953C159.734 73.757 159.313 72.124 158.575 70.5963C157.785 69.1214 156.679 67.8571 155.204 66.8036C153.94 65.9081 152.465 65.2233 150.832 64.7492C149.146 64.2751 147.408 64.0117 145.511 64.0117C143.457 64.0117 141.561 64.3278 139.822 64.8545C138.031 65.3813 136.504 66.1715 135.134 67.225C133.659 68.3839 132.448 69.8062 131.605 71.3865C130.709 73.0195 130.182 74.7578 129.972 76.6542L141.139 77.4443C141.245 76.3908 141.613 75.548 142.298 74.9159C142.983 74.2837 143.826 73.915 144.879 73.915C145.775 73.915 146.512 74.1784 147.039 74.5998C147.566 75.0212 147.829 75.6533 147.829 76.3908C147.829 77.2336 147.513 77.8658 146.881 78.2872C146.249 78.7086 145.301 78.9193 143.984 78.9193H140.981V87.9271H144.142C145.511 87.9271 146.565 88.1378 147.25 88.5592C147.882 88.9806 148.251 89.6127 148.251 90.4556C148.251 91.3511 147.935 92.0359 147.302 92.51C146.67 92.984 145.88 93.1948 144.879 93.1948C143.72 93.1948 142.825 92.8787 142.14 92.1939C141.403 91.5618 141.034 90.6136 140.981 89.4547L129.129 91.0877C129.55 94.8804 131.236 97.8303 134.081 99.9374C136.925 102.044 140.56 103.098 145.09 103.098C147.039 103.098 148.883 102.887 150.568 102.413C152.254 101.992 153.729 101.307 155.099 100.411Z" fill="white"/>
</svg>
