<svg width="24" height="24" viewBox="0 0 24 24" fill="none" xmlns="http://www.w3.org/2000/svg">
<g id="Frame">
<path id="Vector" d="M18.3864 12.0001C20.6973 8.75542 21.8757 5.40198 20.237 3.76323C18.5982 2.12448 15.2448 3.30292 12.0001 5.61386C8.75542 3.30292 5.40198 2.12448 3.76323 3.76323C2.12448 5.40198 3.30292 8.75542 5.61386 12.0001C3.30292 15.2448 2.12448 18.5982 3.76323 20.237C4.29104 20.7648 4.99604 21.0001 5.81729 21.0001C7.54886 21.0001 9.79979 19.9529 12.0048 18.3864C14.2004 19.9529 16.4504 21.0001 18.1876 21.0001C19.0089 21.0001 19.7148 20.7639 20.2417 20.237C21.8757 18.5982 20.6973 15.2448 18.3864 12.0001ZM19.1767 4.82354C19.8929 5.53979 19.4092 7.86104 17.4404 10.756C16.8176 9.98503 16.1545 9.24744 15.4539 8.54636C14.7524 7.84697 14.0149 7.18481 13.2442 6.56261C16.1392 4.59386 18.4604 4.10729 19.1767 4.82354ZM4.82354 4.82354C5.02979 4.61636 5.37011 4.50948 5.81917 4.50948C6.92729 4.50948 8.69636 5.15636 10.7551 6.56261C9.98489 7.18503 9.24764 7.84718 8.54636 8.54636C7.8467 9.24751 7.18453 9.9851 6.56261 10.756C4.59386 7.86104 4.10729 5.53979 4.82354 4.82354ZM4.82354 19.1767C4.10729 18.4604 4.59386 16.1392 6.56261 13.2442C7.18544 14.0152 7.84855 14.7528 8.54917 15.4539C9.24987 16.153 9.98649 16.8151 10.756 17.4376C7.86104 19.4064 5.53979 19.8929 4.82354 19.1767ZM12.0001 13.1251C11.7776 13.1251 11.5601 13.0591 11.3751 12.9355C11.1901 12.8119 11.0459 12.6362 10.9607 12.4306C10.8756 12.2251 10.8533 11.9989 10.8967 11.7806C10.9401 11.5624 11.0473 11.3619 11.2046 11.2046C11.3619 11.0473 11.5624 10.9401 11.7806 10.8967C11.9989 10.8533 12.2251 10.8756 12.4306 10.9607C12.6362 11.0459 12.8119 11.1901 12.9355 11.3751C13.0591 11.5601 13.1251 11.7776 13.1251 12.0001C13.1251 12.2985 13.0066 12.5846 12.7956 12.7956C12.5846 13.0066 12.2985 13.1251 12.0001 13.1251ZM19.1767 19.1776C18.4604 19.8948 16.1392 19.4101 13.2442 17.4414C14.0148 16.818 14.7523 16.1549 15.4539 15.4548C16.1535 14.7533 16.8157 14.0154 17.4376 13.2442C19.4064 16.1392 19.8929 18.4604 19.1767 19.1767V19.1776Z" fill="white"/>
</g>
</svg>
