<svg width="24" height="24" viewBox="0 0 24 24" fill="none" xmlns="http://www.w3.org/2000/svg">
<g id="Frame">
<path id="Vector" d="M20.25 6H5.25C5.05109 6 4.86032 5.92098 4.71967 5.78033C4.57902 5.63968 4.5 5.44891 4.5 5.25C4.5 5.05109 4.57902 4.86032 4.71967 4.71967C4.86032 4.57902 5.05109 4.5 5.25 4.5H18C18.1989 4.5 18.3897 4.42098 18.5303 4.28033C18.671 4.13968 18.75 3.94891 18.75 3.75C18.75 3.55109 18.671 3.36032 18.5303 3.21967C18.3897 3.07902 18.1989 3 18 3H5.25C4.65326 3 4.08097 3.23705 3.65901 3.65901C3.23705 4.08097 3 4.65326 3 5.25V17.25C3 17.8467 3.23705 18.419 3.65901 18.841C4.08097 19.2629 4.65326 19.5 5.25 19.5H20.25C20.6478 19.5 21.0294 19.342 21.3107 19.0607C21.592 18.7794 21.75 18.3978 21.75 18V7.5C21.75 7.10218 21.592 6.72064 21.3107 6.43934C21.0294 6.15804 20.6478 6 20.25 6ZM16.875 13.5C16.6525 13.5 16.435 13.434 16.25 13.3104C16.065 13.1868 15.9208 13.0111 15.8356 12.8055C15.7505 12.6 15.7282 12.3738 15.7716 12.1555C15.815 11.9373 15.9222 11.7368 16.0795 11.5795C16.2368 11.4222 16.4373 11.315 16.6555 11.2716C16.8738 11.2282 17.1 11.2505 17.3055 11.3356C17.5111 11.4208 17.6868 11.565 17.8104 11.75C17.934 11.935 18 12.1525 18 12.375C18 12.6734 17.8815 12.9595 17.6705 13.1705C17.4595 13.3815 17.1734 13.5 16.875 13.5Z" fill="url(#paint0_linear_10031_363)"/>
</g>
<defs>
<linearGradient id="paint0_linear_10031_363" x1="3" y1="11.25" x2="21.75" y2="11.25" gradientUnits="userSpaceOnUse">
<stop stop-color="#4BA790"/>
<stop offset="0.503103" stop-color="#FBFBFB" stop-opacity="0.6"/>
<stop offset="1" stop-color="#9747FF"/>
</linearGradient>
</defs>
</svg>
