<svg width="25" height="25" viewBox="0 0 25 25" fill="none" xmlns="http://www.w3.org/2000/svg">
<g id="Frame">
<path id="Vector" opacity="0.6" d="M17.1086 10.9971H14.8586C14.6597 10.9971 14.4689 10.9181 14.3283 10.7774C14.1876 10.6367 14.1086 10.446 14.1086 10.2471C14.1086 10.0482 14.1876 9.85739 14.3283 9.71674C14.4689 9.57609 14.6597 9.49707 14.8586 9.49707H17.1086C17.3075 9.49707 17.4983 9.57609 17.6389 9.71674C17.7796 9.85739 17.8586 10.0482 17.8586 10.2471C17.8586 10.446 17.7796 10.6367 17.6389 10.7774C17.4983 10.9181 17.3075 10.9971 17.1086 10.9971ZM10.3586 9.49707H9.60858V8.74707C9.60858 8.54816 9.52957 8.35739 9.38891 8.21674C9.24826 8.07609 9.0575 7.99707 8.85858 7.99707C8.65967 7.99707 8.46891 8.07609 8.32825 8.21674C8.1876 8.35739 8.10858 8.54816 8.10858 8.74707V9.49707H7.35858C7.15967 9.49707 6.96891 9.57609 6.82825 9.71674C6.6876 9.85739 6.60858 10.0482 6.60858 10.2471C6.60858 10.446 6.6876 10.6367 6.82825 10.7774C6.96891 10.9181 7.15967 10.9971 7.35858 10.9971H8.10858V11.7471C8.10858 11.946 8.1876 12.1367 8.32825 12.2774C8.46891 12.4181 8.65967 12.4971 8.85858 12.4971C9.0575 12.4971 9.24826 12.4181 9.38891 12.2774C9.52957 12.1367 9.60858 11.946 9.60858 11.7471V10.9971H10.3586C10.5575 10.9971 10.7483 10.9181 10.8889 10.7774C11.0296 10.6367 11.1086 10.446 11.1086 10.2471C11.1086 10.0482 11.0296 9.85739 10.8889 9.71674C10.7483 9.57609 10.5575 9.49707 10.3586 9.49707ZM23.2473 19.308C22.9647 19.7116 22.5971 20.0485 22.1703 20.2949C21.7436 20.5413 21.268 20.6912 20.7771 20.7342C20.2863 20.7772 19.7919 20.7121 19.3288 20.5436C18.8658 20.3752 18.4452 20.1073 18.0967 19.7589C18.0855 19.7477 18.0742 19.7364 18.0639 19.7243L14.3411 15.4971H10.8723L7.15327 19.7243L7.12046 19.7589C6.4869 20.3911 5.62861 20.7465 4.73358 20.7471C4.24087 20.7469 3.75417 20.6388 3.30768 20.4305C2.86118 20.2221 2.46572 19.9185 2.14907 19.541C1.83242 19.1636 1.60227 18.7213 1.47478 18.2454C1.34728 17.7694 1.32554 17.2714 1.41108 16.7861C1.41063 16.7818 1.41063 16.7774 1.41108 16.773L2.94577 8.88957C3.17418 7.58932 3.85351 6.41116 4.86442 5.56211C5.87532 4.71306 7.15312 4.24744 8.47327 4.24707H16.7336C18.0498 4.24917 19.3236 4.71213 20.334 5.55556C21.3444 6.399 22.0276 7.56965 22.2648 8.86426C22.2648 8.86988 22.2648 8.87551 22.2648 8.88113L23.7995 16.7721C23.8 16.7764 23.8 16.7808 23.7995 16.7852C23.8789 17.2213 23.871 17.6689 23.7763 18.1019C23.6815 18.535 23.5017 18.9449 23.2473 19.308ZM16.7336 13.9971C17.8276 13.9971 18.8768 13.5625 19.6504 12.7889C20.424 12.0153 20.8586 10.9661 20.8586 9.87207C20.8586 8.77805 20.424 7.72884 19.6504 6.95525C18.8768 6.18167 17.8276 5.74707 16.7336 5.74707H8.47327C7.50479 5.74794 6.56763 6.09032 5.82668 6.71398C5.08573 7.33764 4.58845 8.20263 4.42233 9.15676V9.16895L2.88671 17.0524C2.81883 17.4432 2.87666 17.8455 3.05188 18.2014C3.22709 18.5573 3.51067 18.8484 3.86182 19.033C4.21297 19.2175 4.6136 19.2859 5.00608 19.2284C5.39857 19.1708 5.7627 18.9903 6.04608 18.7127L9.97608 14.2511C10.0465 14.1713 10.133 14.1074 10.23 14.0636C10.327 14.0198 10.4322 13.9971 10.5386 13.9971H16.7336ZM22.3305 17.0524L21.5111 12.8336C21.0071 13.6474 20.3039 14.3191 19.4679 14.7852C18.6319 15.2512 17.6907 15.4963 16.7336 15.4971H16.3398L19.1711 18.7136C19.3846 18.9213 19.6442 19.0753 19.9287 19.1632C20.2133 19.251 20.5146 19.2701 20.808 19.2189C21.2967 19.1327 21.7312 18.8562 22.0165 18.4501C22.3017 18.044 22.4142 17.5414 22.3295 17.0524H22.3305Z" fill="#FBFBFB" fill-opacity="0.6"/>
</g>
</svg>
