<svg width="24" height="24" viewBox="0 0 24 24" fill="none" xmlns="http://www.w3.org/2000/svg">
<g clip-path="url(#clip0_9329_10926)">
<path d="M12.3 4.8C12.797 4.8 13.2 4.39705 13.2 3.9C13.2 3.40295 12.797 3 12.3 3V4.8ZM21.6 12.3C21.6 11.803 21.197 11.4 20.7 11.4C20.203 11.4 19.8 11.803 19.8 12.3H21.6ZM20.7 4.8C21.197 4.8 21.6 4.39705 21.6 3.9C21.6 3.40295 21.197 3 20.7 3V4.8ZM15.7944 3C15.2974 3 14.8944 3.40295 14.8944 3.9C14.8944 4.39705 15.2974 4.8 15.7944 4.8V3ZM21.6 3.9C21.6 3.40295 21.197 3 20.7 3C20.203 3 19.8 3.40295 19.8 3.9H21.6ZM19.8 8.8692C19.8 9.36624 20.203 9.7692 20.7 9.7692C21.197 9.7692 21.6 9.36624 21.6 8.8692H19.8ZM21.3364 4.5364C21.6878 4.18493 21.6878 3.61507 21.3364 3.2636C20.9849 2.91214 20.4151 2.91214 20.0636 3.2636L21.3364 4.5364ZM11.6636 11.6636C11.3122 12.0151 11.3122 12.5849 11.6636 12.9364C12.0151 13.2878 12.5849 13.2878 12.9364 12.9364L11.6636 11.6636ZM12.3 3H8.7V4.8H12.3V3ZM8.7 3C5.55198 3 3 5.55198 3 8.7H4.8C4.8 6.54608 6.54608 4.8 8.7 4.8V3ZM3 8.7V15.9H4.8V8.7H3ZM3 15.9C3 19.0481 5.55198 21.6 8.7 21.6V19.8C6.54608 19.8 4.8 18.0539 4.8 15.9H3ZM8.7 21.6H15.9V19.8H8.7V21.6ZM15.9 21.6C19.0481 21.6 21.6 19.0481 21.6 15.9H19.8C19.8 18.0539 18.0539 19.8 15.9 19.8V21.6ZM21.6 15.9V12.3H19.8V15.9H21.6ZM20.7 3H15.7944V4.8H20.7V3ZM19.8 3.9V8.8692H21.6V3.9H19.8ZM20.0636 3.2636L11.6636 11.6636L12.9364 12.9364L21.3364 4.5364L20.0636 3.2636Z" fill="url(#paint0_linear_9329_10926)"/>
</g>
<defs>
<linearGradient id="paint0_linear_9329_10926" x1="12.3497" y1="3" x2="12.3497" y2="21.6" gradientUnits="userSpaceOnUse">
<stop stop-color="#10F3B2"/>
<stop offset="1" stop-color="#00B581"/>
</linearGradient>
<clipPath id="clip0_9329_10926">
<rect width="24" height="24" fill="white"/>
</clipPath>
</defs>
</svg>
