<svg width="33" height="32" viewBox="0 0 33 32" fill="none" xmlns="http://www.w3.org/2000/svg">
<path d="M27.5 8H7.5C7.23478 8 6.98043 7.89464 6.79289 7.70711C6.60536 7.51957 6.5 7.26522 6.5 7C6.5 6.73478 6.60536 6.48043 6.79289 6.29289C6.98043 6.10536 7.23478 6 7.5 6H24.5C24.7652 6 25.0196 5.89464 25.2071 5.70711C25.3946 5.51957 25.5 5.26522 25.5 5C25.5 4.73478 25.3946 4.48043 25.2071 4.29289C25.0196 4.10536 24.7652 4 24.5 4H7.5C6.70435 4 5.94129 4.31607 5.37868 4.87868C4.81607 5.44129 4.5 6.20435 4.5 7V23C4.5 23.7956 4.81607 24.5587 5.37868 25.1213C5.94129 25.6839 6.70435 26 7.5 26H27.5C28.0304 26 28.5391 25.7893 28.9142 25.4142C29.2893 25.0391 29.5 24.5304 29.5 24V10C29.5 9.46957 29.2893 8.96086 28.9142 8.58579C28.5391 8.21071 28.0304 8 27.5 8ZM27.5 24H7.5C7.23478 24 6.98043 23.8946 6.79289 23.7071C6.60536 23.5196 6.5 23.2652 6.5 23V9.82875C6.82109 9.94257 7.15933 10.0005 7.5 10H27.5V24ZM21.5 16.5C21.5 16.2033 21.588 15.9133 21.7528 15.6666C21.9176 15.42 22.1519 15.2277 22.426 15.1142C22.7001 15.0006 23.0017 14.9709 23.2926 15.0288C23.5836 15.0867 23.8509 15.2296 24.0607 15.4393C24.2704 15.6491 24.4133 15.9164 24.4712 16.2074C24.5291 16.4983 24.4993 16.7999 24.3858 17.074C24.2723 17.3481 24.08 17.5824 23.8334 17.7472C23.5867 17.912 23.2967 18 23 18C22.6022 18 22.2206 17.842 21.9393 17.5607C21.658 17.2794 21.5 16.8978 21.5 16.5Z" fill="url(#paint0_linear_10708_816)"/>
<defs>
<linearGradient id="paint0_linear_10708_816" x1="4.5" y1="15" x2="29.5" y2="15" gradientUnits="userSpaceOnUse">
<stop stop-color="#4BA790"/>
<stop offset="0.503103" stop-color="#FBFBFB" stop-opacity="0.6"/>
<stop offset="1" stop-color="#9747FF"/>
</linearGradient>
</defs>
</svg>
