<svg width="24" height="24" viewBox="0 0 24 24" fill="none" xmlns="http://www.w3.org/2000/svg">
<g id="circle">
<g id="Group 3">
<path id="Path 1" d="M4.98725 11.4074C4.98728 11.2732 5.01376 11.1403 5.06518 11.0164C5.11661 10.8924 5.19196 10.7799 5.2869 10.6852C5.38185 10.5906 5.49453 10.5156 5.61847 10.4647C5.7424 10.4138 5.87516 10.3879 6.00911 10.3885L7.70324 10.3941C7.97337 10.3941 8.23242 10.5016 8.42343 10.6929C8.61444 10.8843 8.72174 11.1439 8.72174 11.4145V17.833C8.91255 17.7764 9.15674 17.716 9.42545 17.6526C9.61162 17.6087 9.77754 17.5031 9.8963 17.3529C10.0151 17.2027 10.0797 17.0167 10.0797 16.8251V8.86392C10.0797 8.59327 10.187 8.3337 10.378 8.1423C10.569 7.9509 10.8281 7.84335 11.0982 7.8433H12.7975C13.0677 7.84335 13.3267 7.9509 13.5177 8.1423C13.7087 8.3337 13.816 8.59327 13.816 8.86392V16.2532C13.816 16.2532 14.2411 16.0808 14.655 15.9057C14.8088 15.8405 14.94 15.7314 15.0323 15.592C15.1246 15.4526 15.1739 15.2891 15.174 15.1218V6.31275C15.174 6.04215 15.2813 5.78263 15.4722 5.59127C15.6632 5.39991 15.9222 5.29238 16.1923 5.29233H17.8898C18.1598 5.29259 18.4186 5.40022 18.6093 5.59155C18.8001 5.78289 18.9073 6.04229 18.9073 6.31275V13.5667C20.379 12.4981 21.8705 11.2128 23.0541 9.66743C23.2258 9.4431 23.3394 9.17968 23.3848 8.90066C23.4302 8.62164 23.406 8.3357 23.3143 8.06834C22.7664 6.48909 21.8955 5.04182 20.7573 3.81914C19.6191 2.59647 18.2387 1.62531 16.7043 0.967818C15.17 0.310326 13.5156 -0.0190233 11.8469 0.000848568C10.1783 0.0207204 8.53216 0.389374 7.01387 1.08322C5.49559 1.77707 4.13859 2.78082 3.02972 4.03026C1.92084 5.2797 1.08452 6.7473 0.574248 8.33915C0.0639805 9.93101 -0.108988 11.6121 0.066411 13.2747C0.24181 14.9374 0.761713 16.5451 1.59285 17.9949C1.73765 18.245 1.95069 18.4485 2.20694 18.5815C2.46318 18.7145 2.75199 18.7715 3.03943 18.7457C3.36054 18.7174 3.76035 18.6773 4.23569 18.6215C4.44256 18.5979 4.63356 18.4989 4.7723 18.3434C4.91103 18.1878 4.98782 17.9866 4.98804 17.778V11.4074" fill="#999999"/>
<path id="Path 2" d="M4.95117 21.701C6.74046 23.0051 8.85496 23.7879 11.0607 23.9628C13.2665 24.1376 15.4776 23.6977 17.4493 22.6917C19.421 21.6857 21.0765 20.1528 22.2327 18.2626C23.3888 16.3725 24.0005 14.1987 24.0001 11.9818C24.0001 11.7045 23.9872 11.4315 23.9689 11.1593C19.5866 17.7076 11.4952 20.7689 4.95117 21.701" fill="#999999"/>
</g>
</g>
</svg>
