<svg width="25" height="25" viewBox="0 0 25 25" fill="none" xmlns="http://www.w3.org/2000/svg">
<g id="Frame">
<path id="Vector" d="M12.6816 2.75293C10.7533 2.75293 8.86821 3.32476 7.26483 4.3961C5.66145 5.46744 4.41177 6.99019 3.67382 8.77177C2.93586 10.5533 2.74278 12.5137 3.11898 14.4051C3.49519 16.2964 4.42379 18.0337 5.78735 19.3972C7.15091 20.7608 8.8882 21.6894 10.7795 22.0656C12.6708 22.4418 14.6312 22.2487 16.4128 21.5108C18.1944 20.7728 19.7171 19.5231 20.7885 17.9197C21.8598 16.3164 22.4316 14.4313 22.4316 12.5029C22.4289 9.91791 21.4008 7.43954 19.5729 5.61165C17.745 3.78377 15.2667 2.75566 12.6816 2.75293ZM12.6816 20.7529C11.0499 20.7529 9.45489 20.2691 8.09819 19.3626C6.74148 18.456 5.68406 17.1676 5.05963 15.6601C4.43521 14.1526 4.27183 12.4938 4.59016 10.8934C4.90849 9.29309 5.69423 7.82308 6.84801 6.6693C8.00179 5.51552 9.4718 4.72978 11.0721 4.41145C12.6725 4.09312 14.3313 4.2565 15.8388 4.88092C17.3463 5.50535 18.6347 6.56277 19.5413 7.91948C20.4478 9.27618 20.9316 10.8712 20.9316 12.5029C20.9292 14.6902 20.0592 16.7872 18.5125 18.3338C16.9659 19.8805 14.8689 20.7504 12.6816 20.7529ZM16.4316 14.3779C16.4316 15.0741 16.1551 15.7418 15.6628 16.2341C15.1705 16.7264 14.5028 17.0029 13.8066 17.0029H13.4316V17.7529C13.4316 17.9518 13.3526 18.1426 13.212 18.2833C13.0713 18.4239 12.8806 18.5029 12.6816 18.5029C12.4827 18.5029 12.292 18.4239 12.1513 18.2833C12.0107 18.1426 11.9316 17.9518 11.9316 17.7529V17.0029H10.4316C10.2327 17.0029 10.042 16.9239 9.90131 16.7833C9.76066 16.6426 9.68164 16.4518 9.68164 16.2529C9.68164 16.054 9.76066 15.8633 9.90131 15.7226C10.042 15.5819 10.2327 15.5029 10.4316 15.5029H13.8066C14.105 15.5029 14.3912 15.3844 14.6021 15.1734C14.8131 14.9624 14.9316 14.6763 14.9316 14.3779C14.9316 14.0796 14.8131 13.7934 14.6021 13.5824C14.3912 13.3715 14.105 13.2529 13.8066 13.2529H11.5566C10.8604 13.2529 10.1928 12.9764 9.70049 12.4841C9.2082 11.9918 8.93164 11.3241 8.93164 10.6279C8.93164 9.93174 9.2082 9.26406 9.70049 8.77177C10.1928 8.27949 10.8604 8.00293 11.5566 8.00293H11.9316V7.25293C11.9316 7.05402 12.0107 6.86325 12.1513 6.7226C12.292 6.58195 12.4827 6.50293 12.6816 6.50293C12.8806 6.50293 13.0713 6.58195 13.212 6.7226C13.3526 6.86325 13.4316 7.05402 13.4316 7.25293V8.00293H14.9316C15.1306 8.00293 15.3213 8.08195 15.462 8.2226C15.6026 8.36325 15.6816 8.55402 15.6816 8.75293C15.6816 8.95184 15.6026 9.14261 15.462 9.28326C15.3213 9.42391 15.1306 9.50293 14.9316 9.50293H11.5566C11.2583 9.50293 10.9721 9.62146 10.7611 9.83243C10.5502 10.0434 10.4316 10.3296 10.4316 10.6279C10.4316 10.9263 10.5502 11.2124 10.7611 11.4234C10.9721 11.6344 11.2583 11.7529 11.5566 11.7529H13.8066C14.5028 11.7529 15.1705 12.0295 15.6628 12.5218C16.1551 13.0141 16.4316 13.6817 16.4316 14.3779Z" fill="white"/>
</g>
</svg>
