<svg width="24" height="24" viewBox="0 0 24 24" fill="none" xmlns="http://www.w3.org/2000/svg">
<g id="Frame">
<path id="Vector" d="M22.1625 6.6234L12.2062 3.77903C12.1049 3.74997 11.9985 3.74262 11.8941 3.75746L2.03813 5.16559C1.68127 5.21808 1.35506 5.39677 1.11871 5.66924C0.882364 5.94172 0.751544 6.2899 0.75 6.65059V17.3493C0.751544 17.71 0.882364 18.0582 1.11871 18.3307C1.35506 18.6032 1.68127 18.7819 2.03813 18.8343L11.8941 20.2406C11.9291 20.2461 11.9645 20.2492 12 20.25C12.0698 20.2501 12.1392 20.2403 12.2062 20.2209L22.1625 17.3765C22.4748 17.2861 22.7494 17.0971 22.9454 16.8377C23.1414 16.5784 23.2483 16.2626 23.25 15.9375V8.06246C23.2483 7.73737 23.1414 7.42156 22.9454 7.1622C22.7494 6.90283 22.4748 6.71383 22.1625 6.6234ZM6 11.25H4.5C4.30109 11.25 4.11032 11.329 3.96967 11.4696C3.82902 11.6103 3.75 11.8011 3.75 12C3.75 12.1989 3.82902 12.3896 3.96967 12.5303C4.11032 12.6709 4.30109 12.75 4.5 12.75H6V17.8856L2.25 17.3493V6.65059L6 6.11434V11.25ZM11.25 18.6356L7.5 18.0993V12.75H9C9.19891 12.75 9.38968 12.6709 9.53033 12.5303C9.67098 12.3896 9.75 12.1989 9.75 12C9.75 11.8011 9.67098 11.6103 9.53033 11.4696C9.38968 11.329 9.19891 11.25 9 11.25H7.5V5.90059L11.25 5.36434V18.6356Z" fill="url(#paint0_linear_9854_503)"/>
</g>
<defs>
<linearGradient id="paint0_linear_9854_503" x1="0.75" y1="12" x2="23.25" y2="12" gradientUnits="userSpaceOnUse">
<stop stop-color="#4BA790"/>
<stop offset="0.503103" stop-color="#FBFBFB" stop-opacity="0.6"/>
<stop offset="1" stop-color="#9747FF"/>
</linearGradient>
</defs>
</svg>
