<svg width="32" height="33" viewBox="0 0 32 33" fill="none" xmlns="http://www.w3.org/2000/svg">
<path d="M27 8.5H7C6.73478 8.5 6.48043 8.39464 6.29289 8.20711C6.10536 8.01957 6 7.76522 6 7.5C6 7.23478 6.10536 6.98043 6.29289 6.79289C6.48043 6.60536 6.73478 6.5 7 6.5H24C24.2652 6.5 24.5196 6.39464 24.7071 6.20711C24.8946 6.01957 25 5.76522 25 5.5C25 5.23478 24.8946 4.98043 24.7071 4.79289C24.5196 4.60536 24.2652 4.5 24 4.5H7C6.20435 4.5 5.44129 4.81607 4.87868 5.37868C4.31607 5.94129 4 6.70435 4 7.5V23.5C4 24.2956 4.31607 25.0587 4.87868 25.6213C5.44129 26.1839 6.20435 26.5 7 26.5H27C27.5304 26.5 28.0391 26.2893 28.4142 25.9142C28.7893 25.5391 29 25.0304 29 24.5V10.5C29 9.96957 28.7893 9.46086 28.4142 9.08579C28.0391 8.71071 27.5304 8.5 27 8.5ZM27 24.5H7C6.73478 24.5 6.48043 24.3946 6.29289 24.2071C6.10536 24.0196 6 23.7652 6 23.5V10.3287C6.32109 10.4426 6.65933 10.5005 7 10.5H27V24.5ZM21 17C21 16.7033 21.088 16.4133 21.2528 16.1666C21.4176 15.92 21.6519 15.7277 21.926 15.6142C22.2001 15.5006 22.5017 15.4709 22.7926 15.5288C23.0836 15.5867 23.3509 15.7296 23.5607 15.9393C23.7704 16.1491 23.9133 16.4164 23.9712 16.7074C24.0291 16.9983 23.9993 17.2999 23.8858 17.574C23.7723 17.8481 23.58 18.0824 23.3334 18.2472C23.0867 18.412 22.7967 18.5 22.5 18.5C22.1022 18.5 21.7206 18.342 21.4393 18.0607C21.158 17.7794 21 17.3978 21 17Z" fill="white"/>
</svg>
