<svg width="19" height="18" viewBox="0 0 19 18" fill="none" xmlns="http://www.w3.org/2000/svg">
<g id="Frame">
<path id="Vector" d="M9.64134 1.82031C8.22391 1.82031 6.83831 2.24063 5.65975 3.02811C4.4812 3.8156 3.56263 4.93488 3.0202 6.24441C2.47778 7.55395 2.33585 8.99493 2.61238 10.3851C2.88891 11.7753 3.57147 13.0523 4.57374 14.0546C5.57602 15.0569 6.853 15.7394 8.24319 16.0159C9.63339 16.2925 11.0744 16.1505 12.3839 15.6081C13.6934 15.0657 14.8127 14.1471 15.6002 12.9686C16.3877 11.79 16.808 10.4044 16.808 8.98698C16.806 7.08688 16.0503 5.26517 14.7067 3.9216C13.3631 2.57802 11.5414 1.82232 9.64134 1.82031ZM9.3657 5.128C9.52925 5.128 9.68913 5.1765 9.82511 5.26737C9.9611 5.35823 10.0671 5.48738 10.1297 5.63848C10.1923 5.78958 10.2086 5.95585 10.1767 6.11625C10.1448 6.27666 10.0661 6.424 9.95042 6.53965C9.83477 6.6553 9.68743 6.73406 9.52702 6.76596C9.36662 6.79787 9.20035 6.78149 9.04925 6.71891C8.89815 6.65632 8.769 6.55033 8.67814 6.41434C8.58727 6.27835 8.53878 6.11848 8.53878 5.95493C8.53878 5.73561 8.6259 5.52528 8.78098 5.3702C8.93605 5.21513 9.14639 5.128 9.3657 5.128ZM10.1926 12.846C9.9002 12.846 9.61976 12.7298 9.41299 12.523C9.20622 12.3162 9.09006 12.0358 9.09006 11.7434V8.98698C8.94385 8.98698 8.80363 8.9289 8.70024 8.82551C8.59686 8.72213 8.53878 8.58191 8.53878 8.4357C8.53878 8.28949 8.59686 8.14927 8.70024 8.04588C8.80363 7.9425 8.94385 7.88442 9.09006 7.88442C9.38248 7.88442 9.66292 8.00058 9.86969 8.20735C10.0765 8.41412 10.1926 8.69456 10.1926 8.98698V11.7434C10.3388 11.7434 10.4791 11.8015 10.5824 11.9049C10.6858 12.0082 10.7439 12.1485 10.7439 12.2947C10.7439 12.4409 10.6858 12.5811 10.5824 12.6845C10.4791 12.7879 10.3388 12.846 10.1926 12.846Z" fill="#FBFBFB" fill-opacity="0.6"/>
</g>
</svg>
