<svg width="36" height="36" viewBox="0 0 36 36" fill="none" xmlns="http://www.w3.org/2000/svg">
<g id="owlto">
<g clip-path="url(#clip0_5387_1436)">
<path id="Vector" d="M36.0489 0H-0.0491943V36.0981H36.0489V0Z" fill="#F3C331"/>
<g id="Group">
<g id="Group_2">
<path id="Vector_2" d="M11.1477 15.6519C10.2915 15.6542 9.71 16.23 9.71438 17.071C9.71876 17.8809 10.3491 18.5092 11.1577 18.5089C11.9648 18.5087 12.5746 17.8786 12.5712 17.0483C12.5679 16.2166 11.99 15.6495 11.1477 15.6519Z" fill="black"/>
<path id="Vector_3" d="M26.2595 16.6919C26.116 16.1615 25.7135 15.7868 25.2248 15.666C25.4012 15.8218 25.5358 16.0288 25.602 16.273C25.7818 16.9368 25.3893 17.6205 24.7257 17.8003C24.2758 17.9221 23.8175 17.7804 23.5123 17.4704C23.7428 18.2558 24.4296 18.6485 25.2191 18.4381C26.0213 18.2244 26.4701 17.4712 26.2595 16.6919Z" fill="black"/>
</g>
<path id="Vector_4" d="M30.7633 13.3981C31.8626 13.1965 32.6686 12.7441 32.6686 12.7441L28.7985 10.0889L28.9648 11.3664H24.8125V11.3672C24.804 11.3672 24.7957 11.3666 24.7875 11.3666C21.632 11.3666 19.0736 13.9247 19.0736 17.0805C19.0736 18.382 19.5096 19.581 20.2419 20.5415L18.0034 22.796L18.0026 22.7968L18.0018 22.796L15.7139 20.5085C16.431 19.5537 16.8562 18.3668 16.8562 17.0805C16.8562 13.9399 14.322 11.3919 11.1871 11.3679V11.3669H7.03471L7.20106 10.0894L3.33093 12.7446C3.33093 12.7446 4.1372 13.197 5.23625 13.3987C5.71265 13.4862 5.95909 13.4813 6.20192 13.4878C6.33814 13.4914 6.50578 13.4942 6.69377 13.4968C5.90295 14.4771 5.42861 15.7232 5.42861 17.0808C5.42861 20.2363 7.98673 22.7947 11.1425 22.7947C12.2086 22.7947 13.2062 22.5019 14.0604 21.9933L16.4864 24.4193L18.0018 25.9335L18.0026 25.9327L18.0034 25.9335L19.5178 24.4193L21.6142 22.3229L21.9168 22.0204C22.7604 22.5117 23.7407 22.7947 24.7875 22.7947C27.943 22.7947 30.5014 20.2366 30.5014 17.0808C30.5014 15.7237 30.0273 14.4779 29.237 13.4975C29.4539 13.4947 29.6447 13.4916 29.7979 13.4875C30.0407 13.4813 30.2872 13.4859 30.7636 13.3984L30.7633 13.3981ZM7.57162 17.0803C7.57162 15.1096 9.16793 13.512 11.1379 13.5094C11.1407 13.5094 11.1443 13.5094 11.1469 13.5094C13.1174 13.5117 14.7139 15.1096 14.7139 17.0803C14.7139 19.051 13.1151 20.6514 11.1428 20.6514C9.1705 20.6514 7.57162 19.0526 7.57162 17.0803ZM24.7872 20.6514C22.815 20.6514 21.2161 19.0526 21.2161 17.0803C21.2161 15.108 22.815 13.5091 24.7872 13.5091C26.7595 13.5091 28.3584 15.108 28.3584 17.0803C28.3584 19.0526 26.7595 20.6514 24.7872 20.6514Z" fill="black"/>
</g>
</g>
</g>
<defs>
<clipPath id="clip0_5387_1436">
<rect width="36" height="36" rx="18" fill="white"/>
</clipPath>
</defs>
</svg>
