<svg width="18" height="18" viewBox="0 0 18 18" fill="none" xmlns="http://www.w3.org/2000/svg">
<g clip-path="url(#clip0_9329_10805)">
<path d="M9 18C13.9705 18 18 13.9705 18 9C18 4.02943 13.9705 0 9 0C4.02943 0 0 4.02943 0 9C0 13.9705 4.02943 18 9 18Z" fill="#03D498"/>
<path d="M7.13618 12.1855C7.2767 12.326 7.46749 12.4064 7.66841 12.4064C7.86932 12.4064 8.06012 12.326 8.20064 12.1855L13.5163 6.86985C13.8077 6.57845 13.8077 6.09679 13.5163 5.80539C13.2249 5.51399 12.7432 5.51399 12.4518 5.80539L7.66841 10.5888L5.54746 8.46789C5.25606 8.17649 4.77441 8.17649 4.483 8.46789C4.1916 8.75929 4.1916 9.24095 4.483 9.53235L7.13618 12.1855Z" fill="#030D19" stroke="#030D19" stroke-width="0.1"/>
</g>
<defs>
<clipPath id="clip0_9329_10805">
<rect width="18" height="18" fill="white"/>
</clipPath>
</defs>
</svg>
