<svg width="25" height="25" viewBox="0 0 25 25" fill="none" xmlns="http://www.w3.org/2000/svg">
<g id="Frame">
<path id="Vector" opacity="0.6" d="M19.1341 12.5964L14.2984 10.8096L12.5172 5.9702C12.4117 5.68363 12.2208 5.43631 11.9704 5.26162C11.7199 5.08693 11.4219 4.99326 11.1166 4.99326C10.8112 4.99326 10.5132 5.08693 10.2627 5.26162C10.0123 5.43631 9.82141 5.68363 9.71593 5.9702L7.92343 10.8096L3.08405 12.5908C2.79749 12.6963 2.55017 12.8871 2.37548 13.1376C2.20078 13.3881 2.10712 13.6861 2.10712 13.9914C2.10712 14.2968 2.20078 14.5948 2.37548 14.8453C2.55017 15.0957 2.79749 15.2866 3.08405 15.3921L7.92343 17.1846L9.70468 22.0239C9.81016 22.3105 10.001 22.5578 10.2515 22.7325C10.5019 22.9072 10.7999 23.0009 11.1053 23.0009C11.4107 23.0009 11.7087 22.9072 11.9591 22.7325C12.2096 22.5578 12.4004 22.3105 12.5059 22.0239L14.2984 17.1846L19.1378 15.4033C19.4244 15.2978 19.6717 15.107 19.8464 14.8565C20.0211 14.6061 20.1147 14.3081 20.1147 14.0027C20.1147 13.6973 20.0211 13.3993 19.8464 13.1489C19.6717 12.8984 19.4244 12.7076 19.1378 12.6021L19.1341 12.5964ZM13.4547 15.8927C13.3529 15.9302 13.2604 15.9894 13.1837 16.0661C13.107 16.1428 13.0478 16.2353 13.0103 16.3371L11.1109 21.483L9.2153 16.3408C9.17784 16.2379 9.11831 16.1445 9.0409 16.0671C8.96348 15.9897 8.87005 15.9302 8.76718 15.8927L3.62499 13.9971L8.76718 12.1014C8.87005 12.064 8.96348 12.0045 9.0409 11.927C9.11831 11.8496 9.17784 11.7562 9.2153 11.6533L11.1109 6.51113L13.0066 11.6533C13.0441 11.7551 13.1032 11.8476 13.18 11.9243C13.2567 12.001 13.3491 12.0602 13.4509 12.0977L18.5969 13.9971L13.4547 15.8927ZM14.1109 4.24707C14.1109 4.04816 14.1899 3.85739 14.3306 3.71674C14.4712 3.57609 14.662 3.49707 14.8609 3.49707H16.3609V1.99707C16.3609 1.79816 16.4399 1.60739 16.5806 1.46674C16.7212 1.32609 16.912 1.24707 17.1109 1.24707C17.3098 1.24707 17.5006 1.32609 17.6413 1.46674C17.7819 1.60739 17.8609 1.79816 17.8609 1.99707V3.49707H19.3609C19.5598 3.49707 19.7506 3.57609 19.8913 3.71674C20.0319 3.85739 20.1109 4.04816 20.1109 4.24707C20.1109 4.44598 20.0319 4.63675 19.8913 4.7774C19.7506 4.91805 19.5598 4.99707 19.3609 4.99707H17.8609V6.49707C17.8609 6.69598 17.7819 6.88675 17.6413 7.0274C17.5006 7.16805 17.3098 7.24707 17.1109 7.24707C16.912 7.24707 16.7212 7.16805 16.5806 7.0274C16.4399 6.88675 16.3609 6.69598 16.3609 6.49707V4.99707H14.8609C14.662 4.99707 14.4712 4.91805 14.3306 4.7774C14.1899 4.63675 14.1109 4.44598 14.1109 4.24707ZM23.8609 8.74707C23.8609 8.94598 23.7819 9.13675 23.6413 9.2774C23.5006 9.41805 23.3098 9.49707 23.1109 9.49707H22.3609V10.2471C22.3609 10.446 22.2819 10.6367 22.1413 10.7774C22.0006 10.9181 21.8098 10.9971 21.6109 10.9971C21.412 10.9971 21.2212 10.9181 21.0806 10.7774C20.9399 10.6367 20.8609 10.446 20.8609 10.2471V9.49707H20.1109C19.912 9.49707 19.7212 9.41805 19.5806 9.2774C19.4399 9.13675 19.3609 8.94598 19.3609 8.74707C19.3609 8.54816 19.4399 8.35739 19.5806 8.21674C19.7212 8.07609 19.912 7.99707 20.1109 7.99707H20.8609V7.24707C20.8609 7.04816 20.9399 6.85739 21.0806 6.71674C21.2212 6.57609 21.412 6.49707 21.6109 6.49707C21.8098 6.49707 22.0006 6.57609 22.1413 6.71674C22.2819 6.85739 22.3609 7.04816 22.3609 7.24707V7.99707H23.1109C23.3098 7.99707 23.5006 8.07609 23.6413 8.21674C23.7819 8.35739 23.8609 8.54816 23.8609 8.74707Z" fill="#FBFBFB" fill-opacity="0.6"/>
</g>
</svg>
