<svg width="26" height="26" viewBox="0 0 26 26" fill="none" xmlns="http://www.w3.org/2000/svg">
<g id="Wallet">
<g id="Group 5">
<path id="Vector" d="M6.5 8.66669H10.8333" stroke="#030D19" stroke-width="1.625" stroke-linecap="round" stroke-linejoin="round"/>
<path id="Vector_2" d="M22.5694 9.75H19.75C17.817 9.75 16.25 11.205 16.25 13C16.25 14.795 17.817 16.25 19.75 16.25H22.5694C22.6598 16.25 22.7048 16.25 22.743 16.2477C23.3272 16.2121 23.7925 15.7801 23.8308 15.2375C23.8333 15.2021 23.8333 15.1602 23.8333 15.0764V10.9236C23.8333 10.8398 23.8333 10.7979 23.8308 10.7625C23.7925 10.22 23.3272 9.78787 22.743 9.75232C22.7048 9.75 22.6598 9.75 22.5694 9.75Z" stroke="#030D19" stroke-width="1.625"/>
<path id="Vector_3" d="M22.712 9.74998C22.6279 7.72165 22.3563 6.47804 21.4807 5.60251C20.2116 4.33331 18.1688 4.33331 14.0833 4.33331H10.8333C6.74778 4.33331 4.70504 4.33331 3.43583 5.60251C2.16663 6.87173 2.16663 8.91447 2.16663 13C2.16663 17.0854 2.16663 19.1283 3.43583 20.3974C4.70504 21.6666 6.74778 21.6666 10.8333 21.6666H14.0833C18.1688 21.6666 20.2116 21.6666 21.4807 20.3974C22.3563 19.522 22.6279 18.2783 22.712 16.25" stroke="#030D19" stroke-width="1.625"/>
<path id="Vector_4" d="M19.4905 13H19.5002" stroke="#030D19" stroke-width="2.16667" stroke-linecap="round" stroke-linejoin="round"/>
</g>
</g>
</svg>
