<svg width="48" height="48" viewBox="0 0 48 48" fill="none" xmlns="http://www.w3.org/2000/svg">
<g filter="url(#filter0_d_9743_7041)">
<rect x="8" y="4" width="32" height="32" rx="16" fill="url(#paint0_linear_9743_7041)" fill-opacity="0.3" shape-rendering="crispEdges"/>
<rect x="8.5" y="4.5" width="31" height="31" rx="15.5" stroke="url(#paint1_radial_9743_7041)" shape-rendering="crispEdges"/>
<rect x="8.5" y="4.5" width="31" height="31" rx="15.5" stroke="url(#paint2_radial_9743_7041)" shape-rendering="crispEdges"/>
<path fill-rule="evenodd" clip-rule="evenodd" d="M22.0375 12.1597C21.9848 11.8282 22.4227 11.6942 22.543 12.005L22.7776 12.611C22.7849 12.6299 22.7905 12.6491 22.7944 12.6683C23.357 12.5237 23.9238 12.4509 24.4851 12.4453C24.4845 12.4255 24.4855 12.4053 24.4883 12.385L24.5778 11.738C24.6238 11.4054 25.0791 11.4222 25.1034 11.7574L25.1508 12.4094C25.1522 12.43 25.152 12.4502 25.1501 12.47C25.7209 12.5183 26.2818 12.6356 26.8223 12.8169C26.8274 12.7979 26.8343 12.7791 26.8429 12.7606L27.1161 12.1737C27.2562 11.8725 27.6844 12.0384 27.6103 12.3652L27.466 13.0022C27.4615 13.0222 27.4554 13.0413 27.448 13.0594C27.9731 13.2911 28.4737 13.5855 28.9389 13.9374C28.9491 13.9217 28.9607 13.9066 28.9738 13.8923L29.4038 13.4241C29.6244 13.1838 29.9835 13.4827 29.8183 13.7691L29.4965 14.3273C29.4869 14.3439 29.4762 14.3593 29.4646 14.3734C29.9373 14.8025 30.3638 15.2968 30.7304 15.85C30.7295 15.7967 30.7292 15.7438 30.7289 15.6918V15.6915L30.7289 15.6823C30.7278 15.4171 30.9528 15.2132 31.2078 15.1752C31.3297 15.1579 31.4535 15.1843 31.5598 15.2501C31.6661 15.3159 31.7489 15.4175 31.7953 15.5388C31.9405 15.9324 31.965 16.3648 31.8653 16.7741C31.8572 16.8109 31.8477 16.8477 31.8368 16.8894V16.8896L31.8368 16.8898L31.8365 16.8906L31.8364 16.891L31.8364 16.8913L31.8357 16.8938C31.8319 16.9085 31.8279 16.9238 31.8238 16.9399C32.1966 17.1638 32.4888 17.5136 32.6546 17.934C32.7878 18.2726 32.6614 18.6184 32.3679 18.7557C32.2166 18.8249 32.0686 18.8067 31.933 18.731C32.0528 19.2937 32.1138 19.8597 32.1192 20.4206C32.135 20.4205 32.151 20.4217 32.1671 20.4242L32.774 20.5196C33.086 20.5687 33.0703 21.0539 32.7558 21.0799L32.1441 21.1303C32.128 21.1316 32.1122 21.1317 32.0966 21.1305C32.0518 21.7397 31.9421 22.3385 31.7721 22.9154C31.7864 22.9205 31.8007 22.9267 31.8146 22.934L32.3652 23.2252C32.6478 23.3747 32.4921 23.831 32.1855 23.7521L31.5881 23.5983C31.573 23.5944 31.5585 23.5895 31.5446 23.5835C31.3271 24.1444 31.0506 24.6788 30.72 25.1755C30.7315 25.1846 30.7424 25.1945 30.7529 25.2055L31.1921 25.6638C31.4176 25.8989 31.1373 26.2817 30.8685 26.1056L30.3449 25.7626C30.3327 25.7546 30.3212 25.7459 30.3105 25.7366C29.9441 26.1953 29.5269 26.6132 29.0636 26.9792C29.0714 26.9912 29.0787 27.0039 29.0852 27.0172L29.3696 27.5966C29.5157 27.8945 29.1381 28.1662 28.9337 27.9102L28.5359 27.4124C28.5267 27.4009 28.5184 27.389 28.5109 27.3766C28.1193 27.6319 27.7004 27.8527 27.2561 28.0337C27.1589 28.0733 27.0614 28.1105 26.9637 28.1456C26.9676 28.1594 26.9708 28.1736 26.9731 28.1882L27.0758 28.8344C27.1285 29.1659 26.6906 29.2999 26.5703 28.9891L26.3357 28.3832C26.3306 28.3698 26.3262 28.3563 26.3227 28.3427C25.7588 28.4878 25.1908 28.5609 24.6283 28.5664C24.6281 28.5806 24.6269 28.5949 24.625 28.6093L24.5355 29.2561C24.4895 29.5888 24.0342 29.572 24.0099 29.2367L23.9626 28.5849C23.9615 28.5702 23.9613 28.5557 23.962 28.5414C23.39 28.4929 22.828 28.3749 22.2864 28.1927C22.282 28.2065 22.2766 28.2202 22.2703 28.2337L21.9972 28.8205C21.8571 29.1217 21.4289 28.9557 21.5029 28.6289L21.6472 27.9921C21.6506 27.9773 21.6548 27.9629 21.6598 27.9492C21.1339 27.7164 20.6327 27.4208 20.167 27.0676C20.1587 27.0794 20.1495 27.0909 20.1394 27.1019L19.7095 27.5701C19.4889 27.8103 19.1298 27.5115 19.295 27.2251L19.6168 26.667C19.6243 26.6539 19.6325 26.6416 19.6412 26.6301C19.2116 26.239 18.8204 25.7938 18.4777 25.2994C18.4658 25.3085 18.4532 25.3168 18.4398 25.3242L17.8962 25.6273C17.6168 25.7831 17.3619 25.3807 17.602 25.1626L18.069 24.7387C18.0808 24.7279 18.0931 24.7183 18.1058 24.7098C17.9182 24.3819 17.7507 24.0361 17.6055 23.6733L16.5747 25.1299C16.438 25.3231 16.1716 25.3436 16.0288 25.1556C15.0519 23.8684 14.9312 22.166 15.027 21.1259C15.05 20.8758 15.2956 20.7379 15.5128 20.8355L17.0567 21.5298C17.018 21.2104 16.9978 20.8911 16.9954 20.5735C16.9792 20.5736 16.9628 20.5725 16.9462 20.5699L16.3393 20.4745C16.0273 20.4254 16.043 19.9402 16.3575 19.9142L16.9691 19.8638C16.9862 19.8624 17.003 19.8625 17.0194 19.8638C17.0654 19.2551 17.1763 18.657 17.3472 18.0807C17.3309 18.0754 17.3146 18.0685 17.2987 18.0601L16.7481 17.7689C16.4655 17.6195 16.6212 17.1632 16.9278 17.2421L17.5253 17.3959C17.5429 17.4004 17.5597 17.4064 17.5758 17.4137C17.794 16.8541 18.071 16.3208 18.4019 15.8253C18.3874 15.8146 18.3735 15.8024 18.3604 15.7887L17.9212 15.3304C17.6957 15.0952 17.9761 14.7125 18.2448 14.8885L18.7684 15.2316C18.7841 15.2418 18.7985 15.2532 18.8118 15.2656C19.1782 14.8083 19.5951 14.3919 20.058 14.027C20.0469 14.0116 20.0369 13.9949 20.0281 13.977L19.7437 13.3976C19.5976 13.0996 19.9752 12.828 20.1797 13.0839L20.5775 13.5818C20.59 13.5974 20.6009 13.6139 20.6102 13.6309C20.9999 13.3773 21.4168 13.158 21.8586 12.978C21.957 12.9379 22.0557 12.9002 22.1546 12.8648C22.1483 12.8461 22.1435 12.8265 22.1402 12.8061L22.0375 12.1597ZM18.4754 22.9831C19.759 26.5636 23.5226 28.357 26.8816 26.9888C30.209 25.6335 31.8912 21.684 30.6748 18.1294C30.2714 18.4906 29.7873 18.8178 29.2244 19.0377C27.9612 19.5312 26.9967 19.7462 26.1828 19.8312C25.2573 21.1879 23.6838 21.7538 22.9224 21.8704L23.0194 19.8389C22.5237 19.8609 21.991 19.9304 21.3681 20.101C20.1982 20.4214 19.1084 20.9439 18.1193 21.5507C18.1884 22.031 18.3061 22.5108 18.4754 22.9831ZM20.1348 23.1578C19.8229 23.217 19.525 22.9954 19.4695 22.663C19.414 22.3304 19.6219 22.013 19.9338 21.9538C20.2457 21.8946 20.5436 22.1162 20.5991 22.4487C20.6546 22.7812 20.4467 23.0987 20.1348 23.1578ZM22.7795 23.2318C22.5759 23.2705 22.3814 23.1258 22.3452 22.9088C22.309 22.6918 22.4447 22.4846 22.6483 22.446C22.8519 22.4074 23.0462 22.552 23.0825 22.769C23.1187 22.986 22.983 23.1932 22.7795 23.2318ZM26.1378 23.0918C25.9342 23.1305 25.7398 22.9858 25.7036 22.7689C25.6673 22.5518 25.803 22.3446 26.0066 22.306C26.2102 22.2674 26.4046 22.412 26.4408 22.629C26.477 22.846 26.3414 23.0532 26.1378 23.0918ZM26.8371 25.0036C26.8733 25.2206 27.0677 25.3652 27.2713 25.3266C27.4749 25.288 27.6105 25.0808 27.5743 24.8638C27.5381 24.6467 27.3437 24.5021 27.1401 24.5408C26.9365 24.5794 26.8009 24.7866 26.8371 25.0036ZM22.9125 25.9778C22.7089 26.0164 22.5145 25.8718 22.4783 25.6548C22.442 25.4378 22.5777 25.2306 22.7813 25.192C22.9849 25.1534 23.1792 25.298 23.2155 25.515C23.2517 25.732 23.1161 25.9392 22.9125 25.9778ZM20.8919 24.291C20.9281 24.508 21.1225 24.6526 21.3261 24.614C21.5297 24.5754 21.6653 24.3682 21.6291 24.1511C21.5929 23.9341 21.3985 23.7895 21.1949 23.8282C20.9913 23.8667 20.8556 24.074 20.8919 24.291ZM24.5476 24.4196C24.344 24.4582 24.1495 24.3136 24.1133 24.0966C24.0771 23.8796 24.2128 23.6723 24.4164 23.6337C24.6199 23.5951 24.8144 23.7397 24.8506 23.9567C24.8868 24.1738 24.7512 24.3809 24.5476 24.4196ZM27.7436 22.787C27.7991 23.1195 28.097 23.3411 28.4089 23.2819C28.7209 23.2227 28.9288 22.9052 28.8732 22.5727C28.8177 22.2403 28.5199 22.0187 28.2079 22.0778C27.896 22.137 27.6881 22.4545 27.7436 22.787ZM24.5325 25.8864C24.588 26.2189 24.8859 26.4404 25.1978 26.3813C25.5097 26.3221 25.7176 26.0046 25.6621 25.6721C25.6066 25.3396 25.3087 25.118 24.9968 25.1772C24.6848 25.2364 24.477 25.5539 24.5325 25.8864ZM28.9188 16.5038C29.0336 17.0415 28.7359 17.5722 28.2538 17.6891C27.7717 17.8061 27.2878 17.465 27.173 16.9273C27.0582 16.3897 27.3559 15.859 27.838 15.742C28.3201 15.625 28.804 15.9661 28.9188 16.5038Z" fill="url(#paint3_linear_9743_7041)"/>
</g>
<defs>
<filter id="filter0_d_9743_7041" x="0" y="0" width="48" height="48" filterUnits="userSpaceOnUse" color-interpolation-filters="sRGB">
<feFlood flood-opacity="0" result="BackgroundImageFix"/>
<feColorMatrix in="SourceAlpha" type="matrix" values="0 0 0 0 0 0 0 0 0 0 0 0 0 0 0 0 0 0 127 0" result="hardAlpha"/>
<feOffset dy="4"/>
<feGaussianBlur stdDeviation="4"/>
<feComposite in2="hardAlpha" operator="out"/>
<feColorMatrix type="matrix" values="0 0 0 0 0 0 0 0 0 0 0 0 0 0 0 0 0 0 0.25 0"/>
<feBlend mode="normal" in2="BackgroundImageFix" result="effect1_dropShadow_9743_7041"/>
<feBlend mode="normal" in="SourceGraphic" in2="effect1_dropShadow_9743_7041" result="shape"/>
</filter>
<linearGradient id="paint0_linear_9743_7041" x1="24" y1="36" x2="24" y2="4" gradientUnits="userSpaceOnUse">
<stop stop-color="#040507"/>
<stop offset="1" stop-color="#181D28"/>
</linearGradient>
<radialGradient id="paint1_radial_9743_7041" cx="0" cy="0" r="1" gradientUnits="userSpaceOnUse" gradientTransform="translate(31.6174 2.02726) rotate(118.982) scale(44.174 29.0743)">
<stop stop-color="#635F5F" stop-opacity="0"/>
<stop offset="0.5" stop-color="#635F5F" stop-opacity="0.15"/>
<stop offset="1" stop-color="#635F5F" stop-opacity="0.3"/>
</radialGradient>
<radialGradient id="paint2_radial_9743_7041" cx="0" cy="0" r="1" gradientUnits="userSpaceOnUse" gradientTransform="translate(10.1333 4.67941) rotate(43.9202) scale(41.4638 27.7896)">
<stop stop-color="#FB2450"/>
<stop offset="0.245" stop-color="#FBC82E"/>
<stop offset="0.54" stop-color="#6EEE3F"/>
<stop offset="0.77" stop-color="#5889F3"/>
<stop offset="0.885" stop-color="#5095F1"/>
<stop offset="1" stop-color="#B10AF4"/>
</radialGradient>
<linearGradient id="paint3_linear_9743_7041" x1="25.5438" y1="11.4971" x2="33.6416" y2="23.856" gradientUnits="userSpaceOnUse">
<stop offset="0.0677083" stop-color="#874FFF"/>
<stop offset="0.463542" stop-color="#36AFE2"/>
<stop offset="0.859375" stop-color="#41FF54"/>
</linearGradient>
</defs>
</svg>
