<svg width="23" height="23" viewBox="0 0 23 23" fill="none" xmlns="http://www.w3.org/2000/svg">
<g id="fluent:rocket-16-regular">
<path id="Vector" d="M11.9947 7.62826C12.1996 7.42372 12.4428 7.26159 12.7105 7.15115C12.9781 7.04071 13.2649 6.98412 13.5544 6.98463C13.8439 6.98513 14.1305 7.04272 14.3977 7.1541C14.6649 7.26547 14.9076 7.42845 15.1118 7.6337C15.9709 8.49282 15.9777 9.8889 15.1172 10.7507C14.9123 10.9553 14.6691 11.1174 14.4015 11.2279C14.1339 11.3383 13.8471 11.3949 13.5576 11.3944C13.2681 11.3939 12.9815 11.3363 12.7142 11.2249C12.447 11.1135 12.2044 10.9506 12.0002 10.7453C11.7949 10.5411 11.6319 10.2985 11.5206 10.0312C11.4092 9.764 11.3516 9.47743 11.3511 9.18791C11.3506 8.8984 11.4072 8.61162 11.5176 8.344C11.6281 8.07638 11.7902 7.83316 11.9947 7.62826ZM14.1493 8.59342C14.0713 8.51464 13.9785 8.45204 13.8763 8.40919C13.774 8.36634 13.6643 8.34409 13.5534 8.34371C13.4426 8.34333 13.3327 8.36483 13.2301 8.40698C13.1276 8.44913 13.0344 8.5111 12.9558 8.58934C12.8777 8.66799 12.8158 8.76128 12.7738 8.86388C12.7317 8.96648 12.7104 9.07636 12.7109 9.18723C12.7114 9.2981 12.7337 9.40779 12.7767 9.51C12.8197 9.61221 12.8824 9.70494 12.9612 9.78287C13.0392 9.86173 13.1319 9.92444 13.2341 9.96741C13.3363 10.0104 13.446 10.0327 13.5569 10.0333C13.6678 10.0338 13.7776 10.0124 13.8802 9.97035C13.9828 9.92832 14.0761 9.86646 14.1548 9.78831C14.2329 9.70966 14.2948 9.61636 14.3368 9.51376C14.3789 9.41117 14.4002 9.30128 14.3997 9.19041C14.3992 9.07954 14.3768 8.96986 14.3339 8.86765C14.2909 8.76544 14.2282 8.67135 14.1493 8.59342ZM19.3544 5.11885C19.2262 4.71299 19.0021 4.34396 18.7011 4.04299C18.4002 3.74202 18.0311 3.51795 17.6253 3.38973C16.4776 3.02834 15.2529 2.98857 14.0842 3.27475C12.9156 3.56092 11.8478 4.16207 10.997 5.01282L10.1419 5.86923C9.548 5.6142 8.89132 5.54291 8.25653 5.66454C7.62173 5.78616 7.03792 6.09514 6.58034 6.55163L5.51187 7.61874C5.44858 7.68188 5.39836 7.75689 5.36409 7.83946C5.32983 7.92204 5.31219 8.01056 5.31219 8.09996C5.31219 8.18936 5.32983 8.27789 5.36409 8.36046C5.39836 8.44304 5.44858 8.51804 5.51187 8.58118L6.66734 9.73665C6.57701 10.081 6.57842 10.4431 6.67143 10.7867C6.76444 11.1304 6.94581 11.4437 7.1975 11.6955L7.42451 11.9225L6.37372 12.5506C6.28491 12.6036 6.20939 12.6762 6.15289 12.7628C6.09639 12.8495 6.06041 12.9479 6.0477 13.0505C6.03498 13.1532 6.04586 13.2574 6.07951 13.3552C6.11315 13.453 6.16868 13.5418 6.24186 13.6149L9.12781 16.5009C9.20091 16.5741 9.28976 16.6296 9.38757 16.6633C9.48538 16.6969 9.58958 16.7078 9.69223 16.6951C9.79488 16.6823 9.89327 16.6464 9.97992 16.5899C10.0666 16.5334 10.1392 16.4578 10.1922 16.369L10.8202 15.3196L11.0472 15.5453C11.5774 16.0768 12.3291 16.2535 13.0075 16.0754L14.1629 17.2309C14.2904 17.3583 14.4632 17.4299 14.6435 17.4299C14.8237 17.4299 14.9966 17.3583 15.124 17.2309L16.1911 16.1638C16.6478 15.7064 16.9571 15.1226 17.0789 14.4878C17.2008 13.853 17.1297 13.1962 16.8749 12.6022L17.7299 11.7458C18.5807 10.8953 19.1819 9.82776 19.4683 8.65936C19.7547 7.49097 19.7153 6.26641 19.3544 5.11885ZM17.2175 4.68657C17.4147 4.74926 17.5939 4.85842 17.7401 5.00486C17.8863 5.1513 17.9952 5.33072 18.0575 5.52803C18.3439 6.43821 18.3753 7.40946 18.1483 8.33624C17.9214 9.26302 17.4447 10.1099 16.7702 10.7847L12.9708 14.5842C12.8433 14.7116 12.6705 14.7832 12.4902 14.7832C12.31 14.7832 12.1371 14.7116 12.0097 14.5842L8.15994 10.7344C8.03251 10.607 7.96093 10.4341 7.96093 10.2539C7.96093 10.0737 8.03251 9.90081 8.15994 9.77335L11.9594 5.97526C12.6344 5.3005 13.4815 4.82371 14.4085 4.59674C15.3356 4.36977 16.3071 4.40131 17.2175 4.68793M15.7711 13.7074C15.8214 14.2416 15.6419 14.7949 15.2314 15.2041L14.6442 15.7913L14.1657 15.3128L15.7711 13.7074ZM7.54142 7.51271C7.73555 7.3178 7.97044 7.16832 8.22923 7.07501C8.48801 6.9817 8.76425 6.94687 9.03809 6.97304L7.43403 8.5771L6.95417 8.09996L7.54142 7.51271ZM9.83061 14.3286L9.47445 14.9227L7.82145 13.2697L8.41686 12.9135L9.83061 14.3286ZM7.21653 16.49C7.27972 16.4269 7.32987 16.352 7.36411 16.2695C7.39834 16.187 7.41599 16.0986 7.41606 16.0093C7.41612 15.92 7.39859 15.8315 7.36447 15.749C7.33035 15.6665 7.28031 15.5915 7.21721 15.5283C7.1541 15.4651 7.07917 15.4149 6.99668 15.3807C6.9142 15.3465 6.82578 15.3288 6.73647 15.3287C6.64716 15.3287 6.55872 15.3462 6.47618 15.3803C6.39365 15.4144 6.31865 15.4645 6.25545 15.5276L4.46108 17.322C4.39788 17.3851 4.34774 17.46 4.3135 17.5425C4.27927 17.625 4.26161 17.7134 4.26155 17.8027C4.26149 17.892 4.27902 17.9805 4.31313 18.063C4.34725 18.1455 4.39729 18.2205 4.4604 18.2837C4.5235 18.3469 4.59844 18.3971 4.68092 18.4313C4.76341 18.4655 4.85183 18.4832 4.94113 18.4832C5.03044 18.4833 5.11889 18.4658 5.20142 18.4317C5.28395 18.3975 5.35896 18.3475 5.42215 18.2844L7.21653 16.49ZM5.77287 14.0853C5.9003 14.2128 5.97188 14.3856 5.97188 14.5658C5.97188 14.7461 5.9003 14.9189 5.77287 15.0464L5.0524 15.7668C4.98961 15.8317 4.91454 15.8833 4.83157 15.9188C4.74859 15.9543 4.65938 15.9729 4.56913 15.9736C4.47889 15.9743 4.38942 15.9569 4.30594 15.9226C4.22246 15.8883 4.14664 15.8378 4.08292 15.7739C4.01919 15.71 3.96883 15.634 3.93478 15.5504C3.90072 15.4668 3.88365 15.3773 3.88456 15.2871C3.88547 15.1968 3.90434 15.1077 3.94007 15.0248C3.97581 14.9419 4.02769 14.867 4.09269 14.8044L4.81315 14.0853C4.94056 13.9583 5.11312 13.887 5.29301 13.887C5.47291 13.887 5.64547 13.9583 5.77287 14.0853ZM8.65883 17.9323C8.72374 17.8696 8.77552 17.7946 8.81115 17.7117C8.84677 17.6288 8.86552 17.5396 8.8663 17.4493C8.86709 17.3591 8.84989 17.2696 8.81571 17.1861C8.78154 17.1025 8.73107 17.0266 8.66725 16.9628C8.60343 16.899 8.52754 16.8485 8.44401 16.8144C8.36048 16.7802 8.27098 16.763 8.18073 16.7638C8.09049 16.7646 8.0013 16.7833 7.91837 16.8189C7.83545 16.8545 7.76045 16.9063 7.69775 16.9712L6.97728 17.6917C6.91417 17.7549 6.86413 17.8299 6.83002 17.9124C6.7959 17.995 6.77837 18.0834 6.77843 18.1727C6.77856 18.3531 6.85033 18.526 6.97796 18.6535C7.10559 18.7809 7.27861 18.8524 7.45898 18.8523C7.63934 18.8522 7.81227 18.7804 7.93972 18.6528L8.65883 17.9323Z" fill="#62656D"/>
</g>
</svg>
