<svg width="24" height="24" viewBox="0 0 24 24" fill="none" xmlns="http://www.w3.org/2000/svg">
<path d="M18.3862 12.0028C20.6972 8.7581 21.8756 5.40467 20.2369 3.76592C18.5981 2.12717 15.2447 3.3056 12 5.61654C8.7553 3.3056 5.40186 2.12717 3.76311 3.76592C2.12436 5.40467 3.3028 8.7581 5.61373 12.0028C3.3028 15.2475 2.12436 18.6009 3.76311 20.2397C4.29092 20.7675 4.99592 21.0028 5.81717 21.0028C7.54873 21.0028 9.79967 19.9556 12.0047 18.389C14.2003 19.9556 16.4503 21.0028 18.1875 21.0028C19.0087 21.0028 19.7147 20.7665 20.2415 20.2397C21.8756 18.6009 20.6972 15.2475 18.3862 12.0028ZM19.1765 4.82623C19.8928 5.54248 19.409 7.86373 17.4403 10.7587C16.8175 9.98771 16.1544 9.25012 15.4537 8.54904C14.7523 7.84965 14.0148 7.18749 13.244 6.56529C16.139 4.59654 18.4603 4.10998 19.1765 4.82623ZM4.82342 4.82623C5.02967 4.61904 5.36998 4.51217 5.81905 4.51217C6.92717 4.51217 8.69623 5.15904 10.755 6.56529C9.98477 7.18772 9.24752 7.84987 8.54623 8.54904C7.84658 9.2502 7.1844 9.98778 6.56248 10.7587C4.59373 7.86373 4.10717 5.54248 4.82342 4.82623ZM4.82342 19.1794C4.10717 18.4631 4.59373 16.1419 6.56248 13.2469C7.18532 14.0179 7.84843 14.7555 8.54905 15.4565C9.24974 16.1556 9.98637 16.8178 10.7559 17.4403C7.86092 19.409 5.53967 19.8956 4.82342 19.1794ZM12 13.1278C11.7775 13.1278 11.56 13.0618 11.375 12.9382C11.19 12.8146 11.0458 12.6389 10.9606 12.4333C10.8755 12.2277 10.8532 12.0015 10.8966 11.7833C10.94 11.5651 11.0472 11.3646 11.2045 11.2073C11.3618 11.05 11.5623 10.9428 11.7805 10.8994C11.9987 10.856 12.2249 10.8783 12.4305 10.9634C12.6361 11.0486 12.8118 11.1928 12.9354 11.3778C13.059 11.5628 13.125 11.7803 13.125 12.0028C13.125 12.3012 13.0065 12.5873 12.7955 12.7983C12.5845 13.0093 12.2984 13.1278 12 13.1278ZM19.1765 19.1803C18.4603 19.8975 16.139 19.4128 13.244 17.444C14.0146 16.8207 14.7522 16.1576 15.4537 15.4575C16.1534 14.756 16.8156 14.0181 17.4375 13.2469C19.4062 16.1419 19.8928 18.4631 19.1765 19.1794V19.1803Z" fill="white"/>
</svg>
