<svg width="36" height="36" viewBox="0 0 36 36" fill="none" xmlns="http://www.w3.org/2000/svg">
<rect width="36" height="36" rx="18" fill="#242424"/>
<path d="M16.5967 18.226L16.9661 17.8434V16.507L16.5967 16.1245H16.0929L15.7427 16.507V17.8434L16.0929 18.226H16.5967Z" fill="#75FB6E"/>
<path d="M19.9071 18.2111L20.2574 17.8285V16.507L19.9071 16.1245H19.3985L19.0339 16.507V17.8285L19.3985 18.2111H19.9071Z" fill="#75FB6E"/>
<path d="M28.1833 15.2005L27.6748 15.131L25.8564 16.5766L25.7844 17.1033L25.7029 17.1778H25.2087L24.8393 17.5554V18.0621L25.1751 18.4098V18.5887L24.8249 18.9713L24.8393 21.341L25.2087 21.7037L25.2279 21.8875L25.2375 21.8974L24.8921 22.2502V22.7768L24.7337 22.9358H22.1621L22.0085 22.7768V22.5035V20.1089L21.9366 20.0394L21.6391 19.7314V19.5476L21.6103 19.5227L21.9702 19.1501V18.6433L21.9462 18.6136L22.0085 18.6086L22.1093 18.4794L22.6179 18.4248L23.8413 16.7953L23.7933 16.2885L23.9133 16.1594L23.9085 16.1096L23.9133 16.1047L23.8989 15.9606L23.8941 15.9258L24.2636 15.5433L24.23 12.5029L23.8605 12.1402V12.1004L23.8797 11.9415L23.7406 11.7576L23.7886 11.231L22.5507 9.60149L22.0422 9.54684L21.9654 9.4425L21.9702 9.43756V8.9308L21.62 8.54825H21.1689H21.1306L20.9578 8.40418V7.88254L20.5692 7.5H18.036H17.964H15.426L15.0422 7.88254V8.40418L14.8694 8.54825H14.8311H14.3753L14.025 8.9308V9.43756L14.0298 9.4425L13.9578 9.54684L13.4493 9.60149L12.2067 11.231L12.2594 11.7576L12.1203 11.9415L12.1395 12.1004V12.1402L11.77 12.5029L11.7364 15.5433L12.1011 15.9258L12.0867 16.1594L12.2211 16.3034L12.1731 16.7953L13.3965 18.4248L13.9051 18.4794L14.0106 18.6086L14.0538 18.6136L14.025 18.6433V19.1501L14.3753 19.5326L14.3609 19.5476V19.7314L14.0634 20.0394L13.9915 20.1089V22.5035V22.7768L13.8331 22.9358H11.2615L11.1032 22.7768V22.2502L10.7529 21.8875L10.7721 21.7037L11.1415 21.341L11.1559 18.9713L10.8057 18.5887L10.8249 18.4098L11.1559 18.0621V17.5554L10.7913 17.1778H10.2923L10.2108 17.1033L10.1436 16.5766L8.32043 15.131L7.81665 15.2005L7.5 15.6178L7.57197 16.1444L9.39035 17.5901L9.8989 17.5206L9.93727 17.5504L9.9325 17.5554V18.0621L10.2827 18.4446H10.3019V18.5539L9.9325 18.9315L9.8989 21.3062L10.2492 21.6888V21.8676H10.23L9.87969 22.2502V22.7768L10.23 23.1394H10.7385L10.8968 23.2984V23.8251L11.2471 24.1877H13.8187L14.1833 23.8251V23.2984L14.3417 23.1394H14.8694L15.2149 22.7768V22.593V20.1089L14.903 19.7314L14.8838 19.5326L15.2532 19.1501V18.6433L14.8838 18.2608H14.3897L14.3081 18.1515L14.3609 17.6299L13.1182 16.0004L12.6096 15.9457V15.9407V15.9258L12.9791 15.5632L12.9935 12.5376L12.6433 12.1551L12.6481 12.1004L12.6625 12.0855L13.171 12.0309L14.3944 10.4014L14.3417 9.87475L14.3848 9.82011H14.8838L15.2532 9.43756V8.96558V8.9308L15.426 8.78673H17.964H18.036H20.5692L20.7468 8.9308V8.96558V9.43756L21.1162 9.82011H21.6151L21.6583 9.87475L21.6056 10.4014L22.829 12.0309L23.3375 12.0855L23.3472 12.1004L23.3519 12.1551L23.0017 12.5376L23.0209 15.5632L23.3904 15.9258V15.9457L22.901 16.0004L21.6583 17.6299L21.7063 18.1515L21.6151 18.2757L21.6056 18.2608H21.097L20.7468 18.6433V19.1501L21.097 19.5326H21.1162L21.097 19.7314L20.7995 20.1089V22.593V22.7768L21.1498 23.1394H21.6583L21.8118 23.2984V23.8251L22.1813 24.1877H24.7529L25.1032 23.8251V23.2984L25.2615 23.1394H25.77L26.1203 22.7768V22.2502L25.77 21.8676H25.7317V21.6888L26.0819 21.3062L26.0483 18.9315L25.6789 18.5539V18.4446H25.7173L26.0675 18.0621V17.5554L26.0627 17.5504L26.1011 17.5206L26.6096 17.5901L28.428 16.1444L28.5 15.6178L28.1833 15.2005Z" fill="#75FB6E"/>
<path d="M16.4047 23.0303L16.0401 23.4078V23.9345L15.8818 24.0984H15.3732L12.9263 26.5775V27.0892L12.768 27.2482H10.1963L10.038 27.0892V26.5626L9.66858 26.18H9.16484L8.81458 26.5626V27.0892L9.16484 27.4519H9.66858L9.82691 27.6108V28.1374L10.1772 28.5001H12.7488L13.1182 28.1374V27.6108L13.2717 27.4519L13.2909 27.4667H13.7995L16.2512 24.9877V24.4611L16.3903 24.2971H16.8797L17.2827 23.9345V23.4078L16.9133 23.0303H16.4047Z" fill="#75FB6E"/>
<path d="M26.365 26.18L25.9955 26.5626V27.0892L25.8372 27.2482H23.2656L23.1073 27.0892V26.5775L20.6604 24.0984H20.1518L19.9935 23.9345V23.4078L19.6289 23.0303H19.1203L18.7509 23.4078V23.9345L19.1539 24.2971H19.6433L19.7824 24.4611V24.9877L22.2341 27.4667H22.7426L22.757 27.4519L22.9154 27.6108V28.1374L23.2848 28.5001H25.8564L26.2067 28.1374V27.6108L26.365 27.4519H26.8688L27.219 27.0892V26.5626L26.8688 26.18H26.365Z" fill="#75FB6E"/>
</svg>
