<svg width="33" height="32" viewBox="0 0 33 32" fill="none" xmlns="http://www.w3.org/2000/svg">
<g id="Frame">
<path id="Vector" d="M25.5001 8V21C25.5001 21.2652 25.3947 21.5196 25.2072 21.7071C25.0196 21.8946 24.7653 22 24.5001 22C24.2349 22 23.9805 21.8946 23.793 21.7071C23.6054 21.5196 23.5001 21.2652 23.5001 21V10.4137L9.20757 24.7075C9.01993 24.8951 8.76543 25.0006 8.50007 25.0006C8.2347 25.0006 7.98021 24.8951 7.79257 24.7075C7.60493 24.5199 7.49951 24.2654 7.49951 24C7.49951 23.7346 7.60493 23.4801 7.79257 23.2925L22.0863 9H11.5001C11.2349 9 10.9805 8.89464 10.793 8.70711C10.6054 8.51957 10.5001 8.26522 10.5001 8C10.5001 7.73478 10.6054 7.48043 10.793 7.29289C10.9805 7.10536 11.2349 7 11.5001 7H24.5001C24.7653 7 25.0196 7.10536 25.2072 7.29289C25.3947 7.48043 25.5001 7.73478 25.5001 8Z" fill="url(#paint0_linear_10708_841)"/>
</g>
<defs>
<linearGradient id="paint0_linear_10708_841" x1="7.49951" y1="16.0003" x2="25.5001" y2="16.0003" gradientUnits="userSpaceOnUse">
<stop stop-color="#4BA790"/>
<stop offset="0.503103" stop-color="#FBFBFB" stop-opacity="0.6"/>
<stop offset="1" stop-color="#9747FF"/>
</linearGradient>
</defs>
</svg>
