<svg width="24" height="25" viewBox="0 0 24 25" fill="none" xmlns="http://www.w3.org/2000/svg">
<g id="Frame">
<path id="Vector" opacity="0.6" d="M12.0065 2.74707C10.0781 2.74707 8.19304 3.3189 6.58966 4.39024C4.98628 5.46159 3.7366 6.98433 2.99865 8.76591C2.26069 10.5475 2.06761 12.5079 2.44382 14.3992C2.82002 16.2905 3.74862 18.0278 5.11218 19.3914C6.47575 20.7549 8.21303 21.6835 10.1043 22.0597C11.9957 22.4359 13.9561 22.2428 15.7376 21.5049C17.5192 20.7669 19.042 19.5173 20.1133 17.9139C21.1846 16.3105 21.7565 14.4254 21.7565 12.4971C21.7537 9.91205 20.7256 7.43368 18.8978 5.60579C17.0699 3.77791 14.5915 2.7498 12.0065 2.74707ZM20.2565 12.4971C20.2565 13.0596 18.6627 14.0186 15.6843 14.4818C15.7321 13.8255 15.7565 13.1618 15.7565 12.4971C15.7565 9.47457 15.2549 6.42957 14.2808 4.56582C16.0016 5.06204 17.5147 6.10372 18.5924 7.53409C19.6701 8.96447 20.2541 10.7062 20.2565 12.4971ZM12.0065 4.24707C12.7705 4.24707 14.2565 7.15895 14.2565 12.4971C14.2565 13.2696 14.2246 13.9896 14.1693 14.6599C13.499 14.7152 12.779 14.7471 12.0065 14.7471C6.66835 14.7471 3.75647 13.2611 3.75647 12.4971C3.75896 10.3098 4.62895 8.21282 6.17558 6.66618C7.72222 5.11954 9.8192 4.24955 12.0065 4.24707ZM4.07522 14.7714C5.93897 15.7455 8.98397 16.2471 12.0065 16.2471C12.6712 16.2471 13.3368 16.2227 13.9912 16.1749C13.528 19.1533 12.569 20.7471 12.0065 20.7471C10.2156 20.7447 8.47387 20.1607 7.0435 19.083C5.61312 18.0053 4.57145 16.4922 4.07522 14.7714ZM14.2808 20.4283C14.8705 19.3033 15.2868 17.7405 15.524 16.0146C17.2499 15.7774 18.8052 15.3583 19.9377 14.7714C19.5488 16.1151 18.8262 17.3385 17.8371 18.3277C16.8479 19.3168 15.6245 20.0394 14.2808 20.4283Z" fill="#FBFBFB" fill-opacity="0.6"/>
</g>
</svg>
