<svg width="22" height="22" viewBox="0 0 22 22" fill="none" xmlns="http://www.w3.org/2000/svg">
<path fill-rule="evenodd" clip-rule="evenodd" d="M15.5833 8.25H20.1667V13.75H15.5833C14.0646 13.75 12.8333 12.5188 12.8333 11C12.8333 9.48122 14.0646 8.25 15.5833 8.25ZM15.5833 11.9167C16.0896 11.9167 16.5 11.5063 16.5 11C16.5 10.4937 16.0896 10.0833 15.5833 10.0833C15.0771 10.0833 14.6667 10.4937 14.6667 11C14.6667 11.5063 15.0771 11.9167 15.5833 11.9167Z" fill="white"/>
<path fill-rule="evenodd" clip-rule="evenodd" d="M7.11215 3.66675H14.8879C15.6257 3.66674 16.2347 3.66673 16.7308 3.70726C17.2461 3.74936 17.7197 3.83971 18.1646 4.06639C18.8546 4.41793 19.4155 4.97886 19.767 5.66878C19.9937 6.11367 20.0841 6.58732 20.1262 7.10258C20.1667 7.59867 20.1667 8.20766 20.1667 8.94554V13.0546C20.1667 13.7925 20.1667 14.4015 20.1262 14.8976C20.0841 15.4128 19.9937 15.8865 19.767 16.3314C19.4155 17.0213 18.8546 17.5822 18.1646 17.9338C17.7197 18.1605 17.2461 18.2508 16.7308 18.2929C16.2347 18.3334 15.6257 18.3334 14.8878 18.3334H7.11217C6.37427 18.3334 5.76526 18.3334 5.26916 18.2929C4.75391 18.2508 4.28026 18.1605 3.83537 17.9338C3.14544 17.5822 2.58452 17.0213 2.23298 16.3314C2.0063 15.8865 1.91595 15.4128 1.87385 14.8976C1.83331 14.4015 1.83332 13.7925 1.83334 13.0546V8.94556C1.83332 8.20767 1.83331 7.59867 1.87385 7.10258C1.91595 6.58732 2.0063 6.11367 2.23298 5.66878C2.58452 4.97886 3.14544 4.41793 3.83537 4.06639C4.28026 3.83971 4.75391 3.74936 5.26916 3.70726C5.76526 3.66673 6.37426 3.66674 7.11215 3.66675ZM5.41845 5.5345C5.01657 5.56734 4.81105 5.62685 4.66769 5.6999C4.32272 5.87567 4.04226 6.15614 3.86649 6.5011C3.79344 6.64447 3.73393 6.84999 3.70109 7.25187C3.66738 7.66445 3.66667 8.19822 3.66667 8.98342V13.0167C3.66667 13.8019 3.66738 14.3357 3.70109 14.7483C3.73393 15.1502 3.79344 15.3557 3.86649 15.4991C4.04226 15.844 4.32272 16.1245 4.66769 16.3003C4.81105 16.3733 5.01657 16.4328 5.41845 16.4657C5.83104 16.4994 6.36481 16.5001 7.15 16.5001H14.85C15.6352 16.5001 16.169 16.4994 16.5816 16.4657C16.9834 16.4328 17.189 16.3733 17.3323 16.3003C17.6773 16.1245 17.9577 15.844 18.1335 15.4991C18.2066 15.3557 18.2661 15.1502 18.2989 14.7483C18.3326 14.3357 18.3333 13.8019 18.3333 13.0167V8.98342C18.3333 8.19822 18.3326 7.66445 18.2989 7.25187C18.2661 6.84999 18.2066 6.64447 18.1335 6.5011C17.9577 6.15614 17.6773 5.87567 17.3323 5.6999C17.189 5.62685 16.9834 5.56734 16.5816 5.5345C16.169 5.5008 15.6352 5.50008 14.85 5.50008H7.15C6.36481 5.50008 5.83104 5.5008 5.41845 5.5345Z" fill="white"/>
</svg>
