<svg width="150" height="150" viewBox="0 0 150 150" fill="none" xmlns="http://www.w3.org/2000/svg">
<g id="R Symbol 1" clip-path="url(#clip0_710_7743)">
<path id="Vector" d="M0 32.8947C0 14.7275 14.7275 0 32.8947 0H117.105C135.272 0 150 14.7275 150 32.8947V117.105C150 135.272 135.272 150 117.105 150H32.8947C14.7275 150 0 135.272 0 117.105V32.8947Z" fill="#FEDA03"/>
<path id="Vector_2" fill-rule="evenodd" clip-rule="evenodd" d="M112.998 62.7941C112.998 69.9895 108.794 73.5685 104.07 74.8119C109.724 76.5066 113.816 81.1408 113.816 88.4869V101.974H92.2388V89.1652C92.2388 85.2468 89.9322 83.6645 85.9888 83.6645H60.3938V101.974H38.8164V48.0264H90.0815C102.953 48.0264 112.998 50.8141 112.998 62.7941ZM60.4034 63.0987H89.5736V63.101C89.6171 63.0995 89.6611 63.0987 89.7046 63.0987C91.7105 63.0987 93.3368 64.7452 93.3368 66.7764C93.3368 68.8073 91.7105 70.454 89.7046 70.454C89.6611 70.454 89.6171 70.4533 89.5736 70.452V70.454H60.4034V63.0987Z" fill="black"/>
</g>
<defs>
<clipPath id="clip0_710_7743">
<rect width="150" height="150" fill="white"/>
</clipPath>
</defs>
</svg>
