<svg width="36" height="36" viewBox="0 0 36 36" fill="none" xmlns="http://www.w3.org/2000/svg">
<rect width="36" height="36" rx="18" fill="black"/>
<path d="M29.388 23.8776V14.0935C29.388 12.5231 28.115 11.25 26.5446 11.25C25.7871 11.25 25.0609 11.5522 24.5271 12.0897L15.6368 21.0407C15.2973 21.3826 15.2999 21.9352 15.6428 22.2738L16.3383 22.9608C18.04 24.6416 20.7789 24.6348 22.4722 22.9456L25.8368 19.5894C25.9965 19.4301 26.2537 19.4257 26.4187 19.5795C26.5905 19.7396 26.5973 20.0095 26.4339 20.1781L25.299 21.3486C25.1319 21.5208 25.1358 21.7958 25.3076 21.9633L27.9094 24.5009C28.461 25.0388 29.388 24.6481 29.388 23.8776Z" fill="url(#paint0_linear_5387_1370)"/>
<path d="M6.75 12.1549V21.896C6.75 23.4699 8.02584 24.7457 9.59968 24.7457C10.3536 24.7457 11.0769 24.4469 11.611 23.9148L20.4947 15.0639C20.8372 14.7225 20.8361 14.1674 20.4921 13.8276L19.7997 13.1437C18.098 11.463 15.3591 11.4697 13.6658 13.1589L10.3013 16.5152C10.1416 16.6745 9.88442 16.6789 9.71937 16.5251C9.54756 16.365 9.54071 16.0951 9.70417 15.9265L10.8429 14.7521C11.0084 14.5814 11.0063 14.3094 10.8382 14.1412L8.2364 11.5393C7.6879 10.9907 6.75 11.3792 6.75 12.1549Z" fill="url(#paint1_linear_5387_1370)"/>
<defs>
<linearGradient id="paint0_linear_5387_1370" x1="6.74997" y1="11.25" x2="29.7041" y2="11.8107" gradientUnits="userSpaceOnUse">
<stop stop-color="#06C17E"/>
<stop offset="1" stop-color="#06C1A8"/>
</linearGradient>
<linearGradient id="paint1_linear_5387_1370" x1="6.75" y1="11.2499" x2="29.7041" y2="11.8106" gradientUnits="userSpaceOnUse">
<stop stop-color="#06C17E"/>
<stop offset="1" stop-color="#06C1A8"/>
</linearGradient>
</defs>
</svg>
