<svg width="24" height="24" viewBox="0 0 24 24" fill="none" xmlns="http://www.w3.org/2000/svg">
<rect x="5.33331" y="4" width="14.6667" height="14.6667" fill="#23262D"/>
<path fill-rule="evenodd" clip-rule="evenodd" d="M0.581299 2.91205C0 4.05291 0 5.54639 0 8.53333V15.4667C0 18.4536 0 19.9471 0.581299 21.0879C1.09262 22.0915 1.90852 22.9074 2.91205 23.4187C4.05291 24 5.54639 24 8.53333 24H15.4667C18.4536 24 19.9471 24 21.0879 23.4187C22.0915 22.9074 22.9074 22.0915 23.4187 21.0879C24 19.9471 24 18.4536 24 15.4667V8.53333C24 5.54639 24 4.05291 23.4187 2.91205C22.9074 1.90852 22.0915 1.09262 21.0879 0.581299C19.9471 0 18.4536 0 15.4667 0H8.53333C5.54639 0 4.05291 0 2.91205 0.581299C1.90852 1.09262 1.09262 1.90852 0.581299 2.91205ZM13.3333 6.66667C13.3333 5.93029 12.7364 5.33333 12 5.33333C11.2636 5.33333 10.6667 5.93029 10.6667 6.66667V10.6667H6.66667C5.93029 10.6667 5.33333 11.2636 5.33333 12C5.33333 12.7364 5.93029 13.3333 6.66667 13.3333H10.6667V17.3333C10.6667 18.0697 11.2636 18.6667 12 18.6667C12.7364 18.6667 13.3333 18.0697 13.3333 17.3333V13.3333H17.3333C18.0697 13.3333 18.6667 12.7364 18.6667 12C18.6667 11.2636 18.0697 10.6667 17.3333 10.6667H13.3333V6.66667Z" fill="#23262D"/>
<rect x="5.33331" y="17.3335" width="2.66667" height="13.3333" rx="1" transform="rotate(-90 5.33331 17.3335)" fill="white"/>
<rect x="5.33331" y="10.6665" width="2.66667" height="13.3333" rx="1" transform="rotate(-90 5.33331 10.6665)" fill="white"/>
</svg>
