<svg width="22" height="21" viewBox="0 0 22 21" fill="none" xmlns="http://www.w3.org/2000/svg">
<path id="Vector" d="M11.0189 0.363281C8.97992 0.363281 6.98669 0.967921 5.29131 2.10074C3.59593 3.23356 2.27454 4.84368 1.49424 6.72748C0.71394 8.61129 0.509778 10.6842 0.907571 12.684C1.30536 14.6839 2.28724 16.5208 3.72905 17.9626C5.17085 19.4044 7.00782 20.3863 9.00766 20.7841C11.0075 21.1819 13.0804 20.9777 14.9642 20.1974C16.848 19.4171 18.4581 18.0958 19.5909 16.4004C20.7238 14.705 21.3284 12.7118 21.3284 10.6727C21.3255 7.93939 20.2384 5.31882 18.3056 3.38604C16.3729 1.45327 13.7523 0.366168 11.0189 0.363281ZM10.6224 5.1215C10.8577 5.1215 11.0877 5.19126 11.2833 5.32197C11.4789 5.45268 11.6314 5.63846 11.7214 5.85583C11.8115 6.07319 11.835 6.31237 11.7891 6.54312C11.7432 6.77387 11.6299 6.98583 11.4636 7.15219C11.2972 7.31855 11.0852 7.43185 10.8545 7.47775C10.6237 7.52364 10.3846 7.50009 10.1672 7.41005C9.94984 7.32002 9.76406 7.16755 9.63335 6.97193C9.50264 6.77631 9.43287 6.54632 9.43287 6.31105C9.43287 5.99556 9.5582 5.69299 9.78128 5.46991C10.0044 5.24682 10.3069 5.1215 10.6224 5.1215ZM11.812 16.224C11.3913 16.224 10.9879 16.0569 10.6905 15.7594C10.393 15.462 10.2259 15.0586 10.2259 14.6379V10.6727C10.0156 10.6727 9.81387 10.5892 9.66514 10.4405C9.51642 10.2917 9.43287 10.09 9.43287 9.87971C9.43287 9.66938 9.51642 9.46767 9.66514 9.31895C9.81387 9.17023 10.0156 9.08667 10.2259 9.08667C10.6466 9.08667 11.05 9.25378 11.3474 9.55122C11.6449 9.84867 11.812 10.2521 11.812 10.6727V14.6379C12.0223 14.6379 12.224 14.7215 12.3727 14.8702C12.5215 15.0189 12.605 15.2206 12.605 15.431C12.605 15.6413 12.5215 15.843 12.3727 15.9917C12.224 16.1404 12.0223 16.224 11.812 16.224Z" fill="url(#paint0_linear_9833_450)"/>
<defs>
<linearGradient id="paint0_linear_9833_450" x1="11.0189" y1="0.363281" x2="11.0189" y2="20.9822" gradientUnits="userSpaceOnUse">
<stop stop-color="white"/>
<stop offset="1" stop-color="#BABABA"/>
</linearGradient>
</defs>
</svg>
