<svg width="16" height="16" viewBox="0 0 16 16" fill="none" xmlns="http://www.w3.org/2000/svg">
<path d="M12.5 5V7C12.5 7.13261 12.4473 7.25979 12.3536 7.35355C12.2598 7.44732 12.1326 7.5 12 7.5C11.8674 7.5 11.7402 7.44732 11.6464 7.35355C11.5527 7.25979 11.5 7.13261 11.5 7V5.5H10C9.86739 5.5 9.74021 5.44732 9.64645 5.35355C9.55268 5.25979 9.5 5.13261 9.5 5C9.5 4.86739 9.55268 4.74021 9.64645 4.64645C9.74021 4.55268 9.86739 4.5 10 4.5H12C12.1326 4.5 12.2598 4.55268 12.3536 4.64645C12.4473 4.74021 12.5 4.86739 12.5 5ZM6 10.5H4.5V9C4.5 8.86739 4.44732 8.74021 4.35355 8.64645C4.25979 8.55268 4.13261 8.5 4 8.5C3.86739 8.5 3.74021 8.55268 3.64645 8.64645C3.55268 8.74021 3.5 8.86739 3.5 9V11C3.5 11.1326 3.55268 11.2598 3.64645 11.3536C3.74021 11.4473 3.86739 11.5 4 11.5H6C6.13261 11.5 6.25979 11.4473 6.35355 11.3536C6.44732 11.2598 6.5 11.1326 6.5 11C6.5 10.8674 6.44732 10.7402 6.35355 10.6464C6.25979 10.5527 6.13261 10.5 6 10.5ZM14.5 3.5V12.5C14.5 12.7652 14.3946 13.0196 14.2071 13.2071C14.0196 13.3946 13.7652 13.5 13.5 13.5H2.5C2.23478 13.5 1.98043 13.3946 1.79289 13.2071C1.60536 13.0196 1.5 12.7652 1.5 12.5V3.5C1.5 3.23478 1.60536 2.98043 1.79289 2.79289C1.98043 2.60536 2.23478 2.5 2.5 2.5H13.5C13.7652 2.5 14.0196 2.60536 14.2071 2.79289C14.3946 2.98043 14.5 3.23478 14.5 3.5ZM13.5 12.5V3.5H2.5V12.5H13.5Z" fill="url(#paint0_linear_9450_836)"/>
<defs>
<linearGradient id="paint0_linear_9450_836" x1="1.5" y1="8" x2="14.5" y2="8" gradientUnits="userSpaceOnUse">
<stop stop-color="#4BA790"/>
<stop offset="0.503103" stop-color="#FBFBFB" stop-opacity="0.6"/>
<stop offset="1" stop-color="#9747FF"/>
</linearGradient>
</defs>
</svg>
