<svg width="48" height="48" viewBox="0 0 48 48" fill="none" xmlns="http://www.w3.org/2000/svg">
<g clip-path="url(#clip0_11074_4760)">
<path fill-rule="evenodd" clip-rule="evenodd" d="M26.8387 47.7968C38.4537 46.2651 47.4182 36.3252 47.4182 24.2916C47.4182 11.1969 36.8032 0.581665 23.7091 0.581665C10.6149 0.581665 0 11.1969 0 24.2916C0 27.1319 0.49942 29.8556 1.41523 32.3796C2.50113 32.3473 3.57721 31.8396 4.28711 30.8442L10.1418 22.6355C14.2001 16.9457 21.6177 14.7604 28.1124 17.3412L31.8756 18.8365C32.9911 19.1924 34.1811 18.5623 34.5137 17.4398L34.9161 16.082C34.9161 16.082 33.1764 15.2179 32.486 14.4405C31.7953 13.663 31.0928 11.7775 31.0928 11.7775C31.0928 11.7775 32.9942 12.3659 33.9076 12.9464C34.8212 13.5268 35.7407 14.7306 35.7407 14.7306L41.2634 17.979C41.2634 17.979 41.5072 19.3278 40.8035 19.4848C40.0999 19.6419 37.4204 18.8365 37.4204 18.8365C34.1354 20.7414 32.6378 24.5677 33.1712 28.3274C33.2849 29.13 33.3341 29.7837 33.2639 30.1046C32.9791 31.4032 31.4279 33.0803 31.4279 33.0803C31.4279 33.0803 31.2647 27.4691 29.2851 25.8449C27.3055 24.2209 23.4588 25.344 23.4588 25.344L25.4275 30.2171C27.3856 35.064 25.2991 40.5235 20.7895 42.8935L26.4486 47.3134C26.625 47.4512 26.7539 47.6171 26.8387 47.7968ZM23.4272 47.9998C15.2697 47.9049 8.10256 43.6899 3.90924 37.3385C5.87353 36.5501 7.92468 35.6442 9.53644 34.7389C10.1832 34.3755 10.8151 33.9809 11.423 33.5716C14.8621 31.2558 19.8647 31.8278 21.9443 35.4147C22.8641 37.0012 22.7565 38.982 21.67 40.4595L20.2119 42.4425L19.0825 41.5603C18.7879 41.3302 18.3604 41.3949 18.1471 41.7018C17.9706 41.9558 17.9971 42.2986 18.2103 42.5225L23.4272 47.9998Z" fill="#8247E5"/>
</g>
<defs>
<clipPath id="clip0_11074_4760">
<rect width="48" height="48" fill="white"/>
</clipPath>
</defs>
</svg>
