<svg width="25" height="25" viewBox="0 0 25 25" fill="none" xmlns="http://www.w3.org/2000/svg">
<g id="Frame">
<path id="Vector" opacity="0.6" d="M7.22713 10.2471C7.22713 10.0482 7.30614 9.85739 7.4468 9.71674C7.58745 9.57609 7.77821 9.49707 7.97713 9.49707H16.9771C17.176 9.49707 17.3668 9.57609 17.5075 9.71674C17.6481 9.85739 17.7271 10.0482 17.7271 10.2471C17.7271 10.446 17.6481 10.6367 17.5075 10.7774C17.3668 10.9181 17.176 10.9971 16.9771 10.9971H7.97713C7.77821 10.9971 7.58745 10.9181 7.4468 10.7774C7.30614 10.6367 7.22713 10.446 7.22713 10.2471ZM7.97713 13.9971H16.9771C17.176 13.9971 17.3668 13.9181 17.5075 13.7774C17.6481 13.6367 17.7271 13.446 17.7271 13.2471C17.7271 13.0482 17.6481 12.8574 17.5075 12.7167C17.3668 12.5761 17.176 12.4971 16.9771 12.4971H7.97713C7.77821 12.4971 7.58745 12.5761 7.4468 12.7167C7.30614 12.8574 7.22713 13.0482 7.22713 13.2471C7.22713 13.446 7.30614 13.6367 7.4468 13.7774C7.58745 13.9181 7.77821 13.9971 7.97713 13.9971ZM22.2271 5.74707V19.9971C22.2271 20.1249 22.1943 20.2506 22.132 20.3622C22.0697 20.4738 21.9799 20.5677 21.8712 20.6348C21.7624 20.702 21.6383 20.7402 21.5106 20.7459C21.3829 20.7516 21.2558 20.7246 21.1415 20.6674L18.4771 19.3352L15.8128 20.6674C15.7086 20.7195 15.5936 20.7467 15.4771 20.7467C15.3606 20.7467 15.2457 20.7195 15.1415 20.6674L12.4771 19.3352L9.81275 20.6674C9.70855 20.7195 9.59364 20.7467 9.47713 20.7467C9.36061 20.7467 9.2457 20.7195 9.1415 20.6674L6.47713 19.3352L3.81275 20.6674C3.69844 20.7246 3.5714 20.7516 3.4437 20.7459C3.31599 20.7402 3.19187 20.702 3.0831 20.6348C2.97433 20.5677 2.88454 20.4738 2.82224 20.3622C2.75993 20.2506 2.7272 20.1249 2.72713 19.9971V5.74707C2.72713 5.34925 2.88516 4.96771 3.16647 4.68641C3.44777 4.40511 3.8293 4.24707 4.22713 4.24707H20.7271C21.125 4.24707 21.5065 4.40511 21.7878 4.68641C22.0691 4.96771 22.2271 5.34925 22.2271 5.74707ZM20.7271 5.74707H4.22713V18.7839L6.1415 17.8258C6.2457 17.7737 6.36061 17.7465 6.47713 17.7465C6.59364 17.7465 6.70855 17.7737 6.81275 17.8258L9.47713 19.1589L12.1415 17.8258C12.2457 17.7737 12.3606 17.7465 12.4771 17.7465C12.5936 17.7465 12.7086 17.7737 12.8128 17.8258L15.4771 19.1589L18.1415 17.8258C18.2457 17.7737 18.3606 17.7465 18.4771 17.7465C18.5936 17.7465 18.7086 17.7737 18.8128 17.8258L20.7271 18.7839V5.74707Z" fill="#FBFBFB" fill-opacity="0.6"/>
</g>
</svg>
