<svg width="25" height="25" viewBox="0 0 25 25" fill="none" xmlns="http://www.w3.org/2000/svg">
<g id="Frame">
<path id="Vector" opacity="0.6" d="M8.40982 6.49707C8.40982 6.29816 8.48884 6.10739 8.62949 5.96674C8.77014 5.82609 8.96091 5.74707 9.15982 5.74707H21.1598C21.3587 5.74707 21.5495 5.82609 21.6902 5.96674C21.8308 6.10739 21.9098 6.29816 21.9098 6.49707C21.9098 6.69598 21.8308 6.88675 21.6902 7.0274C21.5495 7.16805 21.3587 7.24707 21.1598 7.24707H9.15982C8.96091 7.24707 8.77014 7.16805 8.62949 7.0274C8.48884 6.88675 8.40982 6.69598 8.40982 6.49707ZM21.1598 11.7471H9.15982C8.96091 11.7471 8.77014 11.8261 8.62949 11.9667C8.48884 12.1074 8.40982 12.2982 8.40982 12.4971C8.40982 12.696 8.48884 12.8867 8.62949 13.0274C8.77014 13.1681 8.96091 13.2471 9.15982 13.2471H21.1598C21.3587 13.2471 21.5495 13.1681 21.6902 13.0274C21.8308 12.8867 21.9098 12.696 21.9098 12.4971C21.9098 12.2982 21.8308 12.1074 21.6902 11.9667C21.5495 11.8261 21.3587 11.7471 21.1598 11.7471ZM21.1598 17.7471H9.15982C8.96091 17.7471 8.77014 17.8261 8.62949 17.9667C8.48884 18.1074 8.40982 18.2982 8.40982 18.4971C8.40982 18.696 8.48884 18.8867 8.62949 19.0274C8.77014 19.1681 8.96091 19.2471 9.15982 19.2471H21.1598C21.3587 19.2471 21.5495 19.1681 21.6902 19.0274C21.8308 18.8867 21.9098 18.696 21.9098 18.4971C21.9098 18.2982 21.8308 18.1074 21.6902 17.9667C21.5495 17.8261 21.3587 17.7471 21.1598 17.7471ZM5.03482 5.37207C4.81232 5.37207 4.59481 5.43805 4.4098 5.56167C4.2248 5.68528 4.08061 5.86098 3.99546 6.06655C3.91031 6.27212 3.88803 6.49832 3.93144 6.71655C3.97485 6.93478 4.08199 7.13523 4.23933 7.29257C4.39666 7.4499 4.59712 7.55705 4.81534 7.60045C5.03357 7.64386 5.25977 7.62158 5.46534 7.53643C5.67091 7.45129 5.84661 7.30709 5.97022 7.12209C6.09384 6.93708 6.15982 6.71957 6.15982 6.49707C6.15982 6.1987 6.04129 5.91255 5.83032 5.70158C5.61934 5.4906 5.33319 5.37207 5.03482 5.37207ZM5.03482 11.3721C4.81232 11.3721 4.59481 11.4381 4.4098 11.5617C4.2248 11.6853 4.08061 11.861 3.99546 12.0666C3.91031 12.2721 3.88803 12.4983 3.93144 12.7165C3.97485 12.9348 4.08199 13.1352 4.23933 13.2926C4.39666 13.4499 4.59712 13.557 4.81534 13.6005C5.03357 13.6439 5.25977 13.6216 5.46534 13.5364C5.67091 13.4513 5.84661 13.3071 5.97022 13.1221C6.09384 12.9371 6.15982 12.7196 6.15982 12.4971C6.15982 12.1987 6.04129 11.9126 5.83032 11.7016C5.61934 11.4906 5.33319 11.3721 5.03482 11.3721ZM5.03482 17.3721C4.81232 17.3721 4.59481 17.4381 4.4098 17.5617C4.2248 17.6853 4.08061 17.861 3.99546 18.0666C3.91031 18.2721 3.88803 18.4983 3.93144 18.7165C3.97485 18.9348 4.08199 19.1352 4.23933 19.2926C4.39666 19.4499 4.59712 19.557 4.81534 19.6005C5.03357 19.6439 5.25977 19.6216 5.46534 19.5364C5.67091 19.4513 5.84661 19.3071 5.97022 19.1221C6.09384 18.9371 6.15982 18.7196 6.15982 18.4971C6.15982 18.1987 6.04129 17.9126 5.83032 17.7016C5.61934 17.4906 5.33319 17.3721 5.03482 17.3721Z" fill="#FBFBFB" fill-opacity="0.6"/>
</g>
</svg>
