<svg width="24" height="24" viewBox="0 0 24 24" fill="none" xmlns="http://www.w3.org/2000/svg">
<path fill-rule="evenodd" clip-rule="evenodd" d="M2.51239 10.7489C8.41795 8.20867 12.3559 6.534 14.3263 5.72489C19.9521 3.4147 21.1211 3.01339 21.883 3.00014C22.0506 2.99723 22.4253 3.03823 22.668 3.23267C22.873 3.39685 22.9294 3.61863 22.9563 3.77429C22.9833 3.92995 23.0169 4.28455 22.9902 4.56163C22.6854 7.7241 21.3662 15.3986 20.6951 18.9406C20.4111 20.4394 19.852 20.9419 19.3107 20.9911C18.1343 21.098 17.2409 20.2235 16.1015 19.4861C14.3186 18.3323 13.3113 17.614 11.5807 16.488C9.58058 15.1868 10.8772 14.4716 12.017 13.3027C12.3153 12.9969 17.4986 8.34226 17.5989 7.92001C17.6115 7.86721 17.6231 7.67036 17.5046 7.56642C17.3862 7.46248 17.2114 7.49802 17.0852 7.52629C16.9064 7.56636 14.0581 9.42501 8.54035 13.1022C7.73187 13.6503 6.99958 13.9174 6.34347 13.9034C5.62016 13.888 4.2288 13.4996 3.19447 13.1677C1.92583 12.7606 0.91753 12.5453 1.00533 11.8539C1.05106 11.4937 1.55341 11.1254 2.51239 10.7489Z" fill="#C2E2FF"/>
</svg>
