<svg width="36" height="36" viewBox="0 0 36 36" fill="none" xmlns="http://www.w3.org/2000/svg">
<g clip-path="url(#clip0_7595_8243)">
<rect width="36" height="36" rx="18" fill="#242424"/>
<rect width="36" height="36" rx="18" fill="#242424"/>
<g clip-path="url(#clip1_7595_8243)">
<path d="M7.99367 19.6299C7.95748 19.6299 7.92129 19.6317 7.88509 19.6317C7.07216 17.1948 7.12784 14.7792 8.12638 12.3988C9.12028 10.0296 10.7285 8.20696 13.0634 7.01539C12.9372 6.97548 12.8769 7.02281 12.8166 7.0488C12.0853 7.36061 11.3679 7.70583 10.7313 8.18654C7.00719 10.9975 5.52423 14.7792 6.13208 19.3375C6.5172 22.2283 7.91943 24.6532 10.1801 26.5333C12.2384 28.2456 14.6281 29.1077 17.2989 29.2032C18.7391 29.2543 20.1414 29.0251 21.525 28.6474C21.5723 28.6344 21.6225 28.6251 21.6503 28.5667C21.6132 28.5667 21.5826 28.5639 21.5529 28.5667C19.7173 28.755 17.9151 28.5759 16.2196 27.8456C13.1312 26.5148 11.044 24.3154 10.5401 20.8725C10.3917 19.8545 10.5151 18.8392 10.9225 17.8777C10.9902 17.7181 11.0552 17.553 11.2454 17.4017C11.2454 17.5567 11.2454 17.6681 11.2454 17.7794C11.2529 19.8387 11.908 21.6854 13.0987 23.3475C14.294 25.016 15.8929 26.1844 17.7434 27.0289C19.0974 27.6469 20.5293 27.9653 22.0076 28.085C22.402 28.1165 22.7843 28.1639 23.1769 27.9588C26.1169 26.4266 28.1715 24.1354 29.2433 20.9829C29.6553 19.7709 29.8837 18.5237 29.9718 17.2513C30.0108 16.6945 30.0219 16.1331 29.9217 15.5689C29.841 15.6125 29.8475 15.6784 29.8326 15.7369C29.3389 17.6839 28.3515 19.3412 26.7646 20.569C24.3954 22.4009 21.6958 23.122 18.7187 22.6645C16.7866 22.3675 15.1403 21.5221 13.8337 20.0354C11.9155 17.8518 11.573 14.871 12.9817 12.331C13.8652 10.7376 15.2034 9.65095 16.8469 8.91132C16.8887 8.89276 16.9332 8.87698 16.9741 8.85656C17.0149 8.83615 17.0529 8.81016 17.0919 8.78696C14.9166 9.4375 13.2193 10.7748 11.7531 12.5166C11.7744 12.4415 11.78 12.4118 11.7902 12.3849C12.0268 11.7464 12.4138 11.2044 12.8481 10.6857C14.4035 8.82687 16.4135 7.82276 18.7976 7.57405C20.2972 7.41722 21.7635 7.66407 23.1908 8.14014C23.4785 8.23572 23.7634 8.34245 24.0891 8.45845C24.0483 8.40926 24.0409 8.39441 24.0297 8.38699C23.9768 8.35544 23.923 8.32574 23.8683 8.29697C22.5227 7.59632 21.0861 7.23533 19.5762 7.12489C18.0812 7.01632 16.6186 7.14902 15.195 7.63159C12.9502 8.39256 11.2009 9.79943 9.86455 11.7371C8.65349 13.4929 8.03822 15.4436 7.99553 17.5743C7.98161 18.2611 7.99367 18.9478 7.99367 19.6345V19.6299ZM19.6059 9.14146C19.128 9.19158 18.6807 9.34841 18.2408 9.52844C17.8047 9.70662 17.3907 9.93027 16.9954 10.1846C16.5917 10.4444 16.227 10.7534 15.8827 11.0875C15.5468 11.4132 15.2377 11.7631 14.9185 12.0972C16.1537 9.80314 18.2231 8.75263 20.6713 8.26078C20.4105 8.24593 20.1544 8.29233 19.8982 8.33224C17.89 8.64498 16.1797 9.51638 14.8498 11.0717C13.4801 12.6753 12.9214 14.5063 13.3808 16.599C13.5488 17.3664 13.8782 18.0643 14.3404 18.7028C14.0694 18.1571 13.9329 17.578 13.9135 16.9739C13.894 16.3605 13.9821 15.7601 14.1742 15.1764C14.3997 14.4933 14.757 13.8038 14.9965 13.6108C14.7375 14.2344 14.5389 14.8654 14.4703 15.529C14.3274 16.9229 14.6763 18.1237 15.8809 18.9552C16.6706 19.5 17.5652 19.6976 18.5183 19.6373C19.6059 19.5677 20.6369 19.2624 21.6457 18.8689C21.6949 18.8494 21.7682 18.8522 21.7756 18.7585C21.4944 18.7455 21.2169 18.738 20.9413 18.7176C19.7321 18.6304 18.5749 18.378 17.5801 17.63C16.201 16.5943 15.3686 15.2923 15.6145 13.4892C15.8048 12.0963 16.4256 10.9483 17.5866 10.1159C18.2037 9.67321 18.8802 9.35769 19.6068 9.13961L19.6059 9.14146Z" fill="url(#paint0_linear_7595_8243)"/>
</g>
</g>
<defs>
<linearGradient id="paint0_linear_7595_8243" x1="18" y1="7" x2="18" y2="29.2103" gradientUnits="userSpaceOnUse">
<stop stop-color="white"/>
<stop offset="0.96875" stop-color="#C1C1C1"/>
<stop offset="1" stop-color="#9F9F9F"/>
</linearGradient>
<clipPath id="clip0_7595_8243">
<rect width="36" height="36" rx="18" fill="white"/>
</clipPath>
<clipPath id="clip1_7595_8243">
<rect width="24" height="22.7368" fill="white" transform="translate(6 7)"/>
</clipPath>
</defs>
</svg>
