<svg width="24" height="24" viewBox="0 0 24 24" fill="none" xmlns="http://www.w3.org/2000/svg">
<path d="M20.3483 4.52022C20.3416 4.5075 20.3305 4.49753 20.3171 4.4921C18.761 3.78932 17.1189 3.28818 15.4319 3.00123C15.4166 2.99842 15.4008 3.00045 15.3867 3.00701C15.3726 3.01358 15.361 3.02435 15.3534 3.03779C15.1298 3.43728 14.9269 3.84763 14.7453 4.26726C12.9268 3.99552 11.077 3.99552 9.25848 4.26726C9.07569 3.84656 8.86946 3.43612 8.64072 3.03779C8.63287 3.02464 8.62119 3.01412 8.60718 3.00759C8.59317 3.00107 8.57749 2.99886 8.56219 3.00123C6.87499 3.28758 5.2328 3.78875 3.67695 4.49214C3.66363 4.4977 3.65239 4.50719 3.64478 4.5193C0.533384 9.09316 -0.318946 13.5546 0.0991784 17.9607C0.100355 17.9715 0.103725 17.982 0.109089 17.9915C0.114453 18.001 0.121702 18.0093 0.130403 18.016C1.94214 19.3365 3.96859 20.3444 6.12328 20.9968C6.13845 21.0013 6.15466 21.0011 6.16971 20.9962C6.18477 20.9913 6.19795 20.9821 6.20749 20.9696C6.67027 20.3498 7.08032 19.6934 7.43349 19.0072C7.43834 18.9978 7.44111 18.9875 7.44162 18.9769C7.44213 18.9664 7.44035 18.9558 7.43643 18.946C7.4325 18.9362 7.4265 18.9273 7.41882 18.9199C7.41115 18.9126 7.40197 18.9069 7.3919 18.9032C6.74527 18.6597 6.11925 18.3661 5.51973 18.0252C5.50884 18.0189 5.49969 18.0101 5.4931 17.9995C5.4865 17.9888 5.48266 17.9768 5.48191 17.9644C5.48117 17.952 5.48354 17.9396 5.48882 17.9283C5.49409 17.917 5.50212 17.9071 5.51218 17.8996C5.63833 17.8068 5.7623 17.7112 5.88397 17.6129C5.89465 17.6042 5.90756 17.5987 5.92126 17.5968C5.93496 17.595 5.94891 17.597 5.96153 17.6026C9.88925 19.3671 14.1416 19.3671 18.0228 17.6026C18.0354 17.5966 18.0495 17.5944 18.0634 17.596C18.0773 17.5977 18.0905 17.6032 18.1013 17.6119C18.2231 17.7108 18.3474 17.8068 18.4741 17.8996C18.4842 17.9071 18.4923 17.9168 18.4976 17.9281C18.503 17.9393 18.5055 17.9517 18.5048 17.9641C18.5041 17.9766 18.5004 17.9886 18.4939 17.9993C18.4874 18.0099 18.4783 18.0188 18.4674 18.0252C17.8693 18.369 17.2427 18.6624 16.5944 18.9023C16.5843 18.9061 16.5752 18.9119 16.5675 18.9194C16.5599 18.9269 16.554 18.9359 16.5501 18.9458C16.5463 18.9557 16.5446 18.9663 16.5452 18.9769C16.5458 18.9874 16.5486 18.9978 16.5536 19.0072C16.9126 19.6896 17.3221 20.3451 17.7786 20.9685C17.7879 20.9813 17.801 20.9909 17.8161 20.996C17.8312 21.001 17.8476 21.0013 17.8628 20.9967C20.0214 20.3465 22.0514 19.3385 23.8654 18.016C23.8742 18.0096 23.8816 18.0015 23.887 17.9921C23.8923 17.9828 23.8956 17.9724 23.8966 17.9616C24.3972 12.8677 23.0586 8.44283 20.3483 4.52022ZM8.02006 15.2778C6.83753 15.2778 5.86316 14.2096 5.86316 12.8977C5.86316 11.5858 6.81863 10.5175 8.02006 10.5175C9.23088 10.5175 10.1958 11.595 10.1769 12.8976C10.1769 14.2096 9.22141 15.2778 8.02006 15.2778ZM15.9948 15.2778C14.8123 15.2778 13.8379 14.2096 13.8379 12.8977C13.8379 11.5858 14.7934 10.5175 15.9948 10.5175C17.2057 10.5175 18.1706 11.595 18.1517 12.8976C18.1517 14.2096 17.2057 15.2778 15.9948 15.2778Z" fill="#C2E2FF"/>
</svg>
