<svg width="18" height="19" viewBox="0 0 18 19" fill="none" xmlns="http://www.w3.org/2000/svg">
<g id="renzo" clip-path="url(#clip0_9490_2086)">
<path id="Vector" d="M17.9684 10.334C17.9684 10.3516 17.9684 10.3692 17.9684 10.3869C17.5809 14.6849 14.1636 18.0495 9.98877 18.4722C9.95352 18.4722 9.93589 18.4722 9.90063 18.4722L17.9684 10.334Z" fill="#ACE730"/>
<path id="Vector_2" d="M12.9471 1.43748C12.7182 1.33178 12.4891 1.22609 12.2601 1.13802C11.8021 0.961865 11.3266 0.820939 10.8333 0.715248C10.2344 0.591941 9.6355 0.521484 9.00134 0.521484C8.70189 0.521484 8.40243 0.539096 8.10297 0.556712C6.02438 0.768095 4.1748 1.66647 2.74797 3.04047C2.65989 3.12854 2.5542 3.23423 2.46612 3.32231C1.10975 4.74914 0.228999 6.63398 0.0352324 8.69496C0.0176173 8.95918 0 9.22342 0 9.50525C0 10.1746 0.0704627 10.8264 0.211384 11.4605C0.317075 11.9362 0.457996 12.3941 0.634147 12.8521C0.739837 13.0987 0.845532 13.3454 0.951221 13.5744C1.1626 13.9795 1.39161 14.367 1.65583 14.737L3.1355 13.2397L12.6477 3.62176L14.1274 2.12447C13.775 1.87785 13.3699 1.64886 12.9471 1.43748ZM2.27236 11.214C2.25475 11.1611 2.23713 11.0907 2.23713 11.0378C2.13143 10.5446 2.07859 10.0337 2.07859 9.52287C2.07859 7.74373 2.74797 6.07029 3.96341 4.78437L4.21002 4.53776C5.51355 3.28708 7.2046 2.60008 9.01896 2.60008C9.49458 2.60008 9.97013 2.65293 10.4282 2.741C10.4987 2.75861 10.5691 2.77623 10.6396 2.79385L2.27236 11.214Z" fill="#ACE730"/>
<path id="Vector_3" d="M5.90224 17.9807C5.67324 17.8926 5.46185 17.8045 5.25048 17.7165C4.81009 17.5051 4.38733 17.2761 3.98218 16.9943L16.4185 4.43457C16.6827 4.8221 16.9293 5.22726 17.1231 5.66764C17.2288 5.89664 17.3344 6.12564 17.4226 6.35463L5.90224 17.9807Z" fill="#ACE730"/>
</g>
<defs>
<clipPath id="clip0_9490_2086">
<rect width="18" height="18" fill="white" transform="translate(0 0.49707)"/>
</clipPath>
</defs>
</svg>
