<svg width="48" height="48" viewBox="0 0 48 48" fill="none" xmlns="http://www.w3.org/2000/svg">
<g filter="url(#filter0_d_9743_7052)">
<rect x="8" y="4" width="32" height="32" rx="16" fill="url(#paint0_linear_9743_7052)" fill-opacity="0.3" shape-rendering="crispEdges"/>
<rect x="8.5" y="4.5" width="31" height="31" rx="15.5" stroke="url(#paint1_radial_9743_7052)" shape-rendering="crispEdges"/>
<rect x="8.5" y="4.5" width="31" height="31" rx="15.5" stroke="url(#paint2_radial_9743_7052)" shape-rendering="crispEdges"/>
<g clip-path="url(#clip0_9743_7052)">
<path d="M32.946 11H15V28.9674H32.946V11Z" fill="#61DFFF"/>
<mask id="mask0_9743_7052" style="mask-type:luminance" maskUnits="userSpaceOnUse" x="19" y="15" width="10" height="10">
<path d="M28.4316 15.501H19.4729V24.499H28.4316V15.501Z" fill="white"/>
</mask>
<g mask="url(#mask0_9743_7052)">
<path d="M26.9131 24.4988H19.4729V16.9609H21.1752V23.038H26.9131V24.4981V24.4988Z" fill="#121212"/>
<path d="M26.913 18.4211C27.7516 18.4211 28.4315 17.7674 28.4315 16.9611C28.4315 16.1547 27.7516 15.501 26.913 15.501C26.0743 15.501 25.3945 16.1547 25.3945 16.9611C25.3945 17.7674 26.0743 18.4211 26.913 18.4211Z" fill="#121212"/>
</g>
</g>
</g>
<defs>
<filter id="filter0_d_9743_7052" x="0" y="0" width="48" height="48" filterUnits="userSpaceOnUse" color-interpolation-filters="sRGB">
<feFlood flood-opacity="0" result="BackgroundImageFix"/>
<feColorMatrix in="SourceAlpha" type="matrix" values="0 0 0 0 0 0 0 0 0 0 0 0 0 0 0 0 0 0 127 0" result="hardAlpha"/>
<feOffset dy="4"/>
<feGaussianBlur stdDeviation="4"/>
<feComposite in2="hardAlpha" operator="out"/>
<feColorMatrix type="matrix" values="0 0 0 0 0 0 0 0 0 0 0 0 0 0 0 0 0 0 0.25 0"/>
<feBlend mode="normal" in2="BackgroundImageFix" result="effect1_dropShadow_9743_7052"/>
<feBlend mode="normal" in="SourceGraphic" in2="effect1_dropShadow_9743_7052" result="shape"/>
</filter>
<linearGradient id="paint0_linear_9743_7052" x1="24" y1="36" x2="24" y2="4" gradientUnits="userSpaceOnUse">
<stop stop-color="#040507"/>
<stop offset="1" stop-color="#181D28"/>
</linearGradient>
<radialGradient id="paint1_radial_9743_7052" cx="0" cy="0" r="1" gradientUnits="userSpaceOnUse" gradientTransform="translate(31.6174 2.02726) rotate(118.982) scale(44.174 29.0743)">
<stop stop-color="#635F5F" stop-opacity="0"/>
<stop offset="0.5" stop-color="#635F5F" stop-opacity="0.15"/>
<stop offset="1" stop-color="#635F5F" stop-opacity="0.3"/>
</radialGradient>
<radialGradient id="paint2_radial_9743_7052" cx="0" cy="0" r="1" gradientUnits="userSpaceOnUse" gradientTransform="translate(10.1333 4.67941) rotate(43.9202) scale(41.4638 27.7896)">
<stop stop-color="#FB2450"/>
<stop offset="0.245" stop-color="#FBC82E"/>
<stop offset="0.54" stop-color="#6EEE3F"/>
<stop offset="0.77" stop-color="#5889F3"/>
<stop offset="0.885" stop-color="#5095F1"/>
<stop offset="1" stop-color="#B10AF4"/>
</radialGradient>
<clipPath id="clip0_9743_7052">
<rect x="15" y="11" width="18" height="18" rx="9" fill="white"/>
</clipPath>
</defs>
</svg>
