<svg width="25" height="25" viewBox="0 0 25 25" fill="none" xmlns="http://www.w3.org/2000/svg">
<g clip-path="url(#clip0_10608_3066)">
<path d="M12.0898 3.54108V12.2308C12.0898 12.4297 12.0108 12.6204 11.8702 12.7611C11.7295 12.9018 11.5388 12.9808 11.3398 12.9808C11.1409 12.9808 10.9502 12.9018 10.8095 12.7611C10.6689 12.6204 10.5898 12.4297 10.5898 12.2308V3.54108L8.87047 5.26139C8.80079 5.33108 8.71806 5.38635 8.62702 5.42406C8.53597 5.46178 8.43839 5.48119 8.33984 5.48119C8.14082 5.48119 7.94995 5.40212 7.80922 5.26139C7.73954 5.19171 7.68426 5.10899 7.64655 5.01794C7.60884 4.9269 7.58943 4.82932 7.58943 4.73077C7.58943 4.53175 7.66849 4.34087 7.80922 4.20014L10.8092 1.20014C10.8789 1.13041 10.9616 1.07509 11.0526 1.03735C11.1437 0.999606 11.2413 0.980179 11.3398 0.980179C11.4384 0.980179 11.536 0.999606 11.627 1.03735C11.7181 1.07509 11.8008 1.13041 11.8705 1.20014L14.8705 4.20014C15.0112 4.34087 15.0903 4.53175 15.0903 4.73077C15.0903 4.92979 15.0112 5.12066 14.8705 5.26139C14.7297 5.40212 14.5389 5.48119 14.3398 5.48119C14.1408 5.48119 13.9499 5.40212 13.8092 5.26139L12.0898 3.54108ZM18.0898 11.8201V9.23077C18.0898 8.83294 17.9318 8.45141 17.6505 8.17011C17.3692 7.8888 16.9877 7.73077 16.5898 7.73077H15.0898C14.8909 7.73077 14.7002 7.80979 14.5595 7.95044C14.4189 8.09109 14.3398 8.28186 14.3398 8.48077C14.3398 8.67968 14.4189 8.87045 14.5595 9.0111C14.7002 9.15175 14.8909 9.23077 15.0898 9.23077H16.5898V16.7683C16.1426 16.3114 15.5439 16.0334 14.9063 15.9866C14.2686 15.9398 13.6358 16.1273 13.1266 16.5139C12.6174 16.9006 12.2668 17.4598 12.1406 18.0866C12.0145 18.7134 12.1214 19.3647 12.4414 19.9183L12.4639 19.9539L14.5508 23.1414C14.6597 23.3079 14.8303 23.4242 15.025 23.4649C15.2197 23.5056 15.4226 23.4673 15.5891 23.3584C15.7555 23.2495 15.8719 23.0789 15.9126 22.8842C15.9533 22.6895 15.915 22.4866 15.8061 22.3201L13.7314 19.1523C13.5843 18.8926 13.5465 18.5851 13.6261 18.2975C13.7057 18.0099 13.8964 17.7657 14.1561 17.6186C14.4158 17.4715 14.7233 17.4336 15.0109 17.5133C15.2986 17.5929 15.5428 17.7836 15.6898 18.0433C15.6964 18.0555 15.7039 18.0676 15.7114 18.0789L16.7127 19.608C16.8012 19.7429 16.9308 19.8457 17.0824 19.9011C17.234 19.9565 17.3995 19.9615 17.5541 19.9154C17.7088 19.8693 17.8445 19.7745 17.941 19.6452C18.0375 19.5158 18.0897 19.3587 18.0898 19.1973V13.7308C18.7968 14.3851 19.3614 15.1781 19.7485 16.0602C20.1356 16.9423 20.3369 17.8947 20.3398 18.858V22.7308C20.3398 22.9297 20.4189 23.1204 20.5595 23.2611C20.7002 23.4018 20.8909 23.4808 21.0898 23.4808C21.2888 23.4808 21.4795 23.4018 21.6202 23.2611C21.7608 23.1204 21.8398 22.9297 21.8398 22.7308V18.8542C21.8356 17.4649 21.4917 16.0976 20.8381 14.8716C20.1845 13.6456 19.241 12.598 18.0898 11.8201ZM7.58984 7.73077H6.08984C5.69202 7.73077 5.31049 7.8888 5.02918 8.17011C4.74788 8.45141 4.58984 8.83294 4.58984 9.23077V18.9808C4.58984 19.1797 4.66886 19.3704 4.80951 19.5111C4.95017 19.6518 5.14093 19.7308 5.33984 19.7308C5.53876 19.7308 5.72952 19.6518 5.87017 19.5111C6.01083 19.3704 6.08984 19.1797 6.08984 18.9808V9.23077H7.58984C7.78876 9.23077 7.97952 9.15175 8.12017 9.0111C8.26083 8.87045 8.33984 8.67968 8.33984 8.48077C8.33984 8.28186 8.26083 8.09109 8.12017 7.95044C7.97952 7.80979 7.78876 7.73077 7.58984 7.73077Z" fill="white"/>
</g>
<defs>
<clipPath id="clip0_10608_3066">
<rect width="24" height="24" fill="white" transform="translate(0.0898438 0.230774)"/>
</clipPath>
</defs>
</svg>
