<svg width="64" height="64" viewBox="0 0 64 64" fill="none" xmlns="http://www.w3.org/2000/svg">
<path d="M41.2554 21.3317H22.766C21.9805 21.3317 21.3438 21.9684 21.3438 22.754V41.2431C21.3438 42.0287 21.9805 42.6654 22.766 42.6654H41.2554C42.0409 42.6654 42.6777 42.0287 42.6777 41.2431V22.754C42.6777 21.9684 42.0409 21.3317 41.2554 21.3317Z" fill="white"/>
<path d="M19.9116 0H1.42222C0.63676 0 0 0.636763 0 1.42225V19.9115C0 20.697 0.63676 21.3338 1.42222 21.3338H19.9116C20.6972 21.3338 21.3339 20.697 21.3339 19.9115V1.42225C21.3339 0.636763 20.6972 0 19.9116 0Z" fill="white"/>
<path d="M62.5807 0H44.0912C43.3057 0 42.6689 0.636763 42.6689 1.42225V19.9115C42.6689 20.697 43.3057 21.3338 44.0912 21.3338H62.5807C63.3661 21.3338 64.0029 20.697 64.0029 19.9115V1.42225C64.0029 0.636763 63.3661 0 62.5807 0Z" fill="white"/>
<path d="M19.9116 42.6663H1.42222C0.63676 42.6663 0 43.303 0 44.0885V62.5777C0 63.3632 0.63676 64 1.42222 64H19.9116C20.6972 64 21.3339 63.3632 21.3339 62.5777V44.0885C21.3339 43.303 20.6972 42.6663 19.9116 42.6663Z" fill="white"/>
<path d="M62.5807 42.6663H44.0912C43.3057 42.6663 42.6689 43.303 42.6689 44.0885V62.5777C42.6689 63.3632 43.3057 64 44.0912 64H62.5807C63.3661 64 64.0029 63.3632 64.0029 62.5777V44.0885C64.0029 43.303 63.3661 42.6663 62.5807 42.6663Z" fill="white"/>
</svg>
