<?xml version="1.0" encoding="UTF-8"?>
<svg width="254px" height="47px" viewBox="0 0 254 47" version="1.1" xmlns="http://www.w3.org/2000/svg" xmlns:xlink="http://www.w3.org/1999/xlink">
    <title>NOVA-WHITE备份</title>
    <g id="页面-1" stroke="none" stroke-width="1" fill="none" fill-rule="evenodd">
        <g id="NOVA-WHITE备份" transform="translate(1.000000, 2.000000)">
            <g id="11">
                <g id="zz" transform="translate(52.500000, 7.500000)" fill="#FFFFFF" fill-rule="nonzero">
                    <path d="M15.7488463,25.8018277 L15.7488463,22.3668407 L5.89400659,22.3668407 L5.89400659,22.1686684 L15.1162721,11.2361619 L15.1162721,7.96631854 L1.56586755,7.96631854 L1.56586755,11.3022193 L9.95579862,11.3022193 L9.95579862,11.5003916 L0.9,22.333812 L0.9,25.8018277 L15.7488463,25.8018277 Z M23.8724303,25.8018277 L23.8724303,17.9740209 L24.7380581,17.9740209 L30.198172,25.8018277 L35.3253521,25.8018277 L28.2338628,16.2565274 L35.0257117,7.96631854 L30.0982919,7.96631854 L24.904525,14.770235 L23.8724303,14.770235 L23.8724303,0.7 L19.7107582,0.7 L19.7107582,25.8018277 L23.8724303,25.8018277 Z M43.4489362,23.3577023 C43.4489362,21.0835937 42.9657751,20.7267664 40.8905587,20.7156783 L40.785466,20.7154047 C38.5548097,20.7154047 38.1219958,21.0456919 38.1219958,23.3577023 C38.1219958,25.5999263 38.5409606,25.9877818 40.6789284,25.9997099 L40.785466,26 C42.9495355,26 43.4489362,25.6366841 43.4489362,23.3577023 Z M62.6925082,25.8018277 L62.6925082,22.0035248 L53.2038957,22.0035248 L53.2038957,2.87989556 L48.8424633,2.87989556 L48.8424633,25.8018277 L62.6925082,25.8018277 Z M70.4831585,2.97898172 C70.4831585,0.999576291 70.001127,0.773569976 68.2162008,0.766249165 L68.1193287,0.766057441 C66.2548996,0.766057441 65.755499,0.964229765 65.755499,2.97898172 C65.755499,4.92531705 66.2372231,5.21495028 68.0207495,5.22467368 L68.1193287,5.22493473 C69.9837579,5.22493473 70.4831585,4.96070496 70.4831585,2.97898172 Z M70.1835181,25.8018277 L70.1835181,7.96631854 L66.021846,7.96631854 L66.021846,25.8018277 L70.1835181,25.8018277 Z M79.5722505,25.8018277 L79.5722505,13.9114883 C80.3047048,11.6655352 81.8362002,11.0710183 83.9669763,11.0710183 C86.497273,11.0710183 87.0632604,12.2270235 87.0632604,14.7372063 L87.0632604,25.8018277 L91.2249326,25.8018277 L91.2249326,13.581201 C91.2249326,9.81592689 89.7933174,7.63603133 85.2321247,7.63603133 C82.7684147,7.63603133 80.6043452,8.36266319 79.5722505,10.2122715 L79.5722505,7.96631854 L75.4105784,7.96631854 L75.4105784,25.8018277 L79.5722505,25.8018277 Z M100.547078,25.8018277 L100.547078,17.9740209 L101.412706,17.9740209 L106.87282,25.8018277 L112,25.8018277 L104.908511,16.2565274 L111.70036,7.96631854 L106.77294,7.96631854 L101.579173,14.770235 L100.547078,14.770235 L100.547078,0.7 L96.3854061,0.7 L96.3854061,25.8018277 L100.547078,25.8018277 Z" id="zk.Link"></path>
                </g>
                <g id="3">
                    <polygon id="copy-21" stroke="#03D498" stroke-width="2.565217" points="11.0422535 18.3913043 21.471151 24.4285714 21.471151 36.5031056 11.0422535 42.5403727 0.61335605 36.5031056 0.61335605 24.4285714"></polygon>
                    <polygon id="copy-22" stroke="#03D498" stroke-width="2.565217" points="31.8987753 18.3913043 42.3276727 24.4285714 42.3276727 36.5031056 31.8987753 42.5403727 21.4698778 36.5031056 21.4698778 24.4285714"></polygon>
                    <line x1="21.4686957" y1="36.3354037" x2="21.4686957" y2="24.2608696" id="line" stroke="#03D498" stroke-width="2.565217"></line>
                    <polygon id="copy-23" stroke="#03D498" stroke-width="2.565217" points="21.4783405 0.273913043 31.9072379 6.31118012 31.9072379 18.3857143 21.4783405 24.4229814 11.049443 18.3857143 11.049443 6.31118012"></polygon>
                    <polyline id="line" stroke="#03D498" stroke-width="2.565217" points="31.9099688 18.3913043 21.4810714 24.4285714 11.0521739 18.3913043"></polyline>
                    <polygon id="copy-24" stroke="#FFFFFF" stroke-width="2.565217" stroke-linecap="round" points="21.4783405 12.3652174 31.9072379 18.4024845 31.9072379 30.4770186 21.4783405 36.5142857 11.049443 30.4770186 11.049443 18.4024845"></polygon>
                    <circle id="copy-4" fill="#03D498" fill-rule="nonzero" cx="21.5" cy="24" r="3"></circle>
                </g>
            </g>
            <path d="M207.152211,14.3055664 C209.036716,14.3055664 210.633949,14.7192383 211.94391,15.546582 C213.253871,16.3739258 214.250705,17.5029053 214.934413,18.9335205 C215.565528,20.2540884 215.905359,21.7386564 215.953906,23.3872245 L215.959975,23.8027832 L215.959975,24.1647461 L215.953906,24.577806 C215.905359,26.216991 215.565528,27.6995192 214.934413,29.0253906 C214.250705,30.4617513 213.256744,31.5907308 211.952528,32.4123291 C210.648313,33.2339274 209.059698,33.6447266 207.186684,33.6447266 C205.32516,33.6447266 203.739418,33.2339274 202.429457,32.4123291 C201.119496,31.5907308 200.119789,30.4617513 199.430336,29.0253906 C198.793918,27.6995192 198.451231,26.216991 198.402276,24.577806 L198.396156,24.1647461 L198.396156,23.8027832 L198.402276,23.3872245 C198.451231,21.7386564 198.793918,20.2540884 199.430336,18.9335205 C200.119789,17.5029053 201.116623,16.3739258 202.420839,15.546582 C203.725054,14.7192383 205.302178,14.3055664 207.152211,14.3055664 Z M244.357555,14.3055664 C245.782425,14.3055664 247.05504,14.546875 248.175401,15.0294922 C249.295763,15.5121094 250.174816,16.2360352 250.81256,17.2012695 C251.401247,18.0922551 251.718232,19.1888527 251.763515,20.4910624 L251.769176,20.8208984 L251.769176,28.835791 C251.769176,29.8240072 251.832376,30.6456055 251.958775,31.3005859 C252.064109,31.846403 252.209341,32.3323717 252.394472,32.758492 L252.510338,33.0069824 L252.510338,33.3 L247.701402,33.3 L247.606427,33.0803248 C247.484483,32.7768716 247.381299,32.431207 247.296876,32.043331 L247.237077,31.7445093 L247.212,31.597 L247.162288,31.6520155 C247.016099,31.8084192 246.859695,31.9613118 246.693077,32.1106934 C246.193224,32.5588379 245.589952,32.9265462 244.883263,33.2138184 C244.176573,33.5010905 243.357848,33.6447266 242.427086,33.6447266 C241.232034,33.6447266 240.154763,33.4062907 239.195275,32.9294189 C238.235786,32.4525472 237.477387,31.7918213 236.920079,30.9472412 C236.362771,30.1026611 236.084117,29.1402995 236.084117,28.0601562 C236.084117,26.1934619 236.745238,24.731218 238.06748,23.6734246 L238.281749,23.5097656 L238.506532,23.3534752 C239.885352,22.4397775 241.806341,21.9588839 244.269499,21.9107946 L244.685045,21.9067871 L247.011,21.907 L247.011949,20.7864258 C247.011949,19.8901367 246.776386,19.1748291 246.30526,18.6405029 C245.834134,18.1061768 245.098717,17.8390137 244.09901,17.8390137 C243.524466,17.8390137 243.021739,17.9366862 242.590831,18.1320312 C242.159923,18.3273763 241.926278,18.495392 241.664599,18.7241021 C241.40292,18.9528123 241.117381,19.2786038 240.838837,19.7517347 C239.848254,19.0109135 238.728728,18.1808675 237.48026,17.2615967 C238.123749,16.3710531 239.034402,15.6557454 240.212218,15.1156738 C241.390034,14.5756022 242.771813,14.3055664 244.357555,14.3055664 Z M180.614544,15.3100902 C183.019396,17.8273872 185.045798,20.3535597 186.694294,22.8879792 C188.751606,26.0509165 190.405203,29.5208834 191.655077,33.2994592 L189.652664,33.3 C188.511645,29.9060637 186.982608,26.7282728 185.065552,23.7666273 C183.595972,21.496285 182.112199,19.6205432 180.614231,18.139402 L180.614544,15.3100902 Z M178.462671,8.20387622 C180.411078,9.67157044 182.385454,11.4447283 184.3858,13.5233499 C186.163885,15.3710135 187.757687,17.2160412 189.167205,19.0584329 L189.526767,19.5351243 C191.553096,22.5749417 193.238125,25.68667 194.582407,28.8706205 L194.582254,33.3 L193.230332,33.2998762 L193.144311,33.0266261 C191.933615,29.3157281 190.345125,25.8864034 188.378835,22.7400026 L187.951705,22.0701048 C185.86072,18.8553985 183.117563,15.6269811 179.860181,12.4564848 L179.24343,11.862713 L179.242922,11.864713 L179.241922,11.8627777 L179.241922,33.3 L174.312332,33.3 L174.312332,8.20387622 L178.462671,8.20387622 Z M222.34209,14.650293 L225.986,27.445 L229.581348,14.650293 L234.528174,14.650293 L228.185205,33.3 L223.755469,33.3 L217.395264,14.650293 L222.34209,14.650293 Z M244.909117,24.7335449 L244.616759,24.7377661 C243.374073,24.7743493 242.445964,25.0487235 241.832433,25.5608887 C241.171707,26.1124512 240.841344,26.8191406 240.841344,27.680957 C240.841344,28.3359375 241.068289,28.8817546 241.522179,29.3184082 C241.93068,29.7113965 242.485776,29.92754 243.187467,29.9668389 L243.426793,29.9733887 L243.714963,29.9661171 L243.993437,29.9443024 C244.540691,29.8861298 245.029772,29.7406982 245.46068,29.5080078 C245.953146,29.2420759 246.350637,28.9254903 246.653152,28.558251 L246.796495,28.3704102 L246.907589,28.2039719 L246.957581,28.1219646 L246.957581,28.1219646 L247.00387,28.0407654 L247.011,28.025 L247.011,24.734 L244.909117,24.7335449 Z M207.152211,18.1147949 C206.198467,18.1147949 205.425705,18.3762126 204.833925,18.8990479 C204.242144,19.4218831 203.814109,20.114209 203.549818,20.9760254 C203.318564,21.7301147 203.188484,22.5457881 203.159577,23.4230453 L203.153383,23.8027832 L203.153383,24.1647461 L203.159712,24.5485237 C203.189247,25.4345787 203.322155,26.2546509 203.558436,27.0087402 C203.828472,27.8705566 204.25938,28.557137 204.851161,29.0684814 C205.442942,29.5798258 206.221449,29.835498 207.186684,29.835498 C208.151918,29.835498 208.930425,29.5798258 209.522206,29.0684814 C210.113987,28.557137 210.544895,27.8705566 210.814931,27.0087402 C211.051212,26.2546509 211.18412,25.4345787 211.213655,24.5485237 L211.219984,24.1647461 L211.219984,23.8027832 L211.213655,23.4230453 C211.18412,22.5457881 211.051212,21.7301147 210.814931,20.9760254 C210.544895,20.114209 210.113987,19.4218831 209.522206,18.8990479 C208.930425,18.3762126 208.140427,18.1147949 207.152211,18.1147949 Z M194.582254,8.20387622 L194.583266,25.2749538 C193.209342,22.5009192 191.577494,19.7840162 189.688073,17.1244432 L189.687137,8.20387622 L194.582254,8.20387622 Z" id="形状结合" fill="#FFFFFF" fill-rule="nonzero"></path>
        </g>
    </g>
</svg>