<svg width="74" height="47" viewBox="0 0 74 47" fill="none" xmlns="http://www.w3.org/2000/svg">
<g opacity="0.6">
<mask id="path-1-outside-1_9240_2457" maskUnits="userSpaceOnUse" x="-1" y="0" width="76" height="48" fill="black">
<rect fill="white" x="-1" width="76" height="48"/>
<path d="M0.317421 23.92C0.317421 10.18 8.11742 0.76 19.6974 0.76C31.2774 0.76 39.0774 10.18 39.0774 23.92C39.0774 37.66 31.8774 46.78 19.6974 46.78C7.51742 46.78 0.317421 37.66 0.317421 23.92ZM9.91742 23.92C9.91742 33.46 13.5174 38.26 19.6974 38.26C25.8774 38.26 29.4774 33.46 29.4774 23.92C29.4774 14.08 25.8774 9.28 19.6974 9.28C13.5174 9.28 9.91742 14.08 9.91742 23.92ZM56.3438 25.12H49.8638V18.88C49.9838 18.76 50.1038 18.7 50.2238 18.58L59.8838 10.12H43.1438V1.6H72.0638V9.34L62.7038 17.56C68.7038 19.36 73.5638 24.16 73.5638 31.72C73.5638 41.08 66.0038 46.78 57.0038 46.78C48.3638 46.78 41.1038 41.5 41.1038 31.48H50.7038C50.7038 35.86 53.3438 38.2 57.2438 38.2C61.0238 38.2 63.6038 35.62 63.6038 31.66C63.6038 28.12 61.5638 25.12 56.3438 25.12Z"/>
</mask>
<path d="M0.917421 23.92C0.917421 17.1599 2.83594 11.5151 6.12565 7.57186C9.40785 3.63757 14.0833 1.36 19.6974 1.36V0.159999C13.7315 0.159999 8.717 2.59243 5.2042 6.80314C1.6989 11.0049 -0.282579 16.9401 -0.282579 23.92H0.917421ZM19.6974 1.36C25.3115 1.36 29.987 3.63757 33.2692 7.57186C36.5589 11.5151 38.4774 17.1599 38.4774 23.92H39.6774C39.6774 16.9401 37.6959 11.0049 34.1906 6.80314C30.6778 2.59243 25.6633 0.159999 19.6974 0.159999V1.36ZM38.4774 23.92C38.4774 30.6912 36.7032 36.2572 33.4935 40.119C30.2947 43.9677 25.6248 46.18 19.6974 46.18V47.38C25.95 47.38 30.9702 45.0323 34.4164 40.886C37.8517 36.7528 39.6774 30.8888 39.6774 23.92H38.4774ZM19.6974 46.18C13.77 46.18 9.10016 43.9677 5.90135 40.119C2.69166 36.2572 0.917421 30.6912 0.917421 23.92H-0.282579C-0.282579 30.8888 1.54318 36.7528 4.97849 40.886C8.42469 45.0323 13.4448 47.38 19.6974 47.38V46.18ZM9.31742 23.92C9.31742 28.7505 10.2263 32.4767 11.9982 35.0113C13.7928 37.5785 16.4294 38.86 19.6974 38.86V37.66C16.7854 37.66 14.532 36.5415 12.9817 34.3237C11.4085 32.0733 10.5174 28.6295 10.5174 23.92H9.31742ZM19.6974 38.86C22.9654 38.86 25.602 37.5785 27.3967 35.0113C29.1685 32.4767 30.0774 28.7505 30.0774 23.92H28.8774C28.8774 28.6295 27.9863 32.0733 26.4132 34.3237C24.8628 36.5415 22.6094 37.66 19.6974 37.66V38.86ZM30.0774 23.92C30.0774 18.9427 29.1696 15.1422 27.3992 12.5698C25.6046 9.96253 22.9664 8.68 19.6974 8.68V9.88C22.6084 9.88 24.8602 10.9975 26.4107 13.2502C27.9852 15.5378 28.8774 19.0573 28.8774 23.92H30.0774ZM19.6974 8.68C16.4284 8.68 13.7902 9.96253 11.9957 12.5698C10.2252 15.1422 9.31742 18.9427 9.31742 23.92H10.5174C10.5174 19.0573 11.4096 15.5378 12.9842 13.2502C14.5346 10.9975 16.7864 9.88 19.6974 9.88V8.68ZM49.8638 25.12H49.2638V25.72H49.8638V25.12ZM49.8638 18.88L49.4396 18.4557L49.2638 18.6315V18.88H49.8638ZM50.2238 18.58L49.8285 18.1286L49.8136 18.1417L49.7996 18.1557L50.2238 18.58ZM59.8838 10.12L60.2791 10.5714L61.4796 9.52H59.8838V10.12ZM43.1438 10.12H42.5438V10.72H43.1438V10.12ZM43.1438 1.6V0.999999H42.5438V1.6H43.1438ZM72.0638 1.6H72.6638V0.999999H72.0638V1.6ZM72.0638 9.34L72.4598 9.79083L72.6638 9.61161V9.34H72.0638ZM62.7038 17.56L62.3079 17.1092L61.4944 17.8236L62.5314 18.1347L62.7038 17.56ZM41.1038 31.48V30.88H40.5038V31.48H41.1038ZM50.7038 31.48H51.3038V30.88H50.7038V31.48ZM56.3438 24.52H49.8638V25.72H56.3438V24.52ZM50.4638 25.12V18.88H49.2638V25.12H50.4638ZM50.2881 19.3043C50.3139 19.2784 50.3413 19.2569 50.4038 19.21C50.4613 19.1669 50.5539 19.0984 50.6481 19.0043L49.7996 18.1557C49.7737 18.1816 49.7464 18.2031 49.6838 18.25C49.6264 18.2931 49.5337 18.3616 49.4396 18.4557L50.2881 19.3043ZM50.6191 19.0314L60.2791 10.5714L59.4885 9.66862L49.8285 18.1286L50.6191 19.0314ZM59.8838 9.52H43.1438V10.72H59.8838V9.52ZM43.7438 10.12V1.6H42.5438V10.12H43.7438ZM43.1438 2.2H72.0638V0.999999H43.1438V2.2ZM71.4638 1.6V9.34H72.6638V1.6H71.4638ZM71.6679 8.88917L62.3079 17.1092L63.0998 18.0108L72.4598 9.79083L71.6679 8.88917ZM62.5314 18.1347C68.3296 19.8741 72.9638 24.4755 72.9638 31.72H74.1638C74.1638 23.8445 69.0781 18.8458 62.8762 16.9853L62.5314 18.1347ZM72.9638 31.72C72.9638 40.6673 65.7601 46.18 57.0038 46.18V47.38C66.2476 47.38 74.1638 41.4927 74.1638 31.72H72.9638ZM57.0038 46.18C52.802 46.18 48.9778 44.8964 46.2124 42.439C43.4567 39.9903 41.7038 36.3342 41.7038 31.48H40.5038C40.5038 36.6458 42.3809 40.6397 45.4153 43.336C48.4398 46.0236 52.5656 47.38 57.0038 47.38V46.18ZM41.1038 32.08H50.7038V30.88H41.1038V32.08ZM50.1038 31.48C50.1038 33.792 50.8034 35.6399 52.0899 36.9095C53.3744 38.1773 55.1746 38.8 57.2438 38.8V37.6C55.413 37.6 53.9432 37.0527 52.9328 36.0555C51.9243 35.0601 51.3038 33.548 51.3038 31.48H50.1038ZM57.2438 38.8C59.2741 38.8 61.0256 38.1043 62.2698 36.835C63.5133 35.5665 64.2038 33.7726 64.2038 31.66H63.0038C63.0038 33.5074 62.4044 34.9835 61.4129 35.995C60.4221 37.0057 58.9935 37.6 57.2438 37.6V38.8ZM64.2038 31.66C64.2038 29.7788 63.6607 27.977 62.361 26.6437C61.0569 25.306 59.0694 24.52 56.3438 24.52V25.72C58.8382 25.72 60.4807 26.434 61.5017 27.4813C62.527 28.533 63.0038 30.0012 63.0038 31.66H64.2038Z" fill="white" mask="url(#path-1-outside-1_9240_2457)"/>
</g>
</svg>
