<svg width="63" height="47" viewBox="0 0 63 47" fill="none" xmlns="http://www.w3.org/2000/svg">
<g opacity="0.6">
<mask id="path-1-outside-1_9240_2436" maskUnits="userSpaceOnUse" x="-1" y="0" width="64" height="48" fill="black">
<rect fill="white" x="-1" width="64" height="48"/>
<path d="M0.331093 23.92C0.331093 10.18 8.13109 0.76 19.7111 0.76C31.2911 0.76 39.0911 10.18 39.0911 23.92C39.0911 37.66 31.8911 46.78 19.7111 46.78C7.53109 46.78 0.331093 37.66 0.331093 23.92ZM9.93109 23.92C9.93109 33.46 13.5311 38.26 19.7111 38.26C25.8911 38.26 29.4911 33.46 29.4911 23.92C29.4911 14.08 25.8911 9.28 19.7111 9.28C13.5311 9.28 9.93109 14.08 9.93109 23.92ZM52.7575 10.3H42.6775V1.6H62.0575V46H52.7575V10.3Z"/>
</mask>
<path d="M0.931093 23.92C0.931093 17.1599 2.84962 11.5151 6.13932 7.57186C9.42152 3.63757 14.097 1.36 19.7111 1.36V0.159999C13.7452 0.159999 8.73067 2.59243 5.21787 6.80314C1.71257 11.0049 -0.268907 16.9401 -0.268907 23.92H0.931093ZM19.7111 1.36C25.3252 1.36 30.0007 3.63757 33.2829 7.57186C36.5726 11.5151 38.4911 17.1599 38.4911 23.92H39.6911C39.6911 16.9401 37.7096 11.0049 34.2043 6.80314C30.6915 2.59243 25.677 0.159999 19.7111 0.159999V1.36ZM38.4911 23.92C38.4911 30.6912 36.7169 36.2572 33.5072 40.119C30.3084 43.9677 25.6385 46.18 19.7111 46.18V47.38C25.9637 47.38 30.9838 45.0323 34.43 40.886C37.8653 36.7528 39.6911 30.8888 39.6911 23.92H38.4911ZM19.7111 46.18C13.7837 46.18 9.11383 43.9677 5.91502 40.119C2.70534 36.2572 0.931093 30.6912 0.931093 23.92H-0.268907C-0.268907 30.8888 1.55685 36.7528 4.99216 40.886C8.43836 45.0323 13.4585 47.38 19.7111 47.38V46.18ZM9.33109 23.92C9.33109 28.7505 10.24 32.4767 12.0118 35.0113C13.8065 37.5785 16.4431 38.86 19.7111 38.86V37.66C16.7991 37.66 14.5457 36.5415 12.9953 34.3237C11.4222 32.0733 10.5311 28.6295 10.5311 23.92H9.33109ZM19.7111 38.86C22.9791 38.86 25.6157 37.5785 27.4104 35.0113C29.1822 32.4767 30.0911 28.7505 30.0911 23.92H28.8911C28.8911 28.6295 28 32.0733 26.4268 34.3237C24.8765 36.5415 22.6231 37.66 19.7111 37.66V38.86ZM30.0911 23.92C30.0911 18.9427 29.1833 15.1422 27.4128 12.5698C25.6183 9.96253 22.9801 8.68 19.7111 8.68V9.88C22.6221 9.88 24.8739 10.9975 26.4243 13.2502C27.9989 15.5378 28.8911 19.0573 28.8911 23.92H30.0911ZM19.7111 8.68C16.4421 8.68 13.8039 9.96253 12.0093 12.5698C10.2389 15.1422 9.33109 18.9427 9.33109 23.92H10.5311C10.5311 19.0573 11.4233 15.5378 12.9978 13.2502C14.5483 10.9975 16.8001 9.88 19.7111 9.88V8.68ZM52.7575 10.3H53.3575V9.7H52.7575V10.3ZM42.6775 10.3H42.0775V10.9H42.6775V10.3ZM42.6775 1.6V0.999999H42.0775V1.6H42.6775ZM62.0575 1.6H62.6575V0.999999H62.0575V1.6ZM62.0575 46V46.6H62.6575V46H62.0575ZM52.7575 46H52.1575V46.6H52.7575V46ZM52.7575 9.7H42.6775V10.9H52.7575V9.7ZM43.2775 10.3V1.6H42.0775V10.3H43.2775ZM42.6775 2.2H62.0575V0.999999H42.6775V2.2ZM61.4575 1.6V46H62.6575V1.6H61.4575ZM62.0575 45.4H52.7575V46.6H62.0575V45.4ZM53.3575 46V10.3H52.1575V46H53.3575Z" fill="white" mask="url(#path-1-outside-1_9240_2436)"/>
</g>
</svg>
