<svg width="76" height="47" viewBox="0 0 76 47" fill="none" xmlns="http://www.w3.org/2000/svg">
<g opacity="0.6">
<mask id="path-1-outside-1_9240_2449" maskUnits="userSpaceOnUse" x="-1" y="0" width="77" height="48" fill="black">
<rect fill="white" x="-1" width="77" height="48"/>
<path d="M0.262734 23.92C0.262734 10.18 8.06273 0.76 19.6427 0.76C31.2227 0.76 39.0227 10.18 39.0227 23.92C39.0227 37.66 31.8227 46.78 19.6427 46.78C7.46273 46.78 0.262734 37.66 0.262734 23.92ZM9.86273 23.92C9.86273 33.46 13.4627 38.26 19.6427 38.26C25.8227 38.26 29.4227 33.46 29.4227 23.92C29.4227 14.08 25.8227 9.28 19.6427 9.28C13.4627 9.28 9.86273 14.08 9.86273 23.92ZM75.0691 45.88L43.3891 46V38.8L58.0291 26.62C62.7691 22.72 64.7491 19.96 64.7491 16.3C64.7491 11.8 62.5291 9.4 58.5691 9.4C54.4291 9.4 52.0291 12.22 52.0291 17.2H42.3691C42.3691 7.24 48.7291 0.76 58.5091 0.76C68.6491 0.76 74.7091 6.22 74.7091 15.7C74.7091 21.76 71.0491 26.68 65.5291 31.3L58.8691 36.88H75.0691V45.88Z"/>
</mask>
<path d="M0.862734 23.92C0.862734 17.1599 2.78126 11.5151 6.07096 7.57186C9.35316 3.63757 14.0286 1.36 19.6427 1.36V0.159999C13.6768 0.159999 8.66231 2.59243 5.14951 6.80314C1.64421 11.0049 -0.337266 16.9401 -0.337266 23.92H0.862734ZM19.6427 1.36C25.2568 1.36 29.9323 3.63757 33.2145 7.57186C36.5042 11.5151 38.4227 17.1599 38.4227 23.92H39.6227C39.6227 16.9401 37.6413 11.0049 34.136 6.80314C30.6232 2.59243 25.6086 0.159999 19.6427 0.159999V1.36ZM38.4227 23.92C38.4227 30.6912 36.6485 36.2572 33.4388 40.119C30.24 43.9677 25.5702 46.18 19.6427 46.18V47.38C25.8953 47.38 30.9155 45.0323 34.3617 40.886C37.797 36.7528 39.6227 30.8888 39.6227 23.92H38.4227ZM19.6427 46.18C13.7153 46.18 9.04547 43.9677 5.84666 40.119C2.63698 36.2572 0.862734 30.6912 0.862734 23.92H-0.337266C-0.337266 30.8888 1.48849 36.7528 4.9238 40.886C8.37 45.0323 13.3902 47.38 19.6427 47.38V46.18ZM9.26273 23.92C9.26273 28.7505 10.1716 32.4767 11.9435 35.0113C13.7381 37.5785 16.3747 38.86 19.6427 38.86V37.66C16.7307 37.66 14.4773 36.5415 12.927 34.3237C11.3538 32.0733 10.4627 28.6295 10.4627 23.92H9.26273ZM19.6427 38.86C22.9107 38.86 25.5473 37.5785 27.342 35.0113C29.1138 32.4767 30.0227 28.7505 30.0227 23.92H28.8227C28.8227 28.6295 27.9316 32.0733 26.3585 34.3237C24.8081 36.5415 22.5547 37.66 19.6427 37.66V38.86ZM30.0227 23.92C30.0227 18.9427 29.115 15.1422 27.3445 12.5698C25.55 9.96253 22.9118 8.68 19.6427 8.68V9.88C22.5537 9.88 24.8055 10.9975 26.356 13.2502C27.9305 15.5378 28.8227 19.0573 28.8227 23.92H30.0227ZM19.6427 8.68C16.3737 8.68 13.7355 9.96253 11.941 12.5698C10.1705 15.1422 9.26273 18.9427 9.26273 23.92H10.4627C10.4627 19.0573 11.355 15.5378 12.9295 13.2502C14.48 10.9975 16.7318 9.88 19.6427 9.88V8.68ZM75.0691 45.88L75.0714 46.48L75.6691 46.4777V45.88H75.0691ZM43.3891 46H42.7891V46.6023L43.3914 46.6L43.3891 46ZM43.3891 38.8L43.0054 38.3388L42.7891 38.5187V38.8H43.3891ZM58.0291 26.62L57.6479 26.1567L57.6454 26.1588L58.0291 26.62ZM52.0291 17.2V17.8H52.6291V17.2H52.0291ZM42.3691 17.2H41.7691V17.8H42.3691V17.2ZM65.5291 31.3L65.1441 30.8399L65.1438 30.8401L65.5291 31.3ZM58.8691 36.88L58.4838 36.4201L57.2188 37.48H58.8691V36.88ZM75.0691 36.88H75.6691V36.28H75.0691V36.88ZM75.0669 45.28L43.3869 45.4L43.3914 46.6L75.0714 46.48L75.0669 45.28ZM43.9891 46V38.8H42.7891V46H43.9891ZM43.7729 39.2612L58.4129 27.0812L57.6454 26.1588L43.0054 38.3388L43.7729 39.2612ZM58.4104 27.0833C63.1743 23.1636 65.3491 20.248 65.3491 16.3H64.1491C64.1491 19.672 62.364 22.2764 57.6479 26.1567L58.4104 27.0833ZM65.3491 16.3C65.3491 13.9592 64.7719 12.0695 63.5894 10.7603C62.3981 9.44141 60.6729 8.8 58.5691 8.8V10C60.4253 10 61.7902 10.5586 62.6989 11.5647C63.6164 12.5805 64.1491 14.1408 64.1491 16.3H65.3491ZM58.5691 8.8C56.3538 8.8 54.538 9.5607 53.2876 11.0461C52.0497 12.5166 51.4291 14.622 51.4291 17.2H52.6291C52.6291 14.798 53.2085 13.0034 54.2057 11.8189C55.1902 10.6493 56.6445 10 58.5691 10V8.8ZM52.0291 16.6H42.3691V17.8H52.0291V16.6ZM42.9691 17.2C42.9691 12.3494 44.5155 8.39972 47.1998 5.66532C49.883 2.93202 53.7551 1.36 58.5091 1.36V0.159999C53.4832 0.159999 49.2853 1.82798 46.3435 4.82468C43.4028 7.82028 41.7691 12.0906 41.7691 17.2H42.9691ZM58.5091 1.36C63.476 1.36 67.3647 2.69651 70.0063 5.11734C72.6405 7.53151 74.1091 11.0923 74.1091 15.7H75.3091C75.3091 10.8277 73.7477 6.91849 70.817 4.23266C67.8936 1.55349 63.6823 0.159999 58.5091 0.159999V1.36ZM74.1091 15.7C74.1091 21.4889 70.6212 26.2558 65.1441 30.8399L65.9142 31.7601C71.4771 27.1042 75.3091 22.0311 75.3091 15.7H74.1091ZM65.1438 30.8401L58.4838 36.4201L59.2545 37.3399L65.9145 31.7599L65.1438 30.8401ZM58.8691 37.48H75.0691V36.28H58.8691V37.48ZM74.4691 36.88V45.88H75.6691V36.88H74.4691Z" fill="white" mask="url(#path-1-outside-1_9240_2449)"/>
</g>
</svg>
