<svg width="24" height="24" viewBox="0 0 24 24" fill="none" xmlns="http://www.w3.org/2000/svg">
<g clip-path="url(#clip0_1091_707)">
<path d="M24 21.3333C24 22.0406 23.719 22.7189 23.219 23.219C22.7189 23.719 22.0406 24 21.3333 24H2.66667C1.95942 24 1.28115 23.719 0.781049 23.219C0.280952 22.7189 0 22.0406 0 21.3333V2.66667C0 1.95942 0.280952 1.28115 0.781049 0.781049C1.28115 0.280952 1.95942 0 2.66667 0L21.3333 0C22.0406 0 22.7189 0.280952 23.219 0.781049C23.719 1.28115 24 1.95942 24 2.66667V21.3333Z" fill="#226699"/>
<path d="M12.0007 1.49951L14.5013 4.00018H18.0007V7.49951L20.5013 10.0002L18.0007 12.5008V16.0002H14.5013L12.0007 18.5008L9.5 16.0002H6.00067V12.5008L3.5 10.0002L6.00067 7.49951V4.00018H9.5L12.0007 1.49951Z" fill="#55ACEE"/>
<path d="M12.0018 3.0625L13.4911 6.44183L16.7258 5.49717L15.7804 8.73117L20.1044 10.2212L15.7804 11.7105L16.7258 14.9445L13.4911 13.9998L12.0018 22.1025L10.5118 13.9998L7.27844 14.9445L8.2231 11.7105L3.89844 10.2212L8.2231 8.73117L7.27844 5.49717L10.5118 6.44183L12.0018 3.0625Z" fill="#FFD983"/>
<path d="M12 12C13.1046 12 14 11.1046 14 10C14 8.89543 13.1046 8 12 8C10.8954 8 10 8.89543 10 10C10 11.1046 10.8954 12 12 12Z" fill="#F5F8FA"/>
<path d="M6.66615 8.6668C6.53467 8.66686 6.40612 8.62788 6.29682 8.5548L2.29682 5.88814C2.22398 5.83955 2.16142 5.77709 2.11272 5.70432C2.06402 5.63156 2.03013 5.54991 2.01298 5.46405C1.97835 5.29064 2.01402 5.11058 2.11215 4.96347C2.21028 4.81636 2.36283 4.71426 2.53624 4.67963C2.70965 4.645 2.88971 4.68067 3.03682 4.7788L7.03682 7.44547C7.15592 7.52489 7.24629 7.64053 7.29457 7.77529C7.34285 7.91005 7.34647 8.05677 7.3049 8.19375C7.26333 8.33072 7.17877 8.45068 7.06374 8.53588C6.9487 8.62107 6.8093 8.66698 6.66615 8.6668ZM17.3342 8.6668C17.191 8.66698 17.0516 8.62107 16.9366 8.53588C16.8215 8.45068 16.737 8.33072 16.6954 8.19375C16.6538 8.05677 16.6574 7.91005 16.7057 7.77529C16.754 7.64053 16.8444 7.52489 16.9635 7.44547L20.9635 4.7788C21.0363 4.73021 21.118 4.69645 21.2039 4.67943C21.2898 4.66242 21.3782 4.66248 21.4641 4.67963C21.5499 4.69678 21.6316 4.73067 21.7043 4.77937C21.7771 4.82807 21.8396 4.89063 21.8882 4.96347C21.9367 5.03631 21.9705 5.11801 21.9875 5.2039C22.0045 5.28979 22.0045 5.37819 21.9873 5.46405C21.9702 5.54991 21.9363 5.63156 21.8876 5.70432C21.8389 5.77709 21.7763 5.83955 21.7035 5.88814L17.7035 8.5548C17.5942 8.62788 17.4656 8.66686 17.3342 8.6668ZM2.66748 16.0001C2.52434 16.0003 2.38493 15.9544 2.2699 15.8692C2.15486 15.784 2.0703 15.6641 2.02873 15.5271C1.98716 15.3901 1.99078 15.2434 2.03906 15.1086C2.08734 14.9739 2.17772 14.8582 2.29682 14.7788L6.29682 12.1121C6.4439 12.0227 6.61987 11.9935 6.78795 12.0308C6.95603 12.068 7.10322 12.1687 7.19876 12.312C7.29429 12.4552 7.33078 12.6298 7.3006 12.7993C7.27043 12.9688 7.17591 13.12 7.03682 13.2215L3.03682 15.8881C2.92737 15.9609 2.79892 15.9999 2.66748 16.0001ZM21.9995 16.0001C21.8837 16.0003 21.7698 15.97 21.6695 15.9121L17.0028 13.2455C16.8538 13.1556 16.7458 13.0109 16.702 12.8424C16.6582 12.6739 16.682 12.495 16.7684 12.3439C16.8547 12.1927 16.9968 12.0814 17.1642 12.0336C17.3316 11.9858 17.511 12.0054 17.6642 12.0881L22.3308 14.7548C22.4584 14.8278 22.5583 14.9409 22.615 15.0766C22.6716 15.2122 22.6818 15.3628 22.644 15.5049C22.6062 15.6469 22.5225 15.7725 22.406 15.8621C22.2894 15.9517 22.1465 16.0002 21.9995 16.0001ZM6.66682 22.6668C6.5558 22.6667 6.44657 22.6389 6.34903 22.5859C6.25149 22.5329 6.16873 22.4563 6.10827 22.3632C6.04781 22.2701 6.01156 22.1634 6.00281 22.0527C5.99406 21.942 6.01308 21.8309 6.05815 21.7295L8.72482 15.7295C8.75883 15.6472 8.80898 15.5726 8.87229 15.51C8.93561 15.4475 9.01081 15.3982 9.09346 15.3652C9.17612 15.3321 9.26455 15.316 9.35355 15.3177C9.44255 15.3194 9.53031 15.3389 9.61165 15.375C9.69299 15.4112 9.76626 15.4632 9.82716 15.5282C9.88805 15.5931 9.93532 15.6696 9.96619 15.7531C9.99706 15.8365 10.0109 15.9254 10.0069 16.0143C10.0029 16.1032 9.98108 16.1904 9.94282 16.2708L7.27615 22.2708C7.22364 22.3886 7.13817 22.4886 7.03004 22.5589C6.92192 22.6292 6.79577 22.6667 6.66682 22.6668ZM17.3342 22.6668C17.205 22.6669 17.0787 22.6296 16.9704 22.5593C16.8621 22.489 16.7766 22.3888 16.7242 22.2708L14.0575 16.2708C13.9857 16.1092 13.9811 15.9257 14.0446 15.7607C14.1081 15.5956 14.2345 15.4626 14.3962 15.3908C14.5578 15.319 14.7413 15.3144 14.9063 15.3779C15.0713 15.4414 15.2044 15.5679 15.2761 15.7295L17.9428 21.7295C17.9879 21.8309 18.0069 21.942 17.9982 22.0527C17.9894 22.1634 17.9532 22.2701 17.8927 22.3632C17.8322 22.4563 17.7495 22.5329 17.6519 22.5859C17.5544 22.6389 17.4452 22.6667 17.3342 22.6668ZM10.0008 5.33347C9.87682 5.33365 9.75522 5.29925 9.6497 5.23412C9.54418 5.16899 9.45891 5.07573 9.40348 4.9648L8.07015 2.29814C7.99103 2.13998 7.97797 1.95687 8.03386 1.78909C8.08975 1.6213 8.20999 1.48259 8.36815 1.40347C8.52631 1.32435 8.70942 1.31129 8.8772 1.36718C9.04498 1.42306 9.18369 1.54331 9.26282 1.70147L10.5962 4.36814C10.6471 4.46973 10.6712 4.58264 10.6661 4.69616C10.6611 4.80968 10.6272 4.92003 10.5676 5.01675C10.5079 5.11346 10.4245 5.19333 10.3254 5.24876C10.2262 5.30419 10.1144 5.33335 10.0008 5.33347ZM13.9995 5.33347C13.8859 5.3333 13.7743 5.30413 13.6752 5.24873C13.5761 5.19333 13.4928 5.11354 13.4332 5.01692C13.3736 4.9203 13.3396 4.81006 13.3345 4.69663C13.3294 4.58321 13.3534 4.47037 13.4042 4.3688L14.7375 1.70214C14.8166 1.54398 14.9553 1.42373 15.1231 1.36785C15.2909 1.31196 15.474 1.32501 15.6322 1.40414C15.7903 1.48326 15.9106 1.62197 15.9664 1.78975C16.0223 1.95754 16.0093 2.14065 15.9302 2.2988L14.5968 4.96547C14.4795 5.1988 14.2442 5.33347 13.9995 5.33347Z" fill="#FFCC4D"/>
</g>
<defs>
<clipPath id="clip0_1091_707">
<rect width="24" height="24" fill="white"/>
</clipPath>
</defs>
</svg>
